<?xml version="1.0" encoding="UTF-8" standalone="no"?><svg xmlns="http://www.w3.org/2000/svg" xmlns:xlink="http://www.w3.org/1999/xlink" contentStyleType="text/css" height="2420px" preserveAspectRatio="none" style="width:2260px;height:2420px;background:#FFFFFF;" version="1.1" viewBox="0 0 2260 2420" width="2260px" zoomAndPan="magnify"><defs/><g><rect fill="none" height="27.6094" id="_title" style="stroke:none;stroke-width:1.0;" width="89" x="1078.5" y="5"/><text fill="#000000" font-family="sans-serif" font-size="14" font-weight="bold" lengthAdjust="spacing" textLength="79" x="1083.5" y="24.5332">Diagrama B</text><!--MD5=[a3597afe9eb4c055ba778920fb571657]
cluster Overtime_tax_Basis_for_period--><g id="cluster_Overtime_tax_Basis_for_period"><path d="M8.5,662.6094 L75.5,662.6094 A3.75,3.75 0 0 1 78,665.1094 L85,686.2188 L2012.5,686.2188 A2.5,2.5 0 0 1 2015,688.7188 L2015,2252.1094 A2.5,2.5 0 0 1 2012.5,2254.6094 L8.5,2254.6094 A2.5,2.5 0 0 1 6,2252.1094 L6,665.1094 A2.5,2.5 0 0 1 8.5,662.6094 " fill="none" style="stroke:#000000;stroke-width:1.5;"/><line style="stroke:#000000;stroke-width:1.5;" x1="6" x2="85" y1="686.2188" y2="686.2188"/><text fill="#000000" font-family="sans-serif" font-size="14" font-weight="bold" lengthAdjust="spacing" textLength="66" x="10" y="679.1426">Tax Basis</text></g><!--MD5=[d8c9939e42cc7e0c89a6ed8a0147e133]
cluster overtime_getter_factory--><g id="cluster_overtime_getter_factory"><path d="M32.5,823.6094 L128.5,823.6094 A3.75,3.75 0 0 1 131,826.1094 L138,847.2188 L909.5,847.2188 A2.5,2.5 0 0 1 912,849.7188 L912,1369.1094 A2.5,2.5 0 0 1 909.5,1371.6094 L32.5,1371.6094 A2.5,2.5 0 0 1 30,1369.1094 L30,826.1094 A2.5,2.5 0 0 1 32.5,823.6094 " fill="none" style="stroke:#000000;stroke-width:1.5;"/><line style="stroke:#000000;stroke-width:1.5;" x1="30" x2="138" y1="847.2188" y2="847.2188"/><text fill="#000000" font-family="sans-serif" font-size="14" font-weight="bold" lengthAdjust="spacing" textLength="95" x="34" y="840.1426">getter factory</text></g><!--MD5=[547b150255f2a53cbef317c528d766b2]
cluster overtime_getter--><g id="cluster_overtime_getter"><path d="M938.5,1110.6094 L1057.5,1110.6094 A3.75,3.75 0 0 1 1060,1113.1094 L1067,1134.2188 L1988.5,1134.2188 A2.5,2.5 0 0 1 1991,1136.7188 L1991,2228.1094 A2.5,2.5 0 0 1 1988.5,2230.6094 L938.5,2230.6094 A2.5,2.5 0 0 1 936,2228.1094 L936,1113.1094 A2.5,2.5 0 0 1 938.5,1110.6094 " fill="none" style="stroke:#000000;stroke-width:1.5;"/><line style="stroke:#000000;stroke-width:1.5;" x1="936" x2="1067" y1="1134.2188" y2="1134.2188"/><text fill="#000000" font-family="sans-serif" font-size="14" font-weight="bold" lengthAdjust="spacing" textLength="118" x="940" y="1127.1426">overtime getters</text></g><!--MD5=[c45871dfd967de0a789e707af4f672dc]
cluster enumerators--><g id="cluster_enumerators"><path d="M1461.5,2278.6094 L1552.5,2278.6094 A3.75,3.75 0 0 1 1555,2281.1094 L1562,2302.2188 L2250.5,2302.2188 A2.5,2.5 0 0 1 2253,2304.7188 L2253,2411.1094 A2.5,2.5 0 0 1 2250.5,2413.6094 L1461.5,2413.6094 A2.5,2.5 0 0 1 1459,2411.1094 L1459,2281.1094 A2.5,2.5 0 0 1 1461.5,2278.6094 " fill="none" style="stroke:#000000;stroke-width:1.5;"/><line style="stroke:#000000;stroke-width:1.5;" x1="1459" x2="1562" y1="2302.2188" y2="2302.2188"/><text fill="#000000" font-family="sans-serif" font-size="14" font-weight="bold" lengthAdjust="spacing" textLength="90" x="1463" y="2295.1426">enumerators</text></g><path d="M863,44.6094 L907,44.6094 A3.75,3.75 0 0 1 909.5,47.1094 L916.5,68.2188 L921,68.2188 A2.5,2.5 0 0 1 923.5,70.7188 L923.5,97.3281 A2.5,2.5 0 0 1 921,99.8281 L863,99.8281 A2.5,2.5 0 0 1 860.5,97.3281 L860.5,47.1094 A2.5,2.5 0 0 1 863,44.6094 " fill="#F1F1F1" style="stroke:#181818;stroke-width:0.5;"/><line style="stroke:#181818;stroke-width:0.5;" x1="860.5" x2="916.5" y1="68.2188" y2="68.2188"/><text fill="#000000" font-family="sans-serif" font-size="14" lengthAdjust="spacing" textLength="43" x="864.5" y="61.1426">Payroll</text><!--MD5=[f95c0a5f667eea5798a2a2b13f7c3614]
class lcl_base_calculator--><g id="elem_lcl_base_calculator"><rect codeLine="33" fill="#F1F1F1" height="100.8281" id="lcl_base_calculator" rx="2.5" ry="2.5" style="stroke:#181818;stroke-width:0.5;" width="640" x="572" y="698.6094"/><ellipse cx="827.25" cy="714.6094" fill="#ADD1B2" rx="11" ry="11" style="stroke:#181818;stroke-width:1.0;"/><path d="M830.0156,710.4844 Q830.1719,710.2656 830.3594,710.1563 Q830.5469,710.0469 830.7656,710.0469 Q831.1406,710.0469 831.375,710.3125 Q831.6094,710.5625 831.6094,711.1719 L831.6094,712.625 Q831.6094,713.2344 831.375,713.5 Q831.1406,713.7656 830.7656,713.7656 Q830.4219,713.7656 830.2188,713.5625 Q830.0156,713.375 829.9063,712.8594 Q829.8594,712.5 829.6719,712.3125 Q829.3438,711.9375 828.7344,711.7188 Q828.125,711.5 827.5,711.5 Q826.7344,711.5 826.0938,711.8281 Q825.4688,712.1563 824.9688,712.9063 Q824.4844,713.6563 824.4844,714.6875 L824.4844,715.7813 Q824.4844,717.0156 825.375,717.8438 Q826.2656,718.6563 827.8594,718.6563 Q828.7969,718.6563 829.4531,718.4063 Q829.8438,718.25 830.2656,717.8125 Q830.5313,717.5469 830.6719,717.4688 Q830.8281,717.3906 831.0313,717.3906 Q831.3594,717.3906 831.6094,717.6563 Q831.875,717.9063 831.875,718.25 Q831.875,718.5938 831.5313,719 Q831.0313,719.5781 830.2344,719.9063 Q829.1563,720.3594 827.8594,720.3594 Q826.3438,720.3594 825.1406,719.7344 Q824.1563,719.2344 823.4688,718.1719 Q822.7813,717.0938 822.7813,715.8125 L822.7813,714.6563 Q822.7813,713.3281 823.3906,712.1875 Q824.0156,711.0313 825.1094,710.4219 Q826.2031,709.7969 827.4375,709.7969 Q828.1719,709.7969 828.8125,709.9688 Q829.4688,710.125 830.0156,710.4844 Z " fill="#000000"/><text fill="#000000" font-family="sans-serif" font-size="14" lengthAdjust="spacing" textLength="121" x="847.75" y="720.3379">lcl_base_calculator</text><line style="stroke:#181818;stroke-width:0.5;" x1="573" x2="1211" y1="730.6094" y2="730.6094"/><rect fill="none" height="6" style="stroke:#C82930;stroke-width:1.0;" width="6" x="580" y="741.9141"/><text fill="#000000" font-family="sans-serif" font-size="14" lengthAdjust="spacing" textLength="300" x="592" y="749.1426">mo_payroll_context : if_hrpaypt_payroll_context</text><rect fill="none" height="6" style="stroke:#C82930;stroke-width:1.0;" width="6" x="580" y="759.5234"/><text fill="#000000" font-family="sans-serif" font-size="14" lengthAdjust="spacing" textLength="233" x="592" y="766.752">mo_base_getter_f : lif_base_getter_f</text><line style="stroke:#181818;stroke-width:0.5;" x1="573" x2="1211" y1="773.8281" y2="773.8281"/><ellipse cx="583" cy="788.1328" fill="#84BE84" rx="3" ry="3" style="stroke:#038048;stroke-width:1.0;"/><text fill="#000000" font-family="sans-serif" font-size="14" lengthAdjust="spacing" textLength="614" x="592" y="792.3613">constructor( io_payroll_context : if_hrpaypt_payroll_context, io_base_getter_f : lif_base_getter_f )</text></g><!--MD5=[51c5ccb16e052f8684d66ac23e456b3a]
class lif_base_getter_f--><g id="elem_lif_base_getter_f"><rect codeLine="39" fill="#F1F1F1" height="65.6094" id="lif_base_getter_f" rx="2.5" ry="2.5" style="stroke:#181818;stroke-width:0.5;" width="162" x="734" y="859.6094"/><ellipse cx="759.8" cy="875.6094" fill="#B4A7E5" rx="11" ry="11" style="stroke:#181818;stroke-width:1.0;"/><path d="M760.7531,872.25 L760.7531,878.9063 L762.4719,878.9063 Q763.0813,878.9063 763.3469,879.1406 Q763.6125,879.375 763.6125,879.7656 Q763.6125,880.1406 763.3469,880.375 Q763.0813,880.6094 762.4719,880.6094 L757.3313,880.6094 Q756.7219,880.6094 756.4563,880.375 Q756.1906,880.1406 756.1906,879.75 Q756.1906,879.375 756.4563,879.1406 Q756.7219,878.9063 757.3313,878.9063 L759.05,878.9063 L759.05,872.25 L757.3313,872.25 Q756.7219,872.25 756.4563,872.0156 Q756.1906,871.7813 756.1906,871.3906 Q756.1906,871.0156 756.4563,870.7813 Q756.7219,870.5469 757.3313,870.5469 L762.4719,870.5469 Q763.0813,870.5469 763.3469,870.7813 Q763.6125,871.0156 763.6125,871.3906 Q763.6125,871.7813 763.3469,872.0156 Q763.0813,872.25 762.4719,872.25 L760.7531,872.25 Z " fill="#000000"/><text fill="#000000" font-family="sans-serif" font-size="14" font-style="italic" lengthAdjust="spacing" textLength="106" x="776.2" y="881.3379">lif_base_getter_f</text><line style="stroke:#181818;stroke-width:0.5;" x1="735" x2="895" y1="891.6094" y2="891.6094"/><line style="stroke:#181818;stroke-width:0.5;" x1="735" x2="895" y1="899.6094" y2="899.6094"/><text fill="#000000" font-family="sans-serif" font-size="14" lengthAdjust="spacing" textLength="150" x="740" y="918.1426">build( ) : lif_base_getter</text></g><!--MD5=[c8f5a8a9136f8a37b6f33a44777c9d72]
class lcl_cumulation_base_getter_f--><g id="elem_lcl_cumulation_base_getter_f"><rect codeLine="43" fill="#F1F1F1" height="100.8281" id="lcl_cumulation_base_getter_f" rx="2.5" ry="2.5" style="stroke:#181818;stroke-width:0.5;" width="782" x="114" y="985.6094"/><ellipse cx="408.25" cy="1001.6094" fill="#ADD1B2" rx="11" ry="11" style="stroke:#181818;stroke-width:1.0;"/><path d="M411.0156,997.4844 Q411.1719,997.2656 411.3594,997.1563 Q411.5469,997.0469 411.7656,997.0469 Q412.1406,997.0469 412.375,997.3125 Q412.6094,997.5625 412.6094,998.1719 L412.6094,999.625 Q412.6094,1000.2344 412.375,1000.5 Q412.1406,1000.7656 411.7656,1000.7656 Q411.4219,1000.7656 411.2188,1000.5625 Q411.0156,1000.375 410.9063,999.8594 Q410.8594,999.5 410.6719,999.3125 Q410.3438,998.9375 409.7344,998.7188 Q409.125,998.5 408.5,998.5 Q407.7344,998.5 407.0938,998.8281 Q406.4688,999.1563 405.9688,999.9063 Q405.4844,1000.6563 405.4844,1001.6875 L405.4844,1002.7813 Q405.4844,1004.0156 406.375,1004.8438 Q407.2656,1005.6563 408.8594,1005.6563 Q409.7969,1005.6563 410.4531,1005.4063 Q410.8438,1005.25 411.2656,1004.8125 Q411.5313,1004.5469 411.6719,1004.4688 Q411.8281,1004.3906 412.0313,1004.3906 Q412.3594,1004.3906 412.6094,1004.6563 Q412.875,1004.9063 412.875,1005.25 Q412.875,1005.5938 412.5313,1006 Q412.0313,1006.5781 411.2344,1006.9063 Q410.1563,1007.3594 408.8594,1007.3594 Q407.3438,1007.3594 406.1406,1006.7344 Q405.1563,1006.2344 404.4688,1005.1719 Q403.7813,1004.0938 403.7813,1002.8125 L403.7813,1001.6563 Q403.7813,1000.3281 404.3906,999.1875 Q405.0156,998.0313 406.1094,997.4219 Q407.2031,996.7969 408.4375,996.7969 Q409.1719,996.7969 409.8125,996.9688 Q410.4688,997.125 411.0156,997.4844 Z " fill="#000000"/><text fill="#000000" font-family="sans-serif" font-size="14" lengthAdjust="spacing" textLength="185" x="428.75" y="1007.3379">lcl_cumulation_base_getter_f</text><line style="stroke:#181818;stroke-width:0.5;" x1="115" x2="895" y1="1017.6094" y2="1017.6094"/><rect fill="none" height="6" style="stroke:#C82930;stroke-width:1.0;" width="6" x="122" y="1028.9141"/><text fill="#000000" font-family="sans-serif" font-size="14" lengthAdjust="spacing" textLength="255" x="134" y="1036.1426">mo_has_cumulation : lif_has_cumulation</text><rect fill="none" height="6" style="stroke:#C82930;stroke-width:1.0;" width="6" x="122" y="1046.5234"/><text fill="#000000" font-family="sans-serif" font-size="14" lengthAdjust="spacing" textLength="420" x="134" y="1053.752">mo_is_prev_month_limit_reached : lif_is_prev_month_lim_reached</text><line style="stroke:#181818;stroke-width:0.5;" x1="115" x2="895" y1="1060.8281" y2="1060.8281"/><ellipse cx="125" cy="1075.1328" fill="#84BE84" rx="3" ry="3" style="stroke:#038048;stroke-width:1.0;"/><text fill="#000000" font-family="sans-serif" font-size="14" lengthAdjust="spacing" textLength="756" x="134" y="1079.3613">constructor( io_has_cumulation : lif_has_cumulation, io_is_prev_month_limit_reached : lif_is_prev_month_lim_reached )</text></g><!--MD5=[1663ab885c56643dc3aa092e3d7bcaff]
class lif_is_prev_month_lim_reached--><g id="elem_lif_is_prev_month_lim_reached"><rect codeLine="48" fill="#F1F1F1" height="65.6094" id="lif_is_prev_month_lim_reached" rx="2.5" ry="2.5" style="stroke:#181818;stroke-width:0.5;" width="227" x="152.5" y="1146.6094"/><ellipse cx="167.5" cy="1162.6094" fill="#B4A7E5" rx="11" ry="11" style="stroke:#181818;stroke-width:1.0;"/><path d="M168.4531,1159.25 L168.4531,1165.9063 L170.1719,1165.9063 Q170.7813,1165.9063 171.0469,1166.1406 Q171.3125,1166.375 171.3125,1166.7656 Q171.3125,1167.1406 171.0469,1167.375 Q170.7813,1167.6094 170.1719,1167.6094 L165.0313,1167.6094 Q164.4219,1167.6094 164.1563,1167.375 Q163.8906,1167.1406 163.8906,1166.75 Q163.8906,1166.375 164.1563,1166.1406 Q164.4219,1165.9063 165.0313,1165.9063 L166.75,1165.9063 L166.75,1159.25 L165.0313,1159.25 Q164.4219,1159.25 164.1563,1159.0156 Q163.8906,1158.7813 163.8906,1158.3906 Q163.8906,1158.0156 164.1563,1157.7813 Q164.4219,1157.5469 165.0313,1157.5469 L170.1719,1157.5469 Q170.7813,1157.5469 171.0469,1157.7813 Q171.3125,1158.0156 171.3125,1158.3906 Q171.3125,1158.7813 171.0469,1159.0156 Q170.7813,1159.25 170.1719,1159.25 L168.4531,1159.25 Z " fill="#000000"/><text fill="#000000" font-family="sans-serif" font-size="14" font-style="italic" lengthAdjust="spacing" textLength="195" x="181.5" y="1168.3379">lif_is_prev_month_lim_reached</text><line style="stroke:#181818;stroke-width:0.5;" x1="153.5" x2="378.5" y1="1178.6094" y2="1178.6094"/><line style="stroke:#181818;stroke-width:0.5;" x1="153.5" x2="378.5" y1="1186.6094" y2="1186.6094"/><text fill="#000000" font-family="sans-serif" font-size="14" lengthAdjust="spacing" textLength="103" x="158.5" y="1205.1426">is( ) : abap_bool</text></g><!--MD5=[8e3223185fd097651e2c850f2b294760]
class lcl_is_prev_month_lim_reached--><g id="elem_lcl_is_prev_month_lim_reached"><rect codeLine="52" fill="#F1F1F1" height="83.2188" id="lcl_is_prev_month_lim_reached" rx="2.5" ry="2.5" style="stroke:#181818;stroke-width:0.5;" width="407" x="46.5" y="1272.6094"/><ellipse cx="146.25" cy="1288.6094" fill="#ADD1B2" rx="11" ry="11" style="stroke:#181818;stroke-width:1.0;"/><path d="M149.0156,1284.4844 Q149.1719,1284.2656 149.3594,1284.1563 Q149.5469,1284.0469 149.7656,1284.0469 Q150.1406,1284.0469 150.375,1284.3125 Q150.6094,1284.5625 150.6094,1285.1719 L150.6094,1286.625 Q150.6094,1287.2344 150.375,1287.5 Q150.1406,1287.7656 149.7656,1287.7656 Q149.4219,1287.7656 149.2188,1287.5625 Q149.0156,1287.375 148.9063,1286.8594 Q148.8594,1286.5 148.6719,1286.3125 Q148.3438,1285.9375 147.7344,1285.7188 Q147.125,1285.5 146.5,1285.5 Q145.7344,1285.5 145.0938,1285.8281 Q144.4688,1286.1563 143.9688,1286.9063 Q143.4844,1287.6563 143.4844,1288.6875 L143.4844,1289.7813 Q143.4844,1291.0156 144.375,1291.8438 Q145.2656,1292.6563 146.8594,1292.6563 Q147.7969,1292.6563 148.4531,1292.4063 Q148.8438,1292.25 149.2656,1291.8125 Q149.5313,1291.5469 149.6719,1291.4688 Q149.8281,1291.3906 150.0313,1291.3906 Q150.3594,1291.3906 150.6094,1291.6563 Q150.875,1291.9063 150.875,1292.25 Q150.875,1292.5938 150.5313,1293 Q150.0313,1293.5781 149.2344,1293.9063 Q148.1563,1294.3594 146.8594,1294.3594 Q145.3438,1294.3594 144.1406,1293.7344 Q143.1563,1293.2344 142.4688,1292.1719 Q141.7813,1291.0938 141.7813,1289.8125 L141.7813,1288.6563 Q141.7813,1287.3281 142.3906,1286.1875 Q143.0156,1285.0313 144.1094,1284.4219 Q145.2031,1283.7969 146.4375,1283.7969 Q147.1719,1283.7969 147.8125,1283.9688 Q148.4688,1284.125 149.0156,1284.4844 Z " fill="#000000"/><text fill="#000000" font-family="sans-serif" font-size="14" lengthAdjust="spacing" textLength="199" x="166.75" y="1294.3379">lcl_is_prev_month_lim_reached</text><line style="stroke:#181818;stroke-width:0.5;" x1="47.5" x2="452.5" y1="1304.6094" y2="1304.6094"/><rect fill="none" height="6" style="stroke:#C82930;stroke-width:1.0;" width="6" x="54.5" y="1315.9141"/><text fill="#000000" font-family="sans-serif" font-size="14" lengthAdjust="spacing" textLength="300" x="66.5" y="1323.1426">mo_payroll_context : if_hrpaypt_payroll_context</text><line style="stroke:#181818;stroke-width:0.5;" x1="47.5" x2="452.5" y1="1330.2188" y2="1330.2188"/><ellipse cx="57.5" cy="1344.5234" fill="#84BE84" rx="3" ry="3" style="stroke:#038048;stroke-width:1.0;"/><text fill="#000000" font-family="sans-serif" font-size="14" lengthAdjust="spacing" textLength="381" x="66.5" y="1348.752">constructor( io_payroll_context : if_hrpaypt_payroll_context )</text></g><!--MD5=[5f655bdafc5db67afdfb3892ec2a8f6f]
class lif_has_cumulation--><g id="elem_lif_has_cumulation"><rect codeLine="57" fill="#F1F1F1" height="65.6094" id="lif_has_cumulation" rx="2.5" ry="2.5" style="stroke:#181818;stroke-width:0.5;" width="149" x="523.5" y="1146.6094"/><ellipse cx="538.5" cy="1162.6094" fill="#B4A7E5" rx="11" ry="11" style="stroke:#181818;stroke-width:1.0;"/><path d="M539.4531,1159.25 L539.4531,1165.9063 L541.1719,1165.9063 Q541.7813,1165.9063 542.0469,1166.1406 Q542.3125,1166.375 542.3125,1166.7656 Q542.3125,1167.1406 542.0469,1167.375 Q541.7813,1167.6094 541.1719,1167.6094 L536.0313,1167.6094 Q535.4219,1167.6094 535.1563,1167.375 Q534.8906,1167.1406 534.8906,1166.75 Q534.8906,1166.375 535.1563,1166.1406 Q535.4219,1165.9063 536.0313,1165.9063 L537.75,1165.9063 L537.75,1159.25 L536.0313,1159.25 Q535.4219,1159.25 535.1563,1159.0156 Q534.8906,1158.7813 534.8906,1158.3906 Q534.8906,1158.0156 535.1563,1157.7813 Q535.4219,1157.5469 536.0313,1157.5469 L541.1719,1157.5469 Q541.7813,1157.5469 542.0469,1157.7813 Q542.3125,1158.0156 542.3125,1158.3906 Q542.3125,1158.7813 542.0469,1159.0156 Q541.7813,1159.25 541.1719,1159.25 L539.4531,1159.25 Z " fill="#000000"/><text fill="#000000" font-family="sans-serif" font-size="14" font-style="italic" lengthAdjust="spacing" textLength="117" x="552.5" y="1168.3379">lif_has_cumulation</text><line style="stroke:#181818;stroke-width:0.5;" x1="524.5" x2="671.5" y1="1178.6094" y2="1178.6094"/><line style="stroke:#181818;stroke-width:0.5;" x1="524.5" x2="671.5" y1="1186.6094" y2="1186.6094"/><text fill="#000000" font-family="sans-serif" font-size="14" lengthAdjust="spacing" textLength="112" x="529.5" y="1205.1426">has() : abap_bool</text></g><!--MD5=[52319a66446ed428557d83c543e005f2]
class lcl_has_cumulation--><g id="elem_lcl_has_cumulation"><rect codeLine="60" fill="#F1F1F1" height="83.2188" id="lcl_has_cumulation" rx="2.5" ry="2.5" style="stroke:#181818;stroke-width:0.5;" width="407" x="488.5" y="1272.6094"/><ellipse cx="627.75" cy="1288.6094" fill="#ADD1B2" rx="11" ry="11" style="stroke:#181818;stroke-width:1.0;"/><path d="M630.5156,1284.4844 Q630.6719,1284.2656 630.8594,1284.1563 Q631.0469,1284.0469 631.2656,1284.0469 Q631.6406,1284.0469 631.875,1284.3125 Q632.1094,1284.5625 632.1094,1285.1719 L632.1094,1286.625 Q632.1094,1287.2344 631.875,1287.5 Q631.6406,1287.7656 631.2656,1287.7656 Q630.9219,1287.7656 630.7188,1287.5625 Q630.5156,1287.375 630.4063,1286.8594 Q630.3594,1286.5 630.1719,1286.3125 Q629.8438,1285.9375 629.2344,1285.7188 Q628.625,1285.5 628,1285.5 Q627.2344,1285.5 626.5938,1285.8281 Q625.9688,1286.1563 625.4688,1286.9063 Q624.9844,1287.6563 624.9844,1288.6875 L624.9844,1289.7813 Q624.9844,1291.0156 625.875,1291.8438 Q626.7656,1292.6563 628.3594,1292.6563 Q629.2969,1292.6563 629.9531,1292.4063 Q630.3438,1292.25 630.7656,1291.8125 Q631.0313,1291.5469 631.1719,1291.4688 Q631.3281,1291.3906 631.5313,1291.3906 Q631.8594,1291.3906 632.1094,1291.6563 Q632.375,1291.9063 632.375,1292.25 Q632.375,1292.5938 632.0313,1293 Q631.5313,1293.5781 630.7344,1293.9063 Q629.6563,1294.3594 628.3594,1294.3594 Q626.8438,1294.3594 625.6406,1293.7344 Q624.6563,1293.2344 623.9688,1292.1719 Q623.2813,1291.0938 623.2813,1289.8125 L623.2813,1288.6563 Q623.2813,1287.3281 623.8906,1286.1875 Q624.5156,1285.0313 625.6094,1284.4219 Q626.7031,1283.7969 627.9375,1283.7969 Q628.6719,1283.7969 629.3125,1283.9688 Q629.9688,1284.125 630.5156,1284.4844 Z " fill="#000000"/><text fill="#000000" font-family="sans-serif" font-size="14" lengthAdjust="spacing" textLength="120" x="648.25" y="1294.3379">lcl_has_cumulation</text><line style="stroke:#181818;stroke-width:0.5;" x1="489.5" x2="894.5" y1="1304.6094" y2="1304.6094"/><rect fill="none" height="6" style="stroke:#C82930;stroke-width:1.0;" width="6" x="496.5" y="1315.9141"/><text fill="#000000" font-family="sans-serif" font-size="14" lengthAdjust="spacing" textLength="300" x="508.5" y="1323.1426">mo_payroll_context : if_hrpaypt_payroll_context</text><line style="stroke:#181818;stroke-width:0.5;" x1="489.5" x2="894.5" y1="1330.2188" y2="1330.2188"/><ellipse cx="499.5" cy="1344.5234" fill="#84BE84" rx="3" ry="3" style="stroke:#038048;stroke-width:1.0;"/><text fill="#000000" font-family="sans-serif" font-size="14" lengthAdjust="spacing" textLength="381" x="508.5" y="1348.752">constructor( io_payroll_context : if_hrpaypt_payroll_context )</text></g><!--MD5=[28f034854d9976fd1e3b65be5cd7c51f]
class lif_base_getter--><g id="elem_lif_base_getter"><rect codeLine="66" fill="#F1F1F1" height="65.6094" id="lif_base_getter" rx="2.5" ry="2.5" style="stroke:#181818;stroke-width:0.5;" width="126" x="1463" y="1146.6094"/><ellipse cx="1478" cy="1162.6094" fill="#B4A7E5" rx="11" ry="11" style="stroke:#181818;stroke-width:1.0;"/><path d="M1478.9531,1159.25 L1478.9531,1165.9063 L1480.6719,1165.9063 Q1481.2813,1165.9063 1481.5469,1166.1406 Q1481.8125,1166.375 1481.8125,1166.7656 Q1481.8125,1167.1406 1481.5469,1167.375 Q1481.2813,1167.6094 1480.6719,1167.6094 L1475.5313,1167.6094 Q1474.9219,1167.6094 1474.6563,1167.375 Q1474.3906,1167.1406 1474.3906,1166.75 Q1474.3906,1166.375 1474.6563,1166.1406 Q1474.9219,1165.9063 1475.5313,1165.9063 L1477.25,1165.9063 L1477.25,1159.25 L1475.5313,1159.25 Q1474.9219,1159.25 1474.6563,1159.0156 Q1474.3906,1158.7813 1474.3906,1158.3906 Q1474.3906,1158.0156 1474.6563,1157.7813 Q1474.9219,1157.5469 1475.5313,1157.5469 L1480.6719,1157.5469 Q1481.2813,1157.5469 1481.5469,1157.7813 Q1481.8125,1158.0156 1481.8125,1158.3906 Q1481.8125,1158.7813 1481.5469,1159.0156 Q1481.2813,1159.25 1480.6719,1159.25 L1478.9531,1159.25 Z " fill="#000000"/><text fill="#000000" font-family="sans-serif" font-size="14" font-style="italic" lengthAdjust="spacing" textLength="94" x="1492" y="1168.3379">lif_base_getter</text><line style="stroke:#181818;stroke-width:0.5;" x1="1464" x2="1588" y1="1178.6094" y2="1178.6094"/><line style="stroke:#181818;stroke-width:0.5;" x1="1464" x2="1588" y1="1186.6094" y2="1186.6094"/><text fill="#000000" font-family="sans-serif" font-size="14" lengthAdjust="spacing" textLength="79" x="1469" y="1205.1426">get() : maxbt</text></g><!--MD5=[b35c644066f3b533751ead473db51a9d]
class lcl_cumulation_base_getter--><g id="elem_lcl_cumulation_base_getter"><rect codeLine="69" fill="#F1F1F1" height="83.2188" id="lcl_cumulation_base_getter" rx="2.5" ry="2.5" style="stroke:#181818;stroke-width:0.5;" width="407" x="1554.5" y="1272.6094"/><ellipse cx="1667.25" cy="1288.6094" fill="#ADD1B2" rx="11" ry="11" style="stroke:#181818;stroke-width:1.0;"/><path d="M1670.0156,1284.4844 Q1670.1719,1284.2656 1670.3594,1284.1563 Q1670.5469,1284.0469 1670.7656,1284.0469 Q1671.1406,1284.0469 1671.375,1284.3125 Q1671.6094,1284.5625 1671.6094,1285.1719 L1671.6094,1286.625 Q1671.6094,1287.2344 1671.375,1287.5 Q1671.1406,1287.7656 1670.7656,1287.7656 Q1670.4219,1287.7656 1670.2188,1287.5625 Q1670.0156,1287.375 1669.9063,1286.8594 Q1669.8594,1286.5 1669.6719,1286.3125 Q1669.3438,1285.9375 1668.7344,1285.7188 Q1668.125,1285.5 1667.5,1285.5 Q1666.7344,1285.5 1666.0938,1285.8281 Q1665.4688,1286.1563 1664.9688,1286.9063 Q1664.4844,1287.6563 1664.4844,1288.6875 L1664.4844,1289.7813 Q1664.4844,1291.0156 1665.375,1291.8438 Q1666.2656,1292.6563 1667.8594,1292.6563 Q1668.7969,1292.6563 1669.4531,1292.4063 Q1669.8438,1292.25 1670.2656,1291.8125 Q1670.5313,1291.5469 1670.6719,1291.4688 Q1670.8281,1291.3906 1671.0313,1291.3906 Q1671.3594,1291.3906 1671.6094,1291.6563 Q1671.875,1291.9063 1671.875,1292.25 Q1671.875,1292.5938 1671.5313,1293 Q1671.0313,1293.5781 1670.2344,1293.9063 Q1669.1563,1294.3594 1667.8594,1294.3594 Q1666.3438,1294.3594 1665.1406,1293.7344 Q1664.1563,1293.2344 1663.4688,1292.1719 Q1662.7813,1291.0938 1662.7813,1289.8125 L1662.7813,1288.6563 Q1662.7813,1287.3281 1663.3906,1286.1875 Q1664.0156,1285.0313 1665.1094,1284.4219 Q1666.2031,1283.7969 1667.4375,1283.7969 Q1668.1719,1283.7969 1668.8125,1283.9688 Q1669.4688,1284.125 1670.0156,1284.4844 Z " fill="#000000"/><text fill="#000000" font-family="sans-serif" font-size="14" lengthAdjust="spacing" textLength="173" x="1687.75" y="1294.3379">lcl_cumulation_base_getter</text><line style="stroke:#181818;stroke-width:0.5;" x1="1555.5" x2="1960.5" y1="1304.6094" y2="1304.6094"/><rect fill="none" height="6" style="stroke:#C82930;stroke-width:1.0;" width="6" x="1562.5" y="1315.9141"/><text fill="#000000" font-family="sans-serif" font-size="14" lengthAdjust="spacing" textLength="300" x="1574.5" y="1323.1426">mo_payroll_context : if_hrpaypt_payroll_context</text><line style="stroke:#181818;stroke-width:0.5;" x1="1555.5" x2="1960.5" y1="1330.2188" y2="1330.2188"/><ellipse cx="1565.5" cy="1344.5234" fill="#84BE84" rx="3" ry="3" style="stroke:#038048;stroke-width:1.0;"/><text fill="#000000" font-family="sans-serif" font-size="14" lengthAdjust="spacing" textLength="381" x="1574.5" y="1348.752">constructor( io_payroll_context : if_hrpaypt_payroll_context )</text></g><!--MD5=[947f6722d56e6086e042f5dda74db36d]
class lcl_low_limit_get_a--><g id="elem_lcl_low_limit_get_a"><rect codeLine="74" fill="#F1F1F1" height="65.6094" id="lcl_low_limit_get_a" rx="2.5" ry="2.5" style="stroke:#181818;stroke-width:0.5;" width="476" x="952" y="1146.6094"/><ellipse cx="1127.25" cy="1162.6094" fill="#ADD1B2" rx="11" ry="11" style="stroke:#181818;stroke-width:1.0;"/><path d="M1130.0156,1158.4844 Q1130.1719,1158.2656 1130.3594,1158.1563 Q1130.5469,1158.0469 1130.7656,1158.0469 Q1131.1406,1158.0469 1131.375,1158.3125 Q1131.6094,1158.5625 1131.6094,1159.1719 L1131.6094,1160.625 Q1131.6094,1161.2344 1131.375,1161.5 Q1131.1406,1161.7656 1130.7656,1161.7656 Q1130.4219,1161.7656 1130.2188,1161.5625 Q1130.0156,1161.375 1129.9063,1160.8594 Q1129.8594,1160.5 1129.6719,1160.3125 Q1129.3438,1159.9375 1128.7344,1159.7188 Q1128.125,1159.5 1127.5,1159.5 Q1126.7344,1159.5 1126.0938,1159.8281 Q1125.4688,1160.1563 1124.9688,1160.9063 Q1124.4844,1161.6563 1124.4844,1162.6875 L1124.4844,1163.7813 Q1124.4844,1165.0156 1125.375,1165.8438 Q1126.2656,1166.6563 1127.8594,1166.6563 Q1128.7969,1166.6563 1129.4531,1166.4063 Q1129.8438,1166.25 1130.2656,1165.8125 Q1130.5313,1165.5469 1130.6719,1165.4688 Q1130.8281,1165.3906 1131.0313,1165.3906 Q1131.3594,1165.3906 1131.6094,1165.6563 Q1131.875,1165.9063 1131.875,1166.25 Q1131.875,1166.5938 1131.5313,1167 Q1131.0313,1167.5781 1130.2344,1167.9063 Q1129.1563,1168.3594 1127.8594,1168.3594 Q1126.3438,1168.3594 1125.1406,1167.7344 Q1124.1563,1167.2344 1123.4688,1166.1719 Q1122.7813,1165.0938 1122.7813,1163.8125 L1122.7813,1162.6563 Q1122.7813,1161.3281 1123.3906,1160.1875 Q1124.0156,1159.0313 1125.1094,1158.4219 Q1126.2031,1157.7969 1127.4375,1157.7969 Q1128.1719,1157.7969 1128.8125,1157.9688 Q1129.4688,1158.125 1130.0156,1158.4844 Z " fill="#000000"/><text fill="#000000" font-family="sans-serif" font-size="14" lengthAdjust="spacing" textLength="117" x="1147.75" y="1168.3379">lcl_low_limit_get_a</text><line style="stroke:#181818;stroke-width:0.5;" x1="953" x2="1427" y1="1178.6094" y2="1178.6094"/><line style="stroke:#181818;stroke-width:0.5;" x1="953" x2="1427" y1="1186.6094" y2="1186.6094"/><ellipse cx="963" cy="1200.9141" fill="#84BE84" rx="3" ry="3" style="stroke:#038048;stroke-width:1.0;"/><text fill="#000000" font-family="sans-serif" font-size="14" lengthAdjust="spacing" text-decoration="underline" textLength="450" x="972" y="1205.1426">make( io_payroll_context : if_hrpaypt_payroll_context ) : lif_base_getter</text></g><!--MD5=[dfd3d8848af48442d70c1a5ba373c5f1]
class lcl_limit_getter--><g id="elem_lcl_limit_getter"><rect codeLine="77" fill="#F1F1F1" height="83.2188" id="lcl_limit_getter" rx="2.5" ry="2.5" style="stroke:#181818;stroke-width:0.5;" width="368" x="1127" y="1272.6094"/><ellipse cx="1261.75" cy="1288.6094" fill="#ADD1B2" rx="11" ry="11" style="stroke:#181818;stroke-width:1.0;"/><path d="M1264.5156,1284.4844 Q1264.6719,1284.2656 1264.8594,1284.1563 Q1265.0469,1284.0469 1265.2656,1284.0469 Q1265.6406,1284.0469 1265.875,1284.3125 Q1266.1094,1284.5625 1266.1094,1285.1719 L1266.1094,1286.625 Q1266.1094,1287.2344 1265.875,1287.5 Q1265.6406,1287.7656 1265.2656,1287.7656 Q1264.9219,1287.7656 1264.7188,1287.5625 Q1264.5156,1287.375 1264.4063,1286.8594 Q1264.3594,1286.5 1264.1719,1286.3125 Q1263.8438,1285.9375 1263.2344,1285.7188 Q1262.625,1285.5 1262,1285.5 Q1261.2344,1285.5 1260.5938,1285.8281 Q1259.9688,1286.1563 1259.4688,1286.9063 Q1258.9844,1287.6563 1258.9844,1288.6875 L1258.9844,1289.7813 Q1258.9844,1291.0156 1259.875,1291.8438 Q1260.7656,1292.6563 1262.3594,1292.6563 Q1263.2969,1292.6563 1263.9531,1292.4063 Q1264.3438,1292.25 1264.7656,1291.8125 Q1265.0313,1291.5469 1265.1719,1291.4688 Q1265.3281,1291.3906 1265.5313,1291.3906 Q1265.8594,1291.3906 1266.1094,1291.6563 Q1266.375,1291.9063 1266.375,1292.25 Q1266.375,1292.5938 1266.0313,1293 Q1265.5313,1293.5781 1264.7344,1293.9063 Q1263.6563,1294.3594 1262.3594,1294.3594 Q1260.8438,1294.3594 1259.6406,1293.7344 Q1258.6563,1293.2344 1257.9688,1292.1719 Q1257.2813,1291.0938 1257.2813,1289.8125 L1257.2813,1288.6563 Q1257.2813,1287.3281 1257.8906,1286.1875 Q1258.5156,1285.0313 1259.6094,1284.4219 Q1260.7031,1283.7969 1261.9375,1283.7969 Q1262.6719,1283.7969 1263.3125,1283.9688 Q1263.9688,1284.125 1264.5156,1284.4844 Z " fill="#000000"/><text fill="#000000" font-family="sans-serif" font-size="14" lengthAdjust="spacing" textLength="90" x="1282.25" y="1294.3379">lcl_limit_getter</text><line style="stroke:#181818;stroke-width:0.5;" x1="1128" x2="1494" y1="1304.6094" y2="1304.6094"/><rect fill="none" height="6" style="stroke:#C82930;stroke-width:1.0;" width="6" x="1135" y="1315.9141"/><text fill="#000000" font-family="sans-serif" font-size="14" lengthAdjust="spacing" textLength="261" x="1147" y="1323.1426">mo_table_processor : lif_table_processor</text><line style="stroke:#181818;stroke-width:0.5;" x1="1128" x2="1494" y1="1330.2188" y2="1330.2188"/><ellipse cx="1138" cy="1344.5234" fill="#84BE84" rx="3" ry="3" style="stroke:#038048;stroke-width:1.0;"/><text fill="#000000" font-family="sans-serif" font-size="14" lengthAdjust="spacing" textLength="342" x="1147" y="1348.752">constructor( io_table_processor : lif_table_processor )</text></g><!--MD5=[9242f07fb2d4a23ee50838214d894db6]
class lif_table_processor--><g id="elem_lif_table_processor"><rect codeLine="85" fill="#F1F1F1" height="65.6094" id="lif_table_processor" rx="2.5" ry="2.5" style="stroke:#181818;stroke-width:0.5;" width="152" x="1235" y="1415.6094"/><ellipse cx="1250" cy="1431.6094" fill="#B4A7E5" rx="11" ry="11" style="stroke:#181818;stroke-width:1.0;"/><path d="M1250.9531,1428.25 L1250.9531,1434.9063 L1252.6719,1434.9063 Q1253.2813,1434.9063 1253.5469,1435.1406 Q1253.8125,1435.375 1253.8125,1435.7656 Q1253.8125,1436.1406 1253.5469,1436.375 Q1253.2813,1436.6094 1252.6719,1436.6094 L1247.5313,1436.6094 Q1246.9219,1436.6094 1246.6563,1436.375 Q1246.3906,1436.1406 1246.3906,1435.75 Q1246.3906,1435.375 1246.6563,1435.1406 Q1246.9219,1434.9063 1247.5313,1434.9063 L1249.25,1434.9063 L1249.25,1428.25 L1247.5313,1428.25 Q1246.9219,1428.25 1246.6563,1428.0156 Q1246.3906,1427.7813 1246.3906,1427.3906 Q1246.3906,1427.0156 1246.6563,1426.7813 Q1246.9219,1426.5469 1247.5313,1426.5469 L1252.6719,1426.5469 Q1253.2813,1426.5469 1253.5469,1426.7813 Q1253.8125,1427.0156 1253.8125,1427.3906 Q1253.8125,1427.7813 1253.5469,1428.0156 Q1253.2813,1428.25 1252.6719,1428.25 L1250.9531,1428.25 Z " fill="#000000"/><text fill="#000000" font-family="sans-serif" font-size="14" font-style="italic" lengthAdjust="spacing" textLength="120" x="1264" y="1437.3379">lif_table_processor</text><line style="stroke:#181818;stroke-width:0.5;" x1="1236" x2="1386" y1="1447.6094" y2="1447.6094"/><line style="stroke:#181818;stroke-width:0.5;" x1="1236" x2="1386" y1="1455.6094" y2="1455.6094"/><ellipse cx="1246" cy="1469.9141" fill="#84BE84" rx="3" ry="3" style="stroke:#038048;stroke-width:1.0;"/><text fill="#000000" font-family="sans-serif" font-size="14" lengthAdjust="spacing" textLength="113" x="1255" y="1474.1426">process( ) : maxbt</text></g><!--MD5=[ecfc525061d20afe5085415d9b5e5ed8]
class lcl_table_processor--><g id="elem_lcl_table_processor"><rect codeLine="89" fill="#F1F1F1" height="83.2188" id="lcl_table_processor" rx="2.5" ry="2.5" style="stroke:#181818;stroke-width:0.5;" width="407" x="1107.5" y="1541.6094"/><ellipse cx="1245.25" cy="1557.6094" fill="#ADD1B2" rx="11" ry="11" style="stroke:#181818;stroke-width:1.0;"/><path d="M1248.0156,1553.4844 Q1248.1719,1553.2656 1248.3594,1553.1563 Q1248.5469,1553.0469 1248.7656,1553.0469 Q1249.1406,1553.0469 1249.375,1553.3125 Q1249.6094,1553.5625 1249.6094,1554.1719 L1249.6094,1555.625 Q1249.6094,1556.2344 1249.375,1556.5 Q1249.1406,1556.7656 1248.7656,1556.7656 Q1248.4219,1556.7656 1248.2188,1556.5625 Q1248.0156,1556.375 1247.9063,1555.8594 Q1247.8594,1555.5 1247.6719,1555.3125 Q1247.3438,1554.9375 1246.7344,1554.7188 Q1246.125,1554.5 1245.5,1554.5 Q1244.7344,1554.5 1244.0938,1554.8281 Q1243.4688,1555.1563 1242.9688,1555.9063 Q1242.4844,1556.6563 1242.4844,1557.6875 L1242.4844,1558.7813 Q1242.4844,1560.0156 1243.375,1560.8438 Q1244.2656,1561.6563 1245.8594,1561.6563 Q1246.7969,1561.6563 1247.4531,1561.4063 Q1247.8438,1561.25 1248.2656,1560.8125 Q1248.5313,1560.5469 1248.6719,1560.4688 Q1248.8281,1560.3906 1249.0313,1560.3906 Q1249.3594,1560.3906 1249.6094,1560.6563 Q1249.875,1560.9063 1249.875,1561.25 Q1249.875,1561.5938 1249.5313,1562 Q1249.0313,1562.5781 1248.2344,1562.9063 Q1247.1563,1563.3594 1245.8594,1563.3594 Q1244.3438,1563.3594 1243.1406,1562.7344 Q1242.1563,1562.2344 1241.4688,1561.1719 Q1240.7813,1560.0938 1240.7813,1558.8125 L1240.7813,1557.6563 Q1240.7813,1556.3281 1241.3906,1555.1875 Q1242.0156,1554.0313 1243.1094,1553.4219 Q1244.2031,1552.7969 1245.4375,1552.7969 Q1246.1719,1552.7969 1246.8125,1552.9688 Q1247.4688,1553.125 1248.0156,1553.4844 Z " fill="#000000"/><text fill="#000000" font-family="sans-serif" font-size="14" lengthAdjust="spacing" textLength="123" x="1265.75" y="1563.3379">lcl_table_processor</text><line style="stroke:#181818;stroke-width:0.5;" x1="1108.5" x2="1513.5" y1="1573.6094" y2="1573.6094"/><rect fill="none" height="6" style="stroke:#C82930;stroke-width:1.0;" width="6" x="1115.5" y="1584.9141"/><text fill="#000000" font-family="sans-serif" font-size="14" lengthAdjust="spacing" textLength="300" x="1127.5" y="1592.1426">mo_payroll_context : if_hrpaypt_payroll_context</text><line style="stroke:#181818;stroke-width:0.5;" x1="1108.5" x2="1513.5" y1="1599.2188" y2="1599.2188"/><ellipse cx="1118.5" cy="1613.5234" fill="#84BE84" rx="3" ry="3" style="stroke:#038048;stroke-width:1.0;"/><text fill="#000000" font-family="sans-serif" font-size="14" lengthAdjust="spacing" textLength="381" x="1127.5" y="1617.752">constructor( io_payroll_context : if_hrpaypt_payroll_context )</text></g><!--MD5=[2d72d8bc5b335f0e0e2be77e12418732]
class lif_base_calculation_rule--><g id="elem_lif_base_calculation_rule"><rect codeLine="94" fill="#F1F1F1" height="65.6094" id="lif_base_calculation_rule" rx="2.5" ry="2.5" style="stroke:#181818;stroke-width:0.5;" width="471" x="1075.5" y="1684.6094"/><ellipse cx="1228.75" cy="1700.6094" fill="#B4A7E5" rx="11" ry="11" style="stroke:#181818;stroke-width:1.0;"/><path d="M1229.7031,1697.25 L1229.7031,1703.9063 L1231.4219,1703.9063 Q1232.0313,1703.9063 1232.2969,1704.1406 Q1232.5625,1704.375 1232.5625,1704.7656 Q1232.5625,1705.1406 1232.2969,1705.375 Q1232.0313,1705.6094 1231.4219,1705.6094 L1226.2813,1705.6094 Q1225.6719,1705.6094 1225.4063,1705.375 Q1225.1406,1705.1406 1225.1406,1704.75 Q1225.1406,1704.375 1225.4063,1704.1406 Q1225.6719,1703.9063 1226.2813,1703.9063 L1228,1703.9063 L1228,1697.25 L1226.2813,1697.25 Q1225.6719,1697.25 1225.4063,1697.0156 Q1225.1406,1696.7813 1225.1406,1696.3906 Q1225.1406,1696.0156 1225.4063,1695.7813 Q1225.6719,1695.5469 1226.2813,1695.5469 L1231.4219,1695.5469 Q1232.0313,1695.5469 1232.2969,1695.7813 Q1232.5625,1696.0156 1232.5625,1696.3906 Q1232.5625,1696.7813 1232.2969,1697.0156 Q1232.0313,1697.25 1231.4219,1697.25 L1229.7031,1697.25 Z " fill="#000000"/><text fill="#000000" font-family="sans-serif" font-size="14" font-style="italic" lengthAdjust="spacing" textLength="156" x="1249.25" y="1706.3379">lif_base_calculation_rule</text><line style="stroke:#181818;stroke-width:0.5;" x1="1076.5" x2="1545.5" y1="1716.6094" y2="1716.6094"/><line style="stroke:#181818;stroke-width:0.5;" x1="1076.5" x2="1545.5" y1="1724.6094" y2="1724.6094"/><ellipse cx="1086.5" cy="1738.9141" fill="#84BE84" rx="3" ry="3" style="stroke:#038048;stroke-width:1.0;"/><text fill="#000000" font-family="sans-serif" font-size="14" lengthAdjust="spacing" textLength="445" x="1095.5" y="1743.1426">calculate( io_base_e : lif_base_e, is_current_overtime : PC2BF ) : void</text></g><!--MD5=[d9fc040ab55b946196bf0f4c24aea37e]
class lcl_base_full_hours--><g id="elem_lcl_base_full_hours"><rect codeLine="98" fill="#F1F1F1" height="100.8281" id="lcl_base_full_hours" rx="2.5" ry="2.5" style="stroke:#181818;stroke-width:0.5;" width="694" x="952" y="1819.1094"/><ellipse cx="1233.75" cy="1835.1094" fill="#ADD1B2" rx="11" ry="11" style="stroke:#181818;stroke-width:1.0;"/><path d="M1236.5156,1830.9844 Q1236.6719,1830.7656 1236.8594,1830.6563 Q1237.0469,1830.5469 1237.2656,1830.5469 Q1237.6406,1830.5469 1237.875,1830.8125 Q1238.1094,1831.0625 1238.1094,1831.6719 L1238.1094,1833.125 Q1238.1094,1833.7344 1237.875,1834 Q1237.6406,1834.2656 1237.2656,1834.2656 Q1236.9219,1834.2656 1236.7188,1834.0625 Q1236.5156,1833.875 1236.4063,1833.3594 Q1236.3594,1833 1236.1719,1832.8125 Q1235.8438,1832.4375 1235.2344,1832.2188 Q1234.625,1832 1234,1832 Q1233.2344,1832 1232.5938,1832.3281 Q1231.9688,1832.6563 1231.4688,1833.4063 Q1230.9844,1834.1563 1230.9844,1835.1875 L1230.9844,1836.2813 Q1230.9844,1837.5156 1231.875,1838.3438 Q1232.7656,1839.1563 1234.3594,1839.1563 Q1235.2969,1839.1563 1235.9531,1838.9063 Q1236.3438,1838.75 1236.7656,1838.3125 Q1237.0313,1838.0469 1237.1719,1837.9688 Q1237.3281,1837.8906 1237.5313,1837.8906 Q1237.8594,1837.8906 1238.1094,1838.1563 Q1238.375,1838.4063 1238.375,1838.75 Q1238.375,1839.0938 1238.0313,1839.5 Q1237.5313,1840.0781 1236.7344,1840.4063 Q1235.6563,1840.8594 1234.3594,1840.8594 Q1232.8438,1840.8594 1231.6406,1840.2344 Q1230.6563,1839.7344 1229.9688,1838.6719 Q1229.2813,1837.5938 1229.2813,1836.3125 L1229.2813,1835.1563 Q1229.2813,1833.8281 1229.8906,1832.6875 Q1230.5156,1831.5313 1231.6094,1830.9219 Q1232.7031,1830.2969 1233.9375,1830.2969 Q1234.6719,1830.2969 1235.3125,1830.4688 Q1235.9688,1830.625 1236.5156,1830.9844 Z " fill="#000000"/><text fill="#000000" font-family="sans-serif" font-size="14" lengthAdjust="spacing" textLength="122" x="1254.25" y="1840.8379">lcl_base_full_hours</text><line style="stroke:#181818;stroke-width:0.5;" x1="953" x2="1645" y1="1851.1094" y2="1851.1094"/><rect fill="none" height="6" style="stroke:#C82930;stroke-width:1.0;" width="6" x="960" y="1862.4141"/><text fill="#000000" font-family="sans-serif" font-size="14" lengthAdjust="spacing" textLength="300" x="972" y="1869.6426">mo_payroll_context : if_hrpaypt_payroll_context</text><rect fill="none" height="6" style="stroke:#C82930;stroke-width:1.0;" width="6" x="960" y="1880.0234"/><text fill="#000000" font-family="sans-serif" font-size="14" lengthAdjust="spacing" textLength="287" x="972" y="1887.252">mo_basic_hour_getter : lif_basic_hour_getter</text><line style="stroke:#181818;stroke-width:0.5;" x1="953" x2="1645" y1="1894.3281" y2="1894.3281"/><ellipse cx="963" cy="1908.6328" fill="#84BE84" rx="3" ry="3" style="stroke:#038048;stroke-width:1.0;"/><text fill="#000000" font-family="sans-serif" font-size="14" lengthAdjust="spacing" textLength="668" x="972" y="1912.8613">constructor( io_payroll_context : if_hrpaypt_payroll_context, io_basic_hour_getter : lif_basic_hour_getter )</text></g><!--MD5=[04202e770d520df644113871d915c29b]
class lif_basic_hour_getter--><g id="elem_lif_basic_hour_getter"><rect codeLine="104" fill="#F1F1F1" height="65.6094" id="lif_basic_hour_getter" rx="2.5" ry="2.5" style="stroke:#181818;stroke-width:0.5;" width="165" x="1316.5" y="1997.1094"/><ellipse cx="1331.5" cy="2013.1094" fill="#B4A7E5" rx="11" ry="11" style="stroke:#181818;stroke-width:1.0;"/><path d="M1332.4531,2009.75 L1332.4531,2016.4063 L1334.1719,2016.4063 Q1334.7813,2016.4063 1335.0469,2016.6406 Q1335.3125,2016.875 1335.3125,2017.2656 Q1335.3125,2017.6406 1335.0469,2017.875 Q1334.7813,2018.1094 1334.1719,2018.1094 L1329.0313,2018.1094 Q1328.4219,2018.1094 1328.1563,2017.875 Q1327.8906,2017.6406 1327.8906,2017.25 Q1327.8906,2016.875 1328.1563,2016.6406 Q1328.4219,2016.4063 1329.0313,2016.4063 L1330.75,2016.4063 L1330.75,2009.75 L1329.0313,2009.75 Q1328.4219,2009.75 1328.1563,2009.5156 Q1327.8906,2009.2813 1327.8906,2008.8906 Q1327.8906,2008.5156 1328.1563,2008.2813 Q1328.4219,2008.0469 1329.0313,2008.0469 L1334.1719,2008.0469 Q1334.7813,2008.0469 1335.0469,2008.2813 Q1335.3125,2008.5156 1335.3125,2008.8906 Q1335.3125,2009.2813 1335.0469,2009.5156 Q1334.7813,2009.75 1334.1719,2009.75 L1332.4531,2009.75 Z " fill="#000000"/><text fill="#000000" font-family="sans-serif" font-size="14" font-style="italic" lengthAdjust="spacing" textLength="133" x="1345.5" y="2018.8379">lif_basic_hour_getter</text><line style="stroke:#181818;stroke-width:0.5;" x1="1317.5" x2="1480.5" y1="2029.1094" y2="2029.1094"/><line style="stroke:#181818;stroke-width:0.5;" x1="1317.5" x2="1480.5" y1="2037.1094" y2="2037.1094"/><ellipse cx="1327.5" cy="2051.4141" fill="#84BE84" rx="3" ry="3" style="stroke:#038048;stroke-width:1.0;"/><text fill="#000000" font-family="sans-serif" font-size="14" lengthAdjust="spacing" textLength="85" x="1336.5" y="2055.6426">get( ) : pc207</text></g><!--MD5=[ed7796f05ac1e1bfdf2e3f60065de23a]
class lcl_basic_hour_getter--><g id="elem_lcl_basic_hour_getter"><rect codeLine="108" fill="#F1F1F1" height="83.2188" id="lcl_basic_hour_getter" rx="2.5" ry="2.5" style="stroke:#181818;stroke-width:0.5;" width="407" x="1324.5" y="2131.6094"/><ellipse cx="1455.75" cy="2147.6094" fill="#ADD1B2" rx="11" ry="11" style="stroke:#181818;stroke-width:1.0;"/><path d="M1458.5156,2143.4844 Q1458.6719,2143.2656 1458.8594,2143.1563 Q1459.0469,2143.0469 1459.2656,2143.0469 Q1459.6406,2143.0469 1459.875,2143.3125 Q1460.1094,2143.5625 1460.1094,2144.1719 L1460.1094,2145.625 Q1460.1094,2146.2344 1459.875,2146.5 Q1459.6406,2146.7656 1459.2656,2146.7656 Q1458.9219,2146.7656 1458.7188,2146.5625 Q1458.5156,2146.375 1458.4063,2145.8594 Q1458.3594,2145.5 1458.1719,2145.3125 Q1457.8438,2144.9375 1457.2344,2144.7188 Q1456.625,2144.5 1456,2144.5 Q1455.2344,2144.5 1454.5938,2144.8281 Q1453.9688,2145.1563 1453.4688,2145.9063 Q1452.9844,2146.6563 1452.9844,2147.6875 L1452.9844,2148.7813 Q1452.9844,2150.0156 1453.875,2150.8438 Q1454.7656,2151.6563 1456.3594,2151.6563 Q1457.2969,2151.6563 1457.9531,2151.4063 Q1458.3438,2151.25 1458.7656,2150.8125 Q1459.0313,2150.5469 1459.1719,2150.4688 Q1459.3281,2150.3906 1459.5313,2150.3906 Q1459.8594,2150.3906 1460.1094,2150.6563 Q1460.375,2150.9063 1460.375,2151.25 Q1460.375,2151.5938 1460.0313,2152 Q1459.5313,2152.5781 1458.7344,2152.9063 Q1457.6563,2153.3594 1456.3594,2153.3594 Q1454.8438,2153.3594 1453.6406,2152.7344 Q1452.6563,2152.2344 1451.9688,2151.1719 Q1451.2813,2150.0938 1451.2813,2148.8125 L1451.2813,2147.6563 Q1451.2813,2146.3281 1451.8906,2145.1875 Q1452.5156,2144.0313 1453.6094,2143.4219 Q1454.7031,2142.7969 1455.9375,2142.7969 Q1456.6719,2142.7969 1457.3125,2142.9688 Q1457.9688,2143.125 1458.5156,2143.4844 Z " fill="#000000"/><text fill="#000000" font-family="sans-serif" font-size="14" lengthAdjust="spacing" textLength="136" x="1476.25" y="2153.3379">lcl_basic_hour_getter</text><line style="stroke:#181818;stroke-width:0.5;" x1="1325.5" x2="1730.5" y1="2163.6094" y2="2163.6094"/><rect fill="none" height="6" style="stroke:#C82930;stroke-width:1.0;" width="6" x="1332.5" y="2174.9141"/><text fill="#000000" font-family="sans-serif" font-size="14" lengthAdjust="spacing" textLength="300" x="1344.5" y="2182.1426">mo_payroll_context : if_hrpaypt_payroll_context</text><line style="stroke:#181818;stroke-width:0.5;" x1="1325.5" x2="1730.5" y1="2189.2188" y2="2189.2188"/><ellipse cx="1335.5" cy="2203.5234" fill="#84BE84" rx="3" ry="3" style="stroke:#038048;stroke-width:1.0;"/><text fill="#000000" font-family="sans-serif" font-size="14" lengthAdjust="spacing" textLength="381" x="1344.5" y="2207.752">constructor( io_payroll_context : if_hrpaypt_payroll_context )</text></g><!--MD5=[fe8d5807414c5ea0730c8f0c20b0f3f1]
class lif_base_e--><g id="elem_lif_base_e"><rect codeLine="113" fill="#F1F1F1" height="118.4375" id="lif_base_e" rx="2.5" ry="2.5" style="stroke:#181818;stroke-width:0.5;" width="294" x="1681" y="1810.6094"/><ellipse cx="1791.25" cy="1826.6094" fill="#B4A7E5" rx="11" ry="11" style="stroke:#181818;stroke-width:1.0;"/><path d="M1792.2031,1823.25 L1792.2031,1829.9063 L1793.9219,1829.9063 Q1794.5313,1829.9063 1794.7969,1830.1406 Q1795.0625,1830.375 1795.0625,1830.7656 Q1795.0625,1831.1406 1794.7969,1831.375 Q1794.5313,1831.6094 1793.9219,1831.6094 L1788.7813,1831.6094 Q1788.1719,1831.6094 1787.9063,1831.375 Q1787.6406,1831.1406 1787.6406,1830.75 Q1787.6406,1830.375 1787.9063,1830.1406 Q1788.1719,1829.9063 1788.7813,1829.9063 L1790.5,1829.9063 L1790.5,1823.25 L1788.7813,1823.25 Q1788.1719,1823.25 1787.9063,1823.0156 Q1787.6406,1822.7813 1787.6406,1822.3906 Q1787.6406,1822.0156 1787.9063,1821.7813 Q1788.1719,1821.5469 1788.7813,1821.5469 L1793.9219,1821.5469 Q1794.5313,1821.5469 1794.7969,1821.7813 Q1795.0625,1822.0156 1795.0625,1822.3906 Q1795.0625,1822.7813 1794.7969,1823.0156 Q1794.5313,1823.25 1793.9219,1823.25 L1792.2031,1823.25 Z " fill="#000000"/><text fill="#000000" font-family="sans-serif" font-size="14" font-style="italic" lengthAdjust="spacing" textLength="65" x="1811.75" y="1832.3379">lif_base_e</text><line style="stroke:#181818;stroke-width:0.5;" x1="1682" x2="1974" y1="1842.6094" y2="1842.6094"/><line style="stroke:#181818;stroke-width:0.5;" x1="1682" x2="1974" y1="1850.6094" y2="1850.6094"/><text fill="#000000" font-family="sans-serif" font-size="14" lengthAdjust="spacing" textLength="161" x="1687" y="1869.1426">get_cumulator( ) : p_suml</text><text fill="#000000" font-family="sans-serif" font-size="14" lengthAdjust="spacing" textLength="122" x="1687" y="1886.752">get_base( ) : maxbt</text><text fill="#000000" font-family="sans-serif" font-size="14" lengthAdjust="spacing" textLength="282" x="1687" y="1904.3613">set_cumulator( iv_cumulator : p_suml ) : void</text><text fill="#000000" font-family="sans-serif" font-size="14" lengthAdjust="spacing" textLength="212" x="1687" y="1921.9707">set_base( iv_base : maxbt ) : void</text></g><!--MD5=[9ad98daf1cb7e6a6fb7240d29e300717]
class lcl_base_e--><g id="elem_lcl_base_e"><rect codeLine="120" fill="#F1F1F1" height="83.2188" id="lcl_base_e" rx="2.5" ry="2.5" style="stroke:#181818;stroke-width:0.5;" width="159" x="1748.5" y="1988.6094"/><ellipse cx="1790.05" cy="2004.6094" fill="#ADD1B2" rx="11" ry="11" style="stroke:#181818;stroke-width:1.0;"/><path d="M1792.8156,2000.4844 Q1792.9719,2000.2656 1793.1594,2000.1563 Q1793.3469,2000.0469 1793.5656,2000.0469 Q1793.9406,2000.0469 1794.175,2000.3125 Q1794.4094,2000.5625 1794.4094,2001.1719 L1794.4094,2002.625 Q1794.4094,2003.2344 1794.175,2003.5 Q1793.9406,2003.7656 1793.5656,2003.7656 Q1793.2219,2003.7656 1793.0188,2003.5625 Q1792.8156,2003.375 1792.7063,2002.8594 Q1792.6594,2002.5 1792.4719,2002.3125 Q1792.1438,2001.9375 1791.5344,2001.7188 Q1790.925,2001.5 1790.3,2001.5 Q1789.5344,2001.5 1788.8938,2001.8281 Q1788.2688,2002.1563 1787.7688,2002.9063 Q1787.2844,2003.6563 1787.2844,2004.6875 L1787.2844,2005.7813 Q1787.2844,2007.0156 1788.175,2007.8438 Q1789.0656,2008.6563 1790.6594,2008.6563 Q1791.5969,2008.6563 1792.2531,2008.4063 Q1792.6438,2008.25 1793.0656,2007.8125 Q1793.3313,2007.5469 1793.4719,2007.4688 Q1793.6281,2007.3906 1793.8313,2007.3906 Q1794.1594,2007.3906 1794.4094,2007.6563 Q1794.675,2007.9063 1794.675,2008.25 Q1794.675,2008.5938 1794.3313,2009 Q1793.8313,2009.5781 1793.0344,2009.9063 Q1791.9563,2010.3594 1790.6594,2010.3594 Q1789.1438,2010.3594 1787.9406,2009.7344 Q1786.9563,2009.2344 1786.2688,2008.1719 Q1785.5813,2007.0938 1785.5813,2005.8125 L1785.5813,2004.6563 Q1785.5813,2003.3281 1786.1906,2002.1875 Q1786.8156,2001.0313 1787.9094,2000.4219 Q1789.0031,1999.7969 1790.2375,1999.7969 Q1790.9719,1999.7969 1791.6125,1999.9688 Q1792.2688,2000.125 1792.8156,2000.4844 Z " fill="#000000"/><text fill="#000000" font-family="sans-serif" font-size="14" lengthAdjust="spacing" textLength="68" x="1809.95" y="2010.3379">lcl_base_e</text><line style="stroke:#181818;stroke-width:0.5;" x1="1749.5" x2="1906.5" y1="2020.6094" y2="2020.6094"/><rect fill="none" height="6" style="stroke:#C82930;stroke-width:1.0;" width="6" x="1756.5" y="2031.9141"/><text fill="#000000" font-family="sans-serif" font-size="14" lengthAdjust="spacing" textLength="133" x="1768.5" y="2039.1426">mv_cumulator : anhzl</text><rect fill="none" height="6" style="stroke:#C82930;stroke-width:1.0;" width="6" x="1756.5" y="2049.5234"/><text fill="#000000" font-family="sans-serif" font-size="14" lengthAdjust="spacing" textLength="106" x="1768.5" y="2056.752">mv_base : maxbt</text><line style="stroke:#181818;stroke-width:0.5;" x1="1749.5" x2="1906.5" y1="2063.8281" y2="2063.8281"/></g><!--MD5=[48e4fba7dce278b2fc256dcea2db5de9]
class lce_base--><g id="elem_lce_base"><rect codeLine="130" fill="#F1F1F1" height="65.6094" id="lce_base" rx="2.5" ry="2.5" style="stroke:#181818;stroke-width:0.5;" width="206" x="2031" y="2323.1094"/><ellipse cx="2101.25" cy="2339.1094" fill="#EB937F" rx="11" ry="11" style="stroke:#181818;stroke-width:1.0;"/><path d="M2100.1094,2339.9063 L2100.1094,2342.4063 L2104.4375,2342.4063 L2104.4375,2341.4844 Q2104.4375,2340.875 2104.6719,2340.6094 Q2104.9219,2340.3438 2105.2969,2340.3438 Q2105.6719,2340.3438 2105.9063,2340.6094 Q2106.1406,2340.875 2106.1406,2341.4844 L2106.1406,2344.1094 L2098.1406,2344.1094 Q2097.5156,2344.1094 2097.25,2343.875 Q2097,2343.6406 2097,2343.25 Q2097,2342.875 2097.2656,2342.6406 Q2097.5313,2342.4063 2098.1406,2342.4063 L2098.4063,2342.4063 L2098.4063,2335.75 L2098.1406,2335.75 Q2097.5156,2335.75 2097.25,2335.5156 Q2097,2335.2813 2097,2334.8906 Q2097,2334.5156 2097.25,2334.2813 Q2097.5156,2334.0469 2098.1406,2334.0469 L2105.7656,2334.0469 L2105.7656,2336.6406 Q2105.7656,2337.25 2105.5313,2337.5156 Q2105.3125,2337.7656 2104.9219,2337.7656 Q2104.5469,2337.7656 2104.3125,2337.5156 Q2104.0781,2337.25 2104.0781,2336.6406 L2104.0781,2335.75 L2100.1094,2335.75 L2100.1094,2338.2031 L2101.5938,2338.2031 Q2101.5938,2337.5469 2101.7188,2337.3594 Q2101.9844,2336.9531 2102.4531,2336.9531 Q2102.8281,2336.9531 2103.0625,2337.2188 Q2103.2969,2337.4688 2103.2969,2338.0781 L2103.2969,2340.0469 Q2103.2969,2340.5938 2103.1719,2340.7813 Q2102.9063,2341.1719 2102.4531,2341.1719 Q2101.9844,2341.1719 2101.7188,2340.7656 Q2101.5938,2340.5781 2101.5938,2339.9063 L2100.1094,2339.9063 Z " fill="#000000"/><text fill="#000000" font-family="sans-serif" font-size="14" lengthAdjust="spacing" textLength="57" x="2121.75" y="2344.8379">lce_base</text><line style="stroke:#181818;stroke-width:0.5;" x1="2032" x2="2236" y1="2355.1094" y2="2355.1094"/><ellipse cx="2042" cy="2369.4141" fill="none" rx="3" ry="3" style="stroke:#038048;stroke-width:1.0;"/><text fill="#000000" font-family="sans-serif" font-size="14" lengthAdjust="spacing" textLength="180" x="2051" y="2373.6426">gc_base_cumulator : 'BAOV'</text><line style="stroke:#181818;stroke-width:0.5;" x1="2032" x2="2236" y1="2380.7188" y2="2380.7188"/></g><!--MD5=[ddbe18e63d911a04d20fda8baa4dcf08]
class lce_hour_limit--><g id="elem_lce_hour_limit"><rect codeLine="134" fill="#F1F1F1" height="83.2188" id="lce_hour_limit" rx="2.5" ry="2.5" style="stroke:#181818;stroke-width:0.5;" width="250" x="1746" y="2314.6094"/><ellipse cx="1823.25" cy="2330.6094" fill="#EB937F" rx="11" ry="11" style="stroke:#181818;stroke-width:1.0;"/><path d="M1822.1094,2331.4063 L1822.1094,2333.9063 L1826.4375,2333.9063 L1826.4375,2332.9844 Q1826.4375,2332.375 1826.6719,2332.1094 Q1826.9219,2331.8438 1827.2969,2331.8438 Q1827.6719,2331.8438 1827.9063,2332.1094 Q1828.1406,2332.375 1828.1406,2332.9844 L1828.1406,2335.6094 L1820.1406,2335.6094 Q1819.5156,2335.6094 1819.25,2335.375 Q1819,2335.1406 1819,2334.75 Q1819,2334.375 1819.2656,2334.1406 Q1819.5313,2333.9063 1820.1406,2333.9063 L1820.4063,2333.9063 L1820.4063,2327.25 L1820.1406,2327.25 Q1819.5156,2327.25 1819.25,2327.0156 Q1819,2326.7813 1819,2326.3906 Q1819,2326.0156 1819.25,2325.7813 Q1819.5156,2325.5469 1820.1406,2325.5469 L1827.7656,2325.5469 L1827.7656,2328.1406 Q1827.7656,2328.75 1827.5313,2329.0156 Q1827.3125,2329.2656 1826.9219,2329.2656 Q1826.5469,2329.2656 1826.3125,2329.0156 Q1826.0781,2328.75 1826.0781,2328.1406 L1826.0781,2327.25 L1822.1094,2327.25 L1822.1094,2329.7031 L1823.5938,2329.7031 Q1823.5938,2329.0469 1823.7188,2328.8594 Q1823.9844,2328.4531 1824.4531,2328.4531 Q1824.8281,2328.4531 1825.0625,2328.7188 Q1825.2969,2328.9688 1825.2969,2329.5781 L1825.2969,2331.5469 Q1825.2969,2332.0938 1825.1719,2332.2813 Q1824.9063,2332.6719 1824.4531,2332.6719 Q1823.9844,2332.6719 1823.7188,2332.2656 Q1823.5938,2332.0781 1823.5938,2331.4063 L1822.1094,2331.4063 Z " fill="#000000"/><text fill="#000000" font-family="sans-serif" font-size="14" lengthAdjust="spacing" textLength="87" x="1843.75" y="2336.3379">lce_hour_limit</text><line style="stroke:#181818;stroke-width:0.5;" x1="1747" x2="1995" y1="2346.6094" y2="2346.6094"/><ellipse cx="1757" cy="2360.9141" fill="none" rx="3" ry="3" style="stroke:#038048;stroke-width:1.0;"/><text fill="#000000" font-family="sans-serif" font-size="14" lengthAdjust="spacing" textLength="224" x="1766" y="2365.1426">gc_yearly_limit_wage_type : 'YEAR'</text><ellipse cx="1757" cy="2378.5234" fill="none" rx="3" ry="3" style="stroke:#038048;stroke-width:1.0;"/><text fill="#000000" font-family="sans-serif" font-size="14" lengthAdjust="spacing" textLength="172" x="1766" y="2382.752">gc_yearly_hour_limit : '100'</text><line style="stroke:#181818;stroke-width:0.5;" x1="1747" x2="1995" y1="2389.8281" y2="2389.8281"/></g><!--MD5=[b4cbb4c2cdf549a04dc8cf70831df364]
class lce_basic_hour--><g id="elem_lce_basic_hour"><rect codeLine="138" fill="#F1F1F1" height="65.6094" id="lce_basic_hour" rx="2.5" ry="2.5" style="stroke:#181818;stroke-width:0.5;" width="236" x="1475" y="2323.1094"/><ellipse cx="1540.75" cy="2339.1094" fill="#EB937F" rx="11" ry="11" style="stroke:#181818;stroke-width:1.0;"/><path d="M1539.6094,2339.9063 L1539.6094,2342.4063 L1543.9375,2342.4063 L1543.9375,2341.4844 Q1543.9375,2340.875 1544.1719,2340.6094 Q1544.4219,2340.3438 1544.7969,2340.3438 Q1545.1719,2340.3438 1545.4063,2340.6094 Q1545.6406,2340.875 1545.6406,2341.4844 L1545.6406,2344.1094 L1537.6406,2344.1094 Q1537.0156,2344.1094 1536.75,2343.875 Q1536.5,2343.6406 1536.5,2343.25 Q1536.5,2342.875 1536.7656,2342.6406 Q1537.0313,2342.4063 1537.6406,2342.4063 L1537.9063,2342.4063 L1537.9063,2335.75 L1537.6406,2335.75 Q1537.0156,2335.75 1536.75,2335.5156 Q1536.5,2335.2813 1536.5,2334.8906 Q1536.5,2334.5156 1536.75,2334.2813 Q1537.0156,2334.0469 1537.6406,2334.0469 L1545.2656,2334.0469 L1545.2656,2336.6406 Q1545.2656,2337.25 1545.0313,2337.5156 Q1544.8125,2337.7656 1544.4219,2337.7656 Q1544.0469,2337.7656 1543.8125,2337.5156 Q1543.5781,2337.25 1543.5781,2336.6406 L1543.5781,2335.75 L1539.6094,2335.75 L1539.6094,2338.2031 L1541.0938,2338.2031 Q1541.0938,2337.5469 1541.2188,2337.3594 Q1541.4844,2336.9531 1541.9531,2336.9531 Q1542.3281,2336.9531 1542.5625,2337.2188 Q1542.7969,2337.4688 1542.7969,2338.0781 L1542.7969,2340.0469 Q1542.7969,2340.5938 1542.6719,2340.7813 Q1542.4063,2341.1719 1541.9531,2341.1719 Q1541.4844,2341.1719 1541.2188,2340.7656 Q1541.0938,2340.5781 1541.0938,2339.9063 L1539.6094,2339.9063 Z " fill="#000000"/><text fill="#000000" font-family="sans-serif" font-size="14" lengthAdjust="spacing" textLength="96" x="1561.25" y="2344.8379">lce_basic_hour</text><line style="stroke:#181818;stroke-width:0.5;" x1="1476" x2="1710" y1="2355.1094" y2="2355.1094"/><ellipse cx="1486" cy="2369.4141" fill="none" rx="3" ry="3" style="stroke:#038048;stroke-width:1.0;"/><text fill="#000000" font-family="sans-serif" font-size="14" lengthAdjust="spacing" textLength="210" x="1495" y="2373.6426">gc_base_hour_identifier : 'HRAM'</text><line style="stroke:#181818;stroke-width:0.5;" x1="1476" x2="1710" y1="2380.7188" y2="2380.7188"/></g><!--MD5=[3e5150a3577028a4a7e9478a2e87fdcd]
class lif_tax_calculator--><g id="elem_lif_tax_calculator"><rect codeLine="14" fill="#F1F1F1" height="65.6094" id="lif_tax_calculator" rx="2.5" ry="2.5" style="stroke:#181818;stroke-width:0.5;" width="137" x="823.5" y="285.6094"/><ellipse cx="838.5" cy="301.6094" fill="#B4A7E5" rx="11" ry="11" style="stroke:#181818;stroke-width:1.0;"/><path d="M839.4531,298.25 L839.4531,304.9063 L841.1719,304.9063 Q841.7813,304.9063 842.0469,305.1406 Q842.3125,305.375 842.3125,305.7656 Q842.3125,306.1406 842.0469,306.375 Q841.7813,306.6094 841.1719,306.6094 L836.0313,306.6094 Q835.4219,306.6094 835.1563,306.375 Q834.8906,306.1406 834.8906,305.75 Q834.8906,305.375 835.1563,305.1406 Q835.4219,304.9063 836.0313,304.9063 L837.75,304.9063 L837.75,298.25 L836.0313,298.25 Q835.4219,298.25 835.1563,298.0156 Q834.8906,297.7813 834.8906,297.3906 Q834.8906,297.0156 835.1563,296.7813 Q835.4219,296.5469 836.0313,296.5469 L841.1719,296.5469 Q841.7813,296.5469 842.0469,296.7813 Q842.3125,297.0156 842.3125,297.3906 Q842.3125,297.7813 842.0469,298.0156 Q841.7813,298.25 841.1719,298.25 L839.4531,298.25 Z " fill="#000000"/><text fill="#000000" font-family="sans-serif" font-size="14" font-style="italic" lengthAdjust="spacing" textLength="105" x="852.5" y="307.3379">lif_tax_calculator</text><line style="stroke:#181818;stroke-width:0.5;" x1="824.5" x2="959.5" y1="317.6094" y2="317.6094"/><line style="stroke:#181818;stroke-width:0.5;" x1="824.5" x2="959.5" y1="325.6094" y2="325.6094"/><ellipse cx="834.5" cy="339.9141" fill="#84BE84" rx="3" ry="3" style="stroke:#038048;stroke-width:1.0;"/><text fill="#000000" font-family="sans-serif" font-size="14" lengthAdjust="spacing" textLength="108" x="843.5" y="344.1426">calculate( ) : void</text></g><!--MD5=[134b9cca7446078f93ede420e370abf8]
class lcl_tax_calculator_a--><g id="elem_lcl_tax_calculator_a"><rect codeLine="17" fill="#F1F1F1" height="65.6094" id="lcl_tax_calculator_a" rx="2.5" ry="2.5" style="stroke:#181818;stroke-width:0.5;" width="487" x="797.5" y="159.6094"/><ellipse cx="974.75" cy="175.6094" fill="#ADD1B2" rx="11" ry="11" style="stroke:#181818;stroke-width:1.0;"/><path d="M977.5156,171.4844 Q977.6719,171.2656 977.8594,171.1563 Q978.0469,171.0469 978.2656,171.0469 Q978.6406,171.0469 978.875,171.3125 Q979.1094,171.5625 979.1094,172.1719 L979.1094,173.625 Q979.1094,174.2344 978.875,174.5 Q978.6406,174.7656 978.2656,174.7656 Q977.9219,174.7656 977.7188,174.5625 Q977.5156,174.375 977.4063,173.8594 Q977.3594,173.5 977.1719,173.3125 Q976.8438,172.9375 976.2344,172.7188 Q975.625,172.5 975,172.5 Q974.2344,172.5 973.5938,172.8281 Q972.9688,173.1563 972.4688,173.9063 Q971.9844,174.6563 971.9844,175.6875 L971.9844,176.7813 Q971.9844,178.0156 972.875,178.8438 Q973.7656,179.6563 975.3594,179.6563 Q976.2969,179.6563 976.9531,179.4063 Q977.3438,179.25 977.7656,178.8125 Q978.0313,178.5469 978.1719,178.4688 Q978.3281,178.3906 978.5313,178.3906 Q978.8594,178.3906 979.1094,178.6563 Q979.375,178.9063 979.375,179.25 Q979.375,179.5938 979.0313,180 Q978.5313,180.5781 977.7344,180.9063 Q976.6563,181.3594 975.3594,181.3594 Q973.8438,181.3594 972.6406,180.7344 Q971.6563,180.2344 970.9688,179.1719 Q970.2813,178.0938 970.2813,176.8125 L970.2813,175.6563 Q970.2813,174.3281 970.8906,173.1875 Q971.5156,172.0313 972.6094,171.4219 Q973.7031,170.7969 974.9375,170.7969 Q975.6719,170.7969 976.3125,170.9688 Q976.9688,171.125 977.5156,171.4844 Z " fill="#000000"/><text fill="#000000" font-family="sans-serif" font-size="14" lengthAdjust="spacing" textLength="124" x="995.25" y="181.3379">lcl_tax_calculator_a</text><line style="stroke:#181818;stroke-width:0.5;" x1="798.5" x2="1283.5" y1="191.6094" y2="191.6094"/><line style="stroke:#181818;stroke-width:0.5;" x1="798.5" x2="1283.5" y1="199.6094" y2="199.6094"/><ellipse cx="808.5" cy="213.9141" fill="#84BE84" rx="3" ry="3" style="stroke:#038048;stroke-width:1.0;"/><text fill="#000000" font-family="sans-serif" font-size="14" lengthAdjust="spacing" text-decoration="underline" textLength="461" x="817.5" y="218.1426">make( io_payroll_context : if_hrpaypt_payroll_context ) : lif_tax_calculator</text></g><!--MD5=[760f8194885abe6b0484813323602e5c]
class lcl_tax_calculator--><g id="elem_lcl_tax_calculator"><rect codeLine="21" fill="#F1F1F1" height="100.8281" id="lcl_tax_calculator" rx="2.5" ry="2.5" style="stroke:#181818;stroke-width:0.5;" width="624" x="580" y="411.6094"/><ellipse cx="833.75" cy="427.6094" fill="#ADD1B2" rx="11" ry="11" style="stroke:#181818;stroke-width:1.0;"/><path d="M836.5156,423.4844 Q836.6719,423.2656 836.8594,423.1563 Q837.0469,423.0469 837.2656,423.0469 Q837.6406,423.0469 837.875,423.3125 Q838.1094,423.5625 838.1094,424.1719 L838.1094,425.625 Q838.1094,426.2344 837.875,426.5 Q837.6406,426.7656 837.2656,426.7656 Q836.9219,426.7656 836.7188,426.5625 Q836.5156,426.375 836.4063,425.8594 Q836.3594,425.5 836.1719,425.3125 Q835.8438,424.9375 835.2344,424.7188 Q834.625,424.5 834,424.5 Q833.2344,424.5 832.5938,424.8281 Q831.9688,425.1563 831.4688,425.9063 Q830.9844,426.6563 830.9844,427.6875 L830.9844,428.7813 Q830.9844,430.0156 831.875,430.8438 Q832.7656,431.6563 834.3594,431.6563 Q835.2969,431.6563 835.9531,431.4063 Q836.3438,431.25 836.7656,430.8125 Q837.0313,430.5469 837.1719,430.4688 Q837.3281,430.3906 837.5313,430.3906 Q837.8594,430.3906 838.1094,430.6563 Q838.375,430.9063 838.375,431.25 Q838.375,431.5938 838.0313,432 Q837.5313,432.5781 836.7344,432.9063 Q835.6563,433.3594 834.3594,433.3594 Q832.8438,433.3594 831.6406,432.7344 Q830.6563,432.2344 829.9688,431.1719 Q829.2813,430.0938 829.2813,428.8125 L829.2813,427.6563 Q829.2813,426.3281 829.8906,425.1875 Q830.5156,424.0313 831.6094,423.4219 Q832.7031,422.7969 833.9375,422.7969 Q834.6719,422.7969 835.3125,422.9688 Q835.9688,423.125 836.5156,423.4844 Z " fill="#000000"/><text fill="#000000" font-family="sans-serif" font-size="14" lengthAdjust="spacing" textLength="108" x="854.25" y="433.3379">lcl_tax_calculator</text><line style="stroke:#181818;stroke-width:0.5;" x1="581" x2="1203" y1="443.6094" y2="443.6094"/><rect fill="none" height="6" style="stroke:#C82930;stroke-width:1.0;" width="6" x="588" y="454.9141"/><text fill="#000000" font-family="sans-serif" font-size="14" lengthAdjust="spacing" textLength="300" x="600" y="462.1426">mo_payroll_context : if_hrpaypt_payroll_context</text><rect fill="none" height="6" style="stroke:#C82930;stroke-width:1.0;" width="6" x="588" y="472.5234"/><text fill="#000000" font-family="sans-serif" font-size="14" lengthAdjust="spacing" textLength="217" x="600" y="479.752">mt_wt_calc_rule[] : lif_wt_calc_rule</text><line style="stroke:#181818;stroke-width:0.5;" x1="581" x2="1203" y1="486.8281" y2="486.8281"/><ellipse cx="591" cy="501.1328" fill="#84BE84" rx="3" ry="3" style="stroke:#038048;stroke-width:1.0;"/><text fill="#000000" font-family="sans-serif" font-size="14" lengthAdjust="spacing" textLength="598" x="600" y="505.3613">constructor( io_payroll_context : if_hrpaypt_payroll_context, it_wt_calc_rule[] : lif_wt_calc_rule )</text></g><!--MD5=[1a5970adfffb22f836aa2e6411cb642a]
class lif_wt_calc_rule--><g id="elem_lif_wt_calc_rule"><rect codeLine="27" fill="#F1F1F1" height="65.6094" id="lif_wt_calc_rule" rx="2.5" ry="2.5" style="stroke:#181818;stroke-width:0.5;" width="147" x="818.5" y="572.6094"/><ellipse cx="842.05" cy="588.6094" fill="#B4A7E5" rx="11" ry="11" style="stroke:#181818;stroke-width:1.0;"/><path d="M843.0031,585.25 L843.0031,591.9063 L844.7219,591.9063 Q845.3313,591.9063 845.5969,592.1406 Q845.8625,592.375 845.8625,592.7656 Q845.8625,593.1406 845.5969,593.375 Q845.3313,593.6094 844.7219,593.6094 L839.5813,593.6094 Q838.9719,593.6094 838.7063,593.375 Q838.4406,593.1406 838.4406,592.75 Q838.4406,592.375 838.7063,592.1406 Q838.9719,591.9063 839.5813,591.9063 L841.3,591.9063 L841.3,585.25 L839.5813,585.25 Q838.9719,585.25 838.7063,585.0156 Q838.4406,584.7813 838.4406,584.3906 Q838.4406,584.0156 838.7063,583.7813 Q838.9719,583.5469 839.5813,583.5469 L844.7219,583.5469 Q845.3313,583.5469 845.5969,583.7813 Q845.8625,584.0156 845.8625,584.3906 Q845.8625,584.7813 845.5969,585.0156 Q845.3313,585.25 844.7219,585.25 L843.0031,585.25 Z " fill="#000000"/><text fill="#000000" font-family="sans-serif" font-size="14" font-style="italic" lengthAdjust="spacing" textLength="96" x="857.95" y="594.3379">lif_wt_calc_rule</text><line style="stroke:#181818;stroke-width:0.5;" x1="819.5" x2="964.5" y1="604.6094" y2="604.6094"/><line style="stroke:#181818;stroke-width:0.5;" x1="819.5" x2="964.5" y1="612.6094" y2="612.6094"/><ellipse cx="829.5" cy="626.9141" fill="#84BE84" rx="3" ry="3" style="stroke:#038048;stroke-width:1.0;"/><text fill="#000000" font-family="sans-serif" font-size="14" lengthAdjust="spacing" textLength="121" x="838.5" y="631.1426">calculate( ) : pc207</text></g><!--MD5=[fcd702285c16da1993b6bec81907af19]
reverse link lif_tax_calculator to lcl_tax_calculator--><g id="link_lif_tax_calculator_lcl_tax_calculator"><path d="M892,371.8894 C892,371.8894 892,411.5694 892,411.5694 " fill="none" id="lif_tax_calculator-backto-lcl_tax_calculator" style="stroke:#181818;stroke-width:1.0;stroke-dasharray:7.0,7.0;"/><polygon fill="none" points="885,371.8894,892,351.8894,899,371.8894,885,371.8894" style="stroke:#181818;stroke-width:1.0;"/></g><!--MD5=[5eef6619fc82935fcf1e728844ec51b5]
reverse link lif_wt_calc_rule to lcl_base_calculator--><g id="link_lif_wt_calc_rule_lcl_base_calculator"><path d="M892,658.8894 C892,658.8894 892,698.5694 892,698.5694 " fill="none" id="lif_wt_calc_rule-backto-lcl_base_calculator" style="stroke:#181818;stroke-width:1.0;stroke-dasharray:7.0,7.0;"/><polygon fill="none" points="885,658.8894,892,638.8894,899,658.8894,885,658.8894" style="stroke:#181818;stroke-width:1.0;"/></g><!--MD5=[9270df3872cd2f26a4ab25a6586ad42f]
reverse link lif_base_getter_f to lcl_cumulation_base_getter_f--><g id="link_lif_base_getter_f_lcl_cumulation_base_getter_f"><path d="M815,945.8894 C815,945.8894 815,985.5694 815,985.5694 " fill="none" id="lif_base_getter_f-backto-lcl_cumulation_base_getter_f" style="stroke:#181818;stroke-width:1.0;stroke-dasharray:7.0,7.0;"/><polygon fill="none" points="808,945.8894,815,925.8894,822,945.8894,808,945.8894" style="stroke:#181818;stroke-width:1.0;"/></g><!--MD5=[7887d3beb1ce56fb7e7a97db4a4e64f9]
reverse link lif_is_prev_month_lim_reached to lcl_is_prev_month_lim_reached--><g id="link_lif_is_prev_month_lim_reached_lcl_is_prev_month_lim_reached"><path d="M266,1232.8594 C266,1232.8594 266,1272.5794 266,1272.5794 " fill="none" id="lif_is_prev_month_lim_reached-backto-lcl_is_prev_month_lim_reached" style="stroke:#181818;stroke-width:1.0;stroke-dasharray:7.0,7.0;"/><polygon fill="none" points="259,1232.8594,266,1212.8594,273,1232.8594,259,1232.8594" style="stroke:#181818;stroke-width:1.0;"/></g><!--MD5=[76254cb491bc04636ed76ecce877615d]
reverse link lif_has_cumulation to lcl_has_cumulation--><g id="link_lif_has_cumulation_lcl_has_cumulation"><path d="M598,1232.8594 C598,1232.8594 598,1272.5794 598,1272.5794 " fill="none" id="lif_has_cumulation-backto-lcl_has_cumulation" style="stroke:#181818;stroke-width:1.0;stroke-dasharray:7.0,7.0;"/><polygon fill="none" points="591,1232.8594,598,1212.8594,605,1232.8594,591,1232.8594" style="stroke:#181818;stroke-width:1.0;"/></g><!--MD5=[51b0e1d45f40d3d9e25b9be789ed5656]
reverse link lif_base_getter to lcl_cumulation_base_getter--><g id="link_lif_base_getter_lcl_cumulation_base_getter"><path d="M1571.75,1232.8594 C1571.75,1232.8594 1571.75,1272.5794 1571.75,1272.5794 " fill="none" id="lif_base_getter-backto-lcl_cumulation_base_getter" style="stroke:#181818;stroke-width:1.0;stroke-dasharray:7.0,7.0;"/><polygon fill="none" points="1564.75,1232.8594,1571.75,1212.8594,1578.75,1232.8594,1564.75,1232.8594" style="stroke:#181818;stroke-width:1.0;"/></g><!--MD5=[ea7dd83420b77c7e3cfe5ea3568d3026]
reverse link lif_base_getter to lcl_limit_getter--><g id="link_lif_base_getter_lcl_limit_getter"><path d="M1479,1232.8594 C1479,1232.8594 1479,1272.5794 1479,1272.5794 " fill="none" id="lif_base_getter-backto-lcl_limit_getter" style="stroke:#181818;stroke-width:1.0;stroke-dasharray:7.0,7.0;"/><polygon fill="none" points="1472,1232.8594,1479,1212.8594,1486,1232.8594,1472,1232.8594" style="stroke:#181818;stroke-width:1.0;"/></g><!--MD5=[e06c4b17218671928e89291e0231d697]
link lcl_cumulation_base_getter_f to lcl_low_limit_get_a--><g id="link_lcl_cumulation_base_getter_f_lcl_low_limit_get_a"><path codeLine="82" d="M784,1086.6994 C784,1128.0194 784,1179.6094 784,1179.6094 C784,1179.6094 946.77,1179.6094 946.77,1179.6094 " fill="none" id="lcl_cumulation_base_getter_f-to-lcl_low_limit_get_a" style="stroke:#181818;stroke-width:1.0;"/><polygon fill="#181818" points="951.77,1179.6094,942.77,1175.6094,946.77,1179.6094,942.77,1183.6094,951.77,1179.6094" style="stroke:#181818;stroke-width:1.0;"/><text fill="#000000" font-family="sans-serif" font-size="13" lengthAdjust="spacing" textLength="28" x="789.93" y="1176.1045">uses</text></g><!--MD5=[1fa880069aa2f727034ffe646d6439d3]
link lcl_low_limit_get_a to lcl_limit_getter--><g id="link_lcl_low_limit_get_a_lcl_limit_getter"><path codeLine="83" d="M1277.5,1212.8594 C1277.5,1212.8594 1277.5,1267.5794 1277.5,1267.5794 " fill="none" id="lcl_low_limit_get_a-to-lcl_limit_getter" style="stroke:#181818;stroke-width:1.0;stroke-dasharray:7.0,7.0;"/><polygon fill="#181818" points="1277.5,1272.5794,1281.5,1263.5794,1277.5,1267.5794,1273.5,1263.5794,1277.5,1272.5794" style="stroke:#181818;stroke-width:1.0;"/><text fill="#000000" font-family="sans-serif" font-size="13" lengthAdjust="spacing" textLength="40" x="1236.5" y="1236.7145">returns</text></g><!--MD5=[1de9de71012d555576f7c787329b1d69]
reverse link lif_table_processor to lcl_table_processor--><g id="link_lif_table_processor_lcl_table_processor"><path d="M1311,1501.8594 C1311,1501.8594 1311,1541.5794 1311,1541.5794 " fill="none" id="lif_table_processor-backto-lcl_table_processor" style="stroke:#181818;stroke-width:1.0;stroke-dasharray:7.0,7.0;"/><polygon fill="none" points="1304,1501.8594,1311,1481.8594,1318,1501.8594,1304,1501.8594" style="stroke:#181818;stroke-width:1.0;"/></g><!--MD5=[ae2d1f0fe077f92a3afd4e2742b4d276]
reverse link lif_base_calculation_rule to lcl_base_full_hours--><g id="link_lif_base_calculation_rule_lcl_base_full_hours"><path d="M1311,1770.9694 C1311,1770.9694 1311,1818.9894 1311,1818.9894 " fill="none" id="lif_base_calculation_rule-backto-lcl_base_full_hours" style="stroke:#181818;stroke-width:1.0;stroke-dasharray:7.0,7.0;"/><polygon fill="none" points="1304,1770.9694,1311,1750.9694,1318,1770.9694,1304,1770.9694" style="stroke:#181818;stroke-width:1.0;"/></g><!--MD5=[635743006b20a1c20508689ca45c436d]
reverse link lif_basic_hour_getter to lcl_basic_hour_getter--><g id="link_lif_basic_hour_getter_lcl_basic_hour_getter"><path d="M1403,2083.2794 C1403,2083.2794 1403,2131.4094 1403,2131.4094 " fill="none" id="lif_basic_hour_getter-backto-lcl_basic_hour_getter" style="stroke:#181818;stroke-width:1.0;stroke-dasharray:7.0,7.0;"/><polygon fill="none" points="1396,2083.2794,1403,2063.2794,1410,2083.2794,1396,2083.2794" style="stroke:#181818;stroke-width:1.0;"/></g><!--MD5=[0785c8e8bdb8747c1cc7010651ea51cf]
reverse link lif_base_e to lcl_base_e--><g id="link_lif_base_e_lcl_base_e"><path d="M1828,1948.9194 C1828,1948.9194 1828,1988.5694 1828,1988.5694 " fill="none" id="lif_base_e-backto-lcl_base_e" style="stroke:#181818;stroke-width:1.0;stroke-dasharray:7.0,7.0;"/><polygon fill="none" points="1821,1948.9194,1828,1928.9194,1835,1948.9194,1821,1948.9194" style="stroke:#181818;stroke-width:1.0;"/></g><!--MD5=[300348a887a2343d15016621ea406c74]
link lcl_cumulation_base_getter to lce_base--><g id="link_lcl_cumulation_base_getter_lce_base"><path codeLine="143" d="M1961.66,1314.6094 C2064.75,1314.6094 2168.33,1314.6094 2168.33,1314.6094 C2168.33,1314.6094 2168.33,2317.9294 2168.33,2317.9294 " fill="none" id="lcl_cumulation_base_getter-to-lce_base" style="stroke:#181818;stroke-width:1.0;"/><polygon fill="#181818" points="2168.33,2322.9294,2172.33,2313.9294,2168.33,2317.9294,2164.33,2313.9294,2168.33,2322.9294" style="stroke:#181818;stroke-width:1.0;"/><text fill="#000000" font-family="sans-serif" font-size="13" lengthAdjust="spacing" textLength="28" x="2139.33" y="1709.4245">uses</text></g><!--MD5=[266f085ad5a36605a12d71278d10bf15]
link lcl_has_cumulation to lce_base--><g id="link_lcl_has_cumulation_lce_base"><path codeLine="144" d="M692,1355.6194 C692,1518.0394 692,2101.6094 692,2101.6094 C692,2101.6094 2099.67,2101.6094 2099.67,2101.6094 C2099.67,2101.6094 2099.67,2318.0994 2099.67,2318.0994 " fill="none" id="lcl_has_cumulation-to-lce_base" style="stroke:#181818;stroke-width:1.0;"/><polygon fill="#181818" points="2099.67,2323.0994,2103.67,2314.0994,2099.67,2318.0994,2095.67,2314.0994,2099.67,2323.0994" style="stroke:#181818;stroke-width:1.0;"/><text fill="#000000" font-family="sans-serif" font-size="13" lengthAdjust="spacing" textLength="28" x="1102.08" y="2098.1045">uses</text></g><!--MD5=[5e7005dee468bc6d777a1a7228d3b5a1]
link lcl_base_calculator to lif_base_getter--><g id="link_lcl_base_calculator_lif_base_getter"><path codeLine="145" d="M1212.3,749.6094 C1378.42,749.6094 1547,749.6094 1547,749.6094 C1547,749.6094 1547,1141.5794 1547,1141.5794 " fill="none" id="lcl_base_calculator-to-lif_base_getter" style="stroke:#181818;stroke-width:1.0;"/><polygon fill="#181818" points="1547,1146.5794,1551,1137.5794,1547,1141.5794,1543,1137.5794,1547,1146.5794" style="stroke:#181818;stroke-width:1.0;"/><text fill="#000000" font-family="sans-serif" font-size="13" lengthAdjust="spacing" textLength="28" x="1518" y="774.7445">uses</text></g><!--MD5=[fa791142c38a656c43f1938550cce931]
reverse link lcl_base_calculator to lif_base_getter_f--><g id="link_lcl_base_calculator_lif_base_getter_f"><path codeLine="146" d="M815,812.6994 C815,812.6994 815,859.5094 815,859.5094 " fill="none" id="lcl_base_calculator-backto-lif_base_getter_f" style="stroke:#181818;stroke-width:1.0;"/><polygon fill="#181818" points="815,799.6994,811,805.6994,815,811.6994,819,805.6994,815,799.6994" style="stroke:#181818;stroke-width:1.0;"/><text fill="#000000" font-family="sans-serif" font-size="13" lengthAdjust="spacing" textLength="21" x="793" y="832.6045">has</text><text fill="#000000" font-family="sans-serif" font-size="13" lengthAdjust="spacing" textLength="22" x="790.7313" y="848.6042">1..1</text></g><!--MD5=[ff76a91fae43d17243f50aa7d42d79b0]
reverse link lcl_cumulation_base_getter_f to lif_has_cumulation--><g id="link_lcl_cumulation_base_getter_f_lif_has_cumulation"><path codeLine="147" d="M598,1099.6994 C598,1099.6994 598,1146.5094 598,1146.5094 " fill="none" id="lcl_cumulation_base_getter_f-backto-lif_has_cumulation" style="stroke:#181818;stroke-width:1.0;"/><polygon fill="#181818" points="598,1086.6994,594,1092.6994,598,1098.6994,602,1092.6994,598,1086.6994" style="stroke:#181818;stroke-width:1.0;"/><text fill="#000000" font-family="sans-serif" font-size="13" lengthAdjust="spacing" textLength="21" x="576" y="1119.6045">has</text><text fill="#000000" font-family="sans-serif" font-size="13" lengthAdjust="spacing" textLength="22" x="573.7313" y="1135.6042">1..1</text></g><!--MD5=[19beb3de693899f2e36081c15076d000]
reverse link lcl_cumulation_base_getter_f to lif_is_prev_month_lim_reached--><g id="link_lcl_cumulation_base_getter_f_lif_is_prev_month_lim_reached"><path codeLine="148" d="M266,1099.6994 C266,1099.6994 266,1146.5094 266,1146.5094 " fill="none" id="lcl_cumulation_base_getter_f-backto-lif_is_prev_month_lim_reached" style="stroke:#181818;stroke-width:1.0;"/><polygon fill="#181818" points="266,1086.6994,262,1092.6994,266,1098.6994,270,1092.6994,266,1086.6994" style="stroke:#181818;stroke-width:1.0;"/><text fill="#000000" font-family="sans-serif" font-size="13" lengthAdjust="spacing" textLength="21" x="244" y="1119.6045">has</text><text fill="#000000" font-family="sans-serif" font-size="13" lengthAdjust="spacing" textLength="22" x="241.7313" y="1135.6042">1..1</text></g><!--MD5=[26e93ad9fadc28586d1747dc0307d3ca]
link lif_base_getter_f to lif_base_getter--><g id="link_lif_base_getter_f_lif_base_getter"><path codeLine="149" d="M896.18,892.6094 C1078.58,892.6094 1505,892.6094 1505,892.6094 C1505,892.6094 1505,1141.4094 1505,1141.4094 " fill="none" id="lif_base_getter_f-to-lif_base_getter" style="stroke:#181818;stroke-width:1.0;stroke-dasharray:7.0,7.0;"/><polygon fill="#181818" points="1505,1146.4094,1509,1137.4094,1505,1141.4094,1501,1137.4094,1505,1146.4094" style="stroke:#181818;stroke-width:1.0;"/><text fill="#000000" font-family="sans-serif" font-size="13" lengthAdjust="spacing" textLength="40" x="1283.99" y="889.1045">returns</text><text fill="#000000" font-family="sans-serif" font-size="13" lengthAdjust="spacing" textLength="22" x="1476.7" y="1135.8663">1..1</text></g><!--MD5=[8d55ad220cda513bef14ecac3aed01c3]
link lcl_is_prev_month_lim_reached to lce_hour_limit--><g id="link_lcl_is_prev_month_lim_reached_lce_hour_limit"><path codeLine="150" d="M250,1355.7194 C250,1545.4694 250,2319.6094 250,2319.6094 C250,2319.6094 1740.82,2319.6094 1740.82,2319.6094 " fill="none" id="lcl_is_prev_month_lim_reached-to-lce_hour_limit" style="stroke:#181818;stroke-width:1.0;"/><polygon fill="#181818" points="1745.82,2319.6094,1736.82,2315.6094,1740.82,2319.6094,1736.82,2323.6094,1745.82,2319.6094" style="stroke:#181818;stroke-width:1.0;"/><text fill="#000000" font-family="sans-serif" font-size="13" lengthAdjust="spacing" textLength="28" x="484.47" y="2316.1045">uses</text></g><!--MD5=[76d09f57c218e1bc500c6c31d607db2b]
reverse link lcl_limit_getter to lif_table_processor--><g id="link_lcl_limit_getter_lif_table_processor"><path codeLine="151" d="M1311,1368.9294 C1311,1368.9294 1311,1415.3494 1311,1415.3494 " fill="none" id="lcl_limit_getter-backto-lif_table_processor" style="stroke:#181818;stroke-width:1.0;"/><polygon fill="#181818" points="1311,1355.9294,1307,1361.9294,1311,1367.9294,1315,1361.9294,1311,1355.9294" style="stroke:#181818;stroke-width:1.0;"/><text fill="#000000" font-family="sans-serif" font-size="13" lengthAdjust="spacing" textLength="21" x="1289" y="1388.6345">has</text><text fill="#000000" font-family="sans-serif" font-size="13" lengthAdjust="spacing" textLength="22" x="1286.8344" y="1404.7945">1..1</text></g><!--MD5=[752325afdc3d129a7e2be8ea3ec1aea9]
link lif_base_calculation_rule to lif_base_e--><g id="link_lif_base_calculation_rule_lif_base_e"><path codeLine="152" d="M1546.71,1717.6094 C1680.4,1717.6094 1821.25,1717.6094 1821.25,1717.6094 C1821.25,1717.6094 1821.25,1805.4094 1821.25,1805.4094 " fill="none" id="lif_base_calculation_rule-to-lif_base_e" style="stroke:#181818;stroke-width:1.0;"/><polygon fill="#181818" points="1821.25,1810.4094,1825.25,1801.4094,1821.25,1805.4094,1817.25,1801.4094,1821.25,1810.4094" style="stroke:#181818;stroke-width:1.0;"/><text fill="#000000" font-family="sans-serif" font-size="13" lengthAdjust="spacing" textLength="21" x="1705.88" y="1714.1045">use</text></g><!--MD5=[fd1d52d4016a0c98f922a44f204c6c87]
reverse link lcl_table_processor to lif_base_calculation_rule--><g id="link_lcl_table_processor_lif_base_calculation_rule"><path codeLine="153" d="M1311,1637.9294 C1311,1637.9294 1311,1684.3494 1311,1684.3494 " fill="none" id="lcl_table_processor-backto-lif_base_calculation_rule" style="stroke:#181818;stroke-width:1.0;"/><polygon fill="#181818" points="1311,1624.9294,1307,1630.9294,1311,1636.9294,1315,1630.9294,1311,1624.9294" style="stroke:#181818;stroke-width:1.0;"/><text fill="#000000" font-family="sans-serif" font-size="13" lengthAdjust="spacing" textLength="21" x="1289" y="1657.6345">has</text><text fill="#000000" font-family="sans-serif" font-size="13" lengthAdjust="spacing" textLength="24" x="1284.6375" y="1673.7945">1..N</text></g><!--MD5=[67f4804d4936b36b249ecc91a162fbdb]
link lcl_basic_hour_getter to lce_basic_hour--><g id="link_lcl_basic_hour_getter_lce_basic_hour"><path codeLine="154" d="M1593,2214.6394 C1593,2214.6394 1593,2317.9794 1593,2317.9794 " fill="none" id="lcl_basic_hour_getter-to-lce_basic_hour" style="stroke:#181818;stroke-width:1.0;"/><polygon fill="#181818" points="1593,2322.9794,1597,2313.9794,1593,2317.9794,1589,2313.9794,1593,2322.9794" style="stroke:#181818;stroke-width:1.0;"/><text fill="#000000" font-family="sans-serif" font-size="13" lengthAdjust="spacing" textLength="21" x="1571" y="2262.8045">use</text></g><!--MD5=[f9a74ecafa84c2681a742a9783c781c8]
reverse link lcl_base_full_hours to lif_basic_hour_getter--><g id="link_lcl_base_full_hours_lif_basic_hour_getter"><path codeLine="155" d="M1399,1933.3894 C1399,1933.3894 1399,1996.8494 1399,1996.8494 " fill="none" id="lcl_base_full_hours-backto-lif_basic_hour_getter" style="stroke:#181818;stroke-width:1.0;"/><polygon fill="#181818" points="1399,1920.3894,1395,1926.3894,1399,1932.3894,1403,1926.3894,1399,1920.3894" style="stroke:#181818;stroke-width:1.0;"/><text fill="#000000" font-family="sans-serif" font-size="13" lengthAdjust="spacing" textLength="21" x="1377" y="1961.6145">has</text></g><!--MD5=[4f997dc618cbcfe6c8ec31ce441428b0]
reverse link lcl_tax_calculator to lif_wt_calc_rule--><g id="link_lcl_tax_calculator_lif_wt_calc_rule"><path codeLine="156" d="M892,525.6994 C892,525.6994 892,572.5094 892,572.5094 " fill="none" id="lcl_tax_calculator-backto-lif_wt_calc_rule" style="stroke:#181818;stroke-width:1.0;"/><polygon fill="#181818" points="892,512.6994,888,518.6994,892,524.6994,896,518.6994,892,512.6994" style="stroke:#181818;stroke-width:1.0;"/><text fill="#000000" font-family="sans-serif" font-size="13" lengthAdjust="spacing" textLength="21" x="870" y="545.6045">has</text><text fill="#000000" font-family="sans-serif" font-size="13" lengthAdjust="spacing" textLength="24" x="865.525" y="561.6042">1..N</text></g><!--MD5=[99214662eeb6d2c40d60f618e0c7ca20]
link Payroll to lif_tax_calculator--><g id="link_Payroll_lif_tax_calculator"><path codeLine="157" d="M860.24,72.6094 C803.08,72.6094 688.75,72.6094 688.75,72.6094 C688.75,72.6094 688.75,318.6094 688.75,318.6094 C688.75,318.6094 818.47,318.6094 818.47,318.6094 " fill="none" id="Payroll-to-lif_tax_calculator" style="stroke:#181818;stroke-width:1.0;"/><polygon fill="#181818" points="823.47,318.6094,814.47,314.6094,818.47,318.6094,814.47,322.6094,823.47,318.6094" style="stroke:#181818;stroke-width:1.0;"/><text fill="#000000" font-family="sans-serif" font-size="13" lengthAdjust="spacing" textLength="28" x="659.75" y="171.2145">uses</text></g><!--MD5=[adaaa8b6a622f0536ec09a010bd66678]
link Payroll to lcl_tax_calculator_a--><g id="link_Payroll_lcl_tax_calculator_a"><path codeLine="158" d="M892,99.7594 C892,99.7594 892,154.5194 892,154.5194 " fill="none" id="Payroll-to-lcl_tax_calculator_a" style="stroke:#181818;stroke-width:1.0;"/><polygon fill="#181818" points="892,159.5194,896,150.5194,892,154.5194,888,150.5194,892,159.5194" style="stroke:#181818;stroke-width:1.0;"/><text fill="#000000" font-family="sans-serif" font-size="13" lengthAdjust="spacing" textLength="28" x="863" y="123.6345">uses</text></g><!--MD5=[c29c9f7f0c67c9df406c2bb90f4b8a76]
link lcl_tax_calculator_a to lif_tax_calculator--><g id="link_lcl_tax_calculator_a_lif_tax_calculator"><path codeLine="159" d="M892,225.7194 C892,225.7194 892,280.2894 892,280.2894 " fill="none" id="lcl_tax_calculator_a-to-lif_tax_calculator" style="stroke:#181818;stroke-width:1.0;stroke-dasharray:7.0,7.0;"/><polygon fill="#181818" points="892,285.2894,896,276.2894,892,280.2894,888,276.2894,892,285.2894" style="stroke:#181818;stroke-width:1.0;"/><text fill="#000000" font-family="sans-serif" font-size="13" lengthAdjust="spacing" textLength="40" x="851" y="249.4945">returns</text></g><!--MD5=[bff63fd69b7922009a04f6f126548910]
@startuml diagrama_B

    '10 Interfaces
    '13 Classes
    '3 Enumeradores

    title Diagrama B
    
    skinparam linetype ortho

    package Payroll {

    }

    interface lif_tax_calculator{
        +calculate( ) : void
    }
    class lcl_tax_calculator_a{
        +{static}make( io_payroll_context : if_hrpaypt_payroll_context ) : lif_tax_calculator
    }

    class lcl_tax_calculator implements lif_tax_calculator{
            -mo_payroll_context : if_hrpaypt_payroll_context
            -mt_wt_calc_rule[] : lif_wt_calc_rule
            +constructor( io_payroll_context : if_hrpaypt_payroll_context, it_wt_calc_rule[] : lif_wt_calc_rule )
    }

    interface lif_wt_calc_rule{
        + calculate( ) : pc207
    }

    package Overtime_tax_Basis_for_period as "Tax Basis"{

        class lcl_base_calculator implements lif_wt_calc_rule{
            -mo_payroll_context : if_hrpaypt_payroll_context
            -mo_base_getter_f : lif_base_getter_f
            +constructor( io_payroll_context : if_hrpaypt_payroll_context, io_base_getter_f : lif_base_getter_f )
        }
        package overtime_getter_factory as "getter factory"{ 
            interface lif_base_getter_f{
                build( ) : lif_base_getter
            }

            class lcl_cumulation_base_getter_f implements lif_base_getter_f{
                -mo_has_cumulation : lif_has_cumulation
                -mo_is_prev_month_limit_reached : lif_is_prev_month_lim_reached
                +constructor( io_has_cumulation : lif_has_cumulation, io_is_prev_month_limit_reached : lif_is_prev_month_lim_reached )
            }
            interface lif_is_prev_month_lim_reached{
                is( ) : abap_bool
            }

            class lcl_is_prev_month_lim_reached implements lif_is_prev_month_lim_reached {
                -mo_payroll_context : if_hrpaypt_payroll_context
                +constructor( io_payroll_context : if_hrpaypt_payroll_context )
            }

            interface lif_has_cumulation{
                has() : abap_bool
            }
            class lcl_has_cumulation implements lif_has_cumulation{
                -mo_payroll_context : if_hrpaypt_payroll_context
                +constructor( io_payroll_context : if_hrpaypt_payroll_context )
            }
        }
        package overtime_getter as "overtime getters"{
            interface lif_base_getter{
                get() : maxbt
            }
            class lcl_cumulation_base_getter implements lif_base_getter{
                -mo_payroll_context : if_hrpaypt_payroll_context
                +constructor( io_payroll_context : if_hrpaypt_payroll_context )
            }

            class lcl_low_limit_get_a{
                +{static}make( io_payroll_context : if_hrpaypt_payroll_context ) : lif_base_getter
            }
            class lcl_limit_getter implements lif_base_getter{
                - mo_table_processor : lif_table_processor
                +constructor( io_table_processor : lif_table_processor )
            }

            lcl_cumulation_base_getter_f - -> lcl_low_limit_get_a : uses
            lcl_low_limit_get_a ..> lcl_limit_getter : returns

            interface lif_table_processor{
                + process( ) : maxbt
            }

            class lcl_table_processor implements lif_table_processor{
                - mo_payroll_context : if_hrpaypt_payroll_context
                +constructor( io_payroll_context : if_hrpaypt_payroll_context )
            }

            interface lif_base_calculation_rule{
                + calculate( io_base_e : lif_base_e, is_current_overtime : PC2BF ) : void
            }

            class lcl_base_full_hours implements lif_base_calculation_rule{
                - mo_payroll_context : if_hrpaypt_payroll_context
                - mo_basic_hour_getter : lif_basic_hour_getter
                +constructor( io_payroll_context : if_hrpaypt_payroll_context, io_basic_hour_getter : lif_basic_hour_getter )
            }

            interface lif_basic_hour_getter{
                + get( ) : pc207
            }

            class lcl_basic_hour_getter implements lif_basic_hour_getter{
                - mo_payroll_context : if_hrpaypt_payroll_context
                +constructor( io_payroll_context : if_hrpaypt_payroll_context )
            }

            interface lif_base_e{
                get_cumulator( ) : p_suml
                get_base( ) : maxbt 
                set_cumulator( iv_cumulator : p_suml ) : void
                set_base( iv_base : maxbt ) : void
            }

            class lcl_base_e implements lif_base_e {
                - mv_cumulator : anhzl 
                - mv_base : maxbt
            }
                
        }
        
    }

    package enumerators as "enumerators"{
            enum lce_base{
                +gc_base_cumulator : 'BAOV'
            }

            enum lce_hour_limit{
                +gc_yearly_limit_wage_type : 'YEAR'
                +gc_yearly_hour_limit : '100'
            }
            enum lce_basic_hour{
                +gc_base_hour_identifier : 'HRAM'
            }
        }

        lcl_cumulation_base_getter- -> lce_base : uses
        lcl_has_cumulation- -> lce_base : uses
        lcl_base_calculator- -> lif_base_getter : uses
        lcl_base_calculator *- - "1..1" lif_base_getter_f : has
        lcl_cumulation_base_getter_f *- - "1..1" lif_has_cumulation : has
        lcl_cumulation_base_getter_f *- - "1..1" lif_is_prev_month_lim_reached : has
        lif_base_getter_f..> "1..1" lif_base_getter :returns
        lcl_is_prev_month_lim_reached - -> lce_hour_limit : uses
        lcl_limit_getter *- - "1..1" lif_table_processor : has
        lif_base_calculation_rule - -> lif_base_e : use
        lcl_table_processor *- - "1..N" lif_base_calculation_rule : has
        lcl_basic_hour_getter - -> lce_basic_hour : use
        lcl_base_full_hours *- - lif_basic_hour_getter : has
        lcl_tax_calculator  *- - "1..N" lif_wt_calc_rule : has
        Payroll - -> lif_tax_calculator : uses
        Payroll - -> lcl_tax_calculator_a : uses
        lcl_tax_calculator_a ..> lif_tax_calculator : returns
@enduml

@startuml diagrama_B


    title Diagrama B
    
    skinparam linetype ortho

    package Payroll {

    }

    interface lif_tax_calculator{
        +calculate( ) : void
    }
    class lcl_tax_calculator_a{
        +{static}make( io_payroll_context : if_hrpaypt_payroll_context ) : lif_tax_calculator
    }

    class lcl_tax_calculator implements lif_tax_calculator{
            -mo_payroll_context : if_hrpaypt_payroll_context
            -mt_wt_calc_rule[] : lif_wt_calc_rule
            +constructor( io_payroll_context : if_hrpaypt_payroll_context, it_wt_calc_rule[] : lif_wt_calc_rule )
    }

    interface lif_wt_calc_rule{
        + calculate( ) : pc207
    }

    package Overtime_tax_Basis_for_period as "Tax Basis"{

        class lcl_base_calculator implements lif_wt_calc_rule{
            -mo_payroll_context : if_hrpaypt_payroll_context
            -mo_base_getter_f : lif_base_getter_f
            +constructor( io_payroll_context : if_hrpaypt_payroll_context, io_base_getter_f : lif_base_getter_f )
        }
        package overtime_getter_factory as "getter factory"{ 
            interface lif_base_getter_f{
                build( ) : lif_base_getter
            }

            class lcl_cumulation_base_getter_f implements lif_base_getter_f{
                -mo_has_cumulation : lif_has_cumulation
                -mo_is_prev_month_limit_reached : lif_is_prev_month_lim_reached
                +constructor( io_has_cumulation : lif_has_cumulation, io_is_prev_month_limit_reached : lif_is_prev_month_lim_reached )
            }
            interface lif_is_prev_month_lim_reached{
                is( ) : abap_bool
            }

            class lcl_is_prev_month_lim_reached implements lif_is_prev_month_lim_reached {
                -mo_payroll_context : if_hrpaypt_payroll_context
                +constructor( io_payroll_context : if_hrpaypt_payroll_context )
            }

            interface lif_has_cumulation{
                has() : abap_bool
            }
            class lcl_has_cumulation implements lif_has_cumulation{
                -mo_payroll_context : if_hrpaypt_payroll_context
                +constructor( io_payroll_context : if_hrpaypt_payroll_context )
            }
        }
        package overtime_getter as "overtime getters"{
            interface lif_base_getter{
                get() : maxbt
            }
            class lcl_cumulation_base_getter implements lif_base_getter{
                -mo_payroll_context : if_hrpaypt_payroll_context
                +constructor( io_payroll_context : if_hrpaypt_payroll_context )
            }

            class lcl_low_limit_get_a{
                +{static}make( io_payroll_context : if_hrpaypt_payroll_context ) : lif_base_getter
            }
            class lcl_limit_getter implements lif_base_getter{
                - mo_table_processor : lif_table_processor
                +constructor( io_table_processor : lif_table_processor )
            }

            lcl_cumulation_base_getter_f - -> lcl_low_limit_get_a : uses
            lcl_low_limit_get_a ..> lcl_limit_getter : returns

            interface lif_table_processor{
                + process( ) : maxbt
            }

            class lcl_table_processor implements lif_table_processor{
                - mo_payroll_context : if_hrpaypt_payroll_context
                +constructor( io_payroll_context : if_hrpaypt_payroll_context )
            }

            interface lif_base_calculation_rule{
                + calculate( io_base_e : lif_base_e, is_current_overtime : PC2BF ) : void
            }

            class lcl_base_full_hours implements lif_base_calculation_rule{
                - mo_payroll_context : if_hrpaypt_payroll_context
                - mo_basic_hour_getter : lif_basic_hour_getter
                +constructor( io_payroll_context : if_hrpaypt_payroll_context, io_basic_hour_getter : lif_basic_hour_getter )
            }

            interface lif_basic_hour_getter{
                + get( ) : pc207
            }

            class lcl_basic_hour_getter implements lif_basic_hour_getter{
                - mo_payroll_context : if_hrpaypt_payroll_context
                +constructor( io_payroll_context : if_hrpaypt_payroll_context )
            }

            interface lif_base_e{
                get_cumulator( ) : p_suml
                get_base( ) : maxbt 
                set_cumulator( iv_cumulator : p_suml ) : void
                set_base( iv_base : maxbt ) : void
            }

            class lcl_base_e implements lif_base_e {
                - mv_cumulator : anhzl 
                - mv_base : maxbt
            }
                
        }
        
    }

    package enumerators as "enumerators"{
            enum lce_base{
                +gc_base_cumulator : 'BAOV'
            }

            enum lce_hour_limit{
                +gc_yearly_limit_wage_type : 'YEAR'
                +gc_yearly_hour_limit : '100'
            }
            enum lce_basic_hour{
                +gc_base_hour_identifier : 'HRAM'
            }
        }

        lcl_cumulation_base_getter- -> lce_base : uses
        lcl_has_cumulation- -> lce_base : uses
        lcl_base_calculator- -> lif_base_getter : uses
        lcl_base_calculator *- - "1..1" lif_base_getter_f : has
        lcl_cumulation_base_getter_f *- - "1..1" lif_has_cumulation : has
        lcl_cumulation_base_getter_f *- - "1..1" lif_is_prev_month_lim_reached : has
        lif_base_getter_f..> "1..1" lif_base_getter :returns
        lcl_is_prev_month_lim_reached - -> lce_hour_limit : uses
        lcl_limit_getter *- - "1..1" lif_table_processor : has
        lif_base_calculation_rule - -> lif_base_e : use
        lcl_table_processor *- - "1..N" lif_base_calculation_rule : has
        lcl_basic_hour_getter - -> lce_basic_hour : use
        lcl_base_full_hours *- - lif_basic_hour_getter : has
        lcl_tax_calculator  *- - "1..N" lif_wt_calc_rule : has
        Payroll - -> lif_tax_calculator : uses
        Payroll - -> lcl_tax_calculator_a : uses
        lcl_tax_calculator_a ..> lif_tax_calculator : returns
@enduml

PlantUML version 1.2022.7(Mon Aug 22 14:01:30 BRT 2022)
(GPL source distribution)
Java Runtime: Java(TM) SE Runtime Environment
JVM: Java HotSpot(TM) 64-Bit Server VM
Default Encoding: Cp1252
Language: pt
Country: BR
--></g></svg>