<?xml version="1.0" encoding="UTF-8" standalone="no"?><svg xmlns="http://www.w3.org/2000/svg" xmlns:xlink="http://www.w3.org/1999/xlink" contentStyleType="text/css" height="2111px" preserveAspectRatio="none" style="width:1341px;height:2111px;background:#FFFFFF;" version="1.1" viewBox="0 0 1341 2111" width="1341px" zoomAndPan="magnify"><defs/><g><rect fill="none" height="27.6094" id="_title" style="stroke:none;stroke-width:1.0;" width="89" x="619.25" y="5"/><text fill="#000000" font-family="sans-serif" font-size="14" font-weight="bold" lengthAdjust="spacing" textLength="79" x="624.25" y="24.5332">Diagrama C</text><!--MD5=[c45871dfd967de0a789e707af4f672dc]
cluster enumerators--><g id="cluster_enumerators"><path d="M187,1986.6094 L278,1986.6094 A3.75,3.75 0 0 1 280.5,1989.1094 L287.5,2010.2188 L691,2010.2188 A2.5,2.5 0 0 1 693.5,2012.7188 L693.5,2102.1094 A2.5,2.5 0 0 1 691,2104.6094 L187,2104.6094 A2.5,2.5 0 0 1 184.5,2102.1094 L184.5,1989.1094 A2.5,2.5 0 0 1 187,1986.6094 " fill="none" style="stroke:#000000;stroke-width:1.5;"/><line style="stroke:#000000;stroke-width:1.5;" x1="184.5" x2="287.5" y1="2010.2188" y2="2010.2188"/><text fill="#000000" font-family="sans-serif" font-size="14" font-weight="bold" lengthAdjust="spacing" textLength="90" x="188.5" y="2003.1426">enumerators</text></g><path d="M317.5,44.6094 L361.5,44.6094 A3.75,3.75 0 0 1 364,47.1094 L371,68.2188 L375.5,68.2188 A2.5,2.5 0 0 1 378,70.7188 L378,97.3281 A2.5,2.5 0 0 1 375.5,99.8281 L317.5,99.8281 A2.5,2.5 0 0 1 315,97.3281 L315,47.1094 A2.5,2.5 0 0 1 317.5,44.6094 " fill="#F1F1F1" style="stroke:#181818;stroke-width:0.5;"/><line style="stroke:#181818;stroke-width:0.5;" x1="315" x2="371" y1="68.2188" y2="68.2188"/><text fill="#000000" font-family="sans-serif" font-size="14" lengthAdjust="spacing" textLength="43" x="319" y="61.1426">Payroll</text><!--MD5=[48e4fba7dce278b2fc256dcea2db5de9]
class lce_base--><g id="elem_lce_base"><rect codeLine="93" fill="#F1F1F1" height="65.6094" id="lce_base" rx="2.5" ry="2.5" style="stroke:#181818;stroke-width:0.5;" width="206" x="200.5" y="2022.6094"/><ellipse cx="270.75" cy="2038.6094" fill="#EB937F" rx="11" ry="11" style="stroke:#181818;stroke-width:1.0;"/><path d="M269.6094,2039.4063 L269.6094,2041.9063 L273.9375,2041.9063 L273.9375,2040.9844 Q273.9375,2040.375 274.1719,2040.1094 Q274.4219,2039.8438 274.7969,2039.8438 Q275.1719,2039.8438 275.4063,2040.1094 Q275.6406,2040.375 275.6406,2040.9844 L275.6406,2043.6094 L267.6406,2043.6094 Q267.0156,2043.6094 266.75,2043.375 Q266.5,2043.1406 266.5,2042.75 Q266.5,2042.375 266.7656,2042.1406 Q267.0313,2041.9063 267.6406,2041.9063 L267.9063,2041.9063 L267.9063,2035.25 L267.6406,2035.25 Q267.0156,2035.25 266.75,2035.0156 Q266.5,2034.7813 266.5,2034.3906 Q266.5,2034.0156 266.75,2033.7813 Q267.0156,2033.5469 267.6406,2033.5469 L275.2656,2033.5469 L275.2656,2036.1406 Q275.2656,2036.75 275.0313,2037.0156 Q274.8125,2037.2656 274.4219,2037.2656 Q274.0469,2037.2656 273.8125,2037.0156 Q273.5781,2036.75 273.5781,2036.1406 L273.5781,2035.25 L269.6094,2035.25 L269.6094,2037.7031 L271.0938,2037.7031 Q271.0938,2037.0469 271.2188,2036.8594 Q271.4844,2036.4531 271.9531,2036.4531 Q272.3281,2036.4531 272.5625,2036.7188 Q272.7969,2036.9688 272.7969,2037.5781 L272.7969,2039.5469 Q272.7969,2040.0938 272.6719,2040.2813 Q272.4063,2040.6719 271.9531,2040.6719 Q271.4844,2040.6719 271.2188,2040.2656 Q271.0938,2040.0781 271.0938,2039.4063 L269.6094,2039.4063 Z " fill="#000000"/><text fill="#000000" font-family="sans-serif" font-size="14" lengthAdjust="spacing" textLength="57" x="291.25" y="2044.3379">lce_base</text><line style="stroke:#181818;stroke-width:0.5;" x1="201.5" x2="405.5" y1="2054.6094" y2="2054.6094"/><ellipse cx="211.5" cy="2068.9141" fill="none" rx="3" ry="3" style="stroke:#038048;stroke-width:1.0;"/><text fill="#000000" font-family="sans-serif" font-size="14" lengthAdjust="spacing" textLength="180" x="220.5" y="2073.1426">gc_base_cumulator : 'BAOV'</text><line style="stroke:#181818;stroke-width:0.5;" x1="201.5" x2="405.5" y1="2080.2188" y2="2080.2188"/></g><!--MD5=[b4cbb4c2cdf549a04dc8cf70831df364]
class lce_basic_hour--><g id="elem_lce_basic_hour"><rect codeLine="96" fill="#F1F1F1" height="65.6094" id="lce_basic_hour" rx="2.5" ry="2.5" style="stroke:#181818;stroke-width:0.5;" width="236" x="441.5" y="2022.6094"/><ellipse cx="507.25" cy="2038.6094" fill="#EB937F" rx="11" ry="11" style="stroke:#181818;stroke-width:1.0;"/><path d="M506.1094,2039.4063 L506.1094,2041.9063 L510.4375,2041.9063 L510.4375,2040.9844 Q510.4375,2040.375 510.6719,2040.1094 Q510.9219,2039.8438 511.2969,2039.8438 Q511.6719,2039.8438 511.9063,2040.1094 Q512.1406,2040.375 512.1406,2040.9844 L512.1406,2043.6094 L504.1406,2043.6094 Q503.5156,2043.6094 503.25,2043.375 Q503,2043.1406 503,2042.75 Q503,2042.375 503.2656,2042.1406 Q503.5313,2041.9063 504.1406,2041.9063 L504.4063,2041.9063 L504.4063,2035.25 L504.1406,2035.25 Q503.5156,2035.25 503.25,2035.0156 Q503,2034.7813 503,2034.3906 Q503,2034.0156 503.25,2033.7813 Q503.5156,2033.5469 504.1406,2033.5469 L511.7656,2033.5469 L511.7656,2036.1406 Q511.7656,2036.75 511.5313,2037.0156 Q511.3125,2037.2656 510.9219,2037.2656 Q510.5469,2037.2656 510.3125,2037.0156 Q510.0781,2036.75 510.0781,2036.1406 L510.0781,2035.25 L506.1094,2035.25 L506.1094,2037.7031 L507.5938,2037.7031 Q507.5938,2037.0469 507.7188,2036.8594 Q507.9844,2036.4531 508.4531,2036.4531 Q508.8281,2036.4531 509.0625,2036.7188 Q509.2969,2036.9688 509.2969,2037.5781 L509.2969,2039.5469 Q509.2969,2040.0938 509.1719,2040.2813 Q508.9063,2040.6719 508.4531,2040.6719 Q507.9844,2040.6719 507.7188,2040.2656 Q507.5938,2040.0781 507.5938,2039.4063 L506.1094,2039.4063 Z " fill="#000000"/><text fill="#000000" font-family="sans-serif" font-size="14" lengthAdjust="spacing" textLength="96" x="527.75" y="2044.3379">lce_basic_hour</text><line style="stroke:#181818;stroke-width:0.5;" x1="442.5" x2="676.5" y1="2054.6094" y2="2054.6094"/><ellipse cx="452.5" cy="2068.9141" fill="none" rx="3" ry="3" style="stroke:#038048;stroke-width:1.0;"/><text fill="#000000" font-family="sans-serif" font-size="14" lengthAdjust="spacing" textLength="210" x="461.5" y="2073.1426">gc_base_hour_identifier : 'HRAM'</text><line style="stroke:#181818;stroke-width:0.5;" x1="442.5" x2="676.5" y1="2080.2188" y2="2080.2188"/></g><!--MD5=[3e5150a3577028a4a7e9478a2e87fdcd]
class lif_tax_calculator--><g id="elem_lif_tax_calculator"><rect codeLine="14" fill="#F1F1F1" height="65.6094" id="lif_tax_calculator" rx="2.5" ry="2.5" style="stroke:#181818;stroke-width:0.5;" width="137" x="278" y="285.6094"/><ellipse cx="293" cy="301.6094" fill="#B4A7E5" rx="11" ry="11" style="stroke:#181818;stroke-width:1.0;"/><path d="M293.9531,298.25 L293.9531,304.9063 L295.6719,304.9063 Q296.2813,304.9063 296.5469,305.1406 Q296.8125,305.375 296.8125,305.7656 Q296.8125,306.1406 296.5469,306.375 Q296.2813,306.6094 295.6719,306.6094 L290.5313,306.6094 Q289.9219,306.6094 289.6563,306.375 Q289.3906,306.1406 289.3906,305.75 Q289.3906,305.375 289.6563,305.1406 Q289.9219,304.9063 290.5313,304.9063 L292.25,304.9063 L292.25,298.25 L290.5313,298.25 Q289.9219,298.25 289.6563,298.0156 Q289.3906,297.7813 289.3906,297.3906 Q289.3906,297.0156 289.6563,296.7813 Q289.9219,296.5469 290.5313,296.5469 L295.6719,296.5469 Q296.2813,296.5469 296.5469,296.7813 Q296.8125,297.0156 296.8125,297.3906 Q296.8125,297.7813 296.5469,298.0156 Q296.2813,298.25 295.6719,298.25 L293.9531,298.25 Z " fill="#000000"/><text fill="#000000" font-family="sans-serif" font-size="14" font-style="italic" lengthAdjust="spacing" textLength="105" x="307" y="307.3379">lif_tax_calculator</text><line style="stroke:#181818;stroke-width:0.5;" x1="279" x2="414" y1="317.6094" y2="317.6094"/><line style="stroke:#181818;stroke-width:0.5;" x1="279" x2="414" y1="325.6094" y2="325.6094"/><ellipse cx="289" cy="339.9141" fill="#84BE84" rx="3" ry="3" style="stroke:#038048;stroke-width:1.0;"/><text fill="#000000" font-family="sans-serif" font-size="14" lengthAdjust="spacing" textLength="108" x="298" y="344.1426">calculate( ) : void</text></g><!--MD5=[134b9cca7446078f93ede420e370abf8]
class lcl_tax_calculator_a--><g id="elem_lcl_tax_calculator_a"><rect codeLine="17" fill="#F1F1F1" height="65.6094" id="lcl_tax_calculator_a" rx="2.5" ry="2.5" style="stroke:#181818;stroke-width:0.5;" width="487" x="252" y="159.6094"/><ellipse cx="429.25" cy="175.6094" fill="#ADD1B2" rx="11" ry="11" style="stroke:#181818;stroke-width:1.0;"/><path d="M432.0156,171.4844 Q432.1719,171.2656 432.3594,171.1563 Q432.5469,171.0469 432.7656,171.0469 Q433.1406,171.0469 433.375,171.3125 Q433.6094,171.5625 433.6094,172.1719 L433.6094,173.625 Q433.6094,174.2344 433.375,174.5 Q433.1406,174.7656 432.7656,174.7656 Q432.4219,174.7656 432.2188,174.5625 Q432.0156,174.375 431.9063,173.8594 Q431.8594,173.5 431.6719,173.3125 Q431.3438,172.9375 430.7344,172.7188 Q430.125,172.5 429.5,172.5 Q428.7344,172.5 428.0938,172.8281 Q427.4688,173.1563 426.9688,173.9063 Q426.4844,174.6563 426.4844,175.6875 L426.4844,176.7813 Q426.4844,178.0156 427.375,178.8438 Q428.2656,179.6563 429.8594,179.6563 Q430.7969,179.6563 431.4531,179.4063 Q431.8438,179.25 432.2656,178.8125 Q432.5313,178.5469 432.6719,178.4688 Q432.8281,178.3906 433.0313,178.3906 Q433.3594,178.3906 433.6094,178.6563 Q433.875,178.9063 433.875,179.25 Q433.875,179.5938 433.5313,180 Q433.0313,180.5781 432.2344,180.9063 Q431.1563,181.3594 429.8594,181.3594 Q428.3438,181.3594 427.1406,180.7344 Q426.1563,180.2344 425.4688,179.1719 Q424.7813,178.0938 424.7813,176.8125 L424.7813,175.6563 Q424.7813,174.3281 425.3906,173.1875 Q426.0156,172.0313 427.1094,171.4219 Q428.2031,170.7969 429.4375,170.7969 Q430.1719,170.7969 430.8125,170.9688 Q431.4688,171.125 432.0156,171.4844 Z " fill="#000000"/><text fill="#000000" font-family="sans-serif" font-size="14" lengthAdjust="spacing" textLength="124" x="449.75" y="181.3379">lcl_tax_calculator_a</text><line style="stroke:#181818;stroke-width:0.5;" x1="253" x2="738" y1="191.6094" y2="191.6094"/><line style="stroke:#181818;stroke-width:0.5;" x1="253" x2="738" y1="199.6094" y2="199.6094"/><ellipse cx="263" cy="213.9141" fill="#84BE84" rx="3" ry="3" style="stroke:#038048;stroke-width:1.0;"/><text fill="#000000" font-family="sans-serif" font-size="14" lengthAdjust="spacing" text-decoration="underline" textLength="461" x="272" y="218.1426">make( io_payroll_context : if_hrpaypt_payroll_context ) : lif_tax_calculator</text></g><!--MD5=[760f8194885abe6b0484813323602e5c]
class lcl_tax_calculator--><g id="elem_lcl_tax_calculator"><rect codeLine="21" fill="#F1F1F1" height="100.8281" id="lcl_tax_calculator" rx="2.5" ry="2.5" style="stroke:#181818;stroke-width:0.5;" width="624" x="34.5" y="411.6094"/><ellipse cx="288.25" cy="427.6094" fill="#ADD1B2" rx="11" ry="11" style="stroke:#181818;stroke-width:1.0;"/><path d="M291.0156,423.4844 Q291.1719,423.2656 291.3594,423.1563 Q291.5469,423.0469 291.7656,423.0469 Q292.1406,423.0469 292.375,423.3125 Q292.6094,423.5625 292.6094,424.1719 L292.6094,425.625 Q292.6094,426.2344 292.375,426.5 Q292.1406,426.7656 291.7656,426.7656 Q291.4219,426.7656 291.2188,426.5625 Q291.0156,426.375 290.9063,425.8594 Q290.8594,425.5 290.6719,425.3125 Q290.3438,424.9375 289.7344,424.7188 Q289.125,424.5 288.5,424.5 Q287.7344,424.5 287.0938,424.8281 Q286.4688,425.1563 285.9688,425.9063 Q285.4844,426.6563 285.4844,427.6875 L285.4844,428.7813 Q285.4844,430.0156 286.375,430.8438 Q287.2656,431.6563 288.8594,431.6563 Q289.7969,431.6563 290.4531,431.4063 Q290.8438,431.25 291.2656,430.8125 Q291.5313,430.5469 291.6719,430.4688 Q291.8281,430.3906 292.0313,430.3906 Q292.3594,430.3906 292.6094,430.6563 Q292.875,430.9063 292.875,431.25 Q292.875,431.5938 292.5313,432 Q292.0313,432.5781 291.2344,432.9063 Q290.1563,433.3594 288.8594,433.3594 Q287.3438,433.3594 286.1406,432.7344 Q285.1563,432.2344 284.4688,431.1719 Q283.7813,430.0938 283.7813,428.8125 L283.7813,427.6563 Q283.7813,426.3281 284.3906,425.1875 Q285.0156,424.0313 286.1094,423.4219 Q287.2031,422.7969 288.4375,422.7969 Q289.1719,422.7969 289.8125,422.9688 Q290.4688,423.125 291.0156,423.4844 Z " fill="#000000"/><text fill="#000000" font-family="sans-serif" font-size="14" lengthAdjust="spacing" textLength="108" x="308.75" y="433.3379">lcl_tax_calculator</text><line style="stroke:#181818;stroke-width:0.5;" x1="35.5" x2="657.5" y1="443.6094" y2="443.6094"/><rect fill="none" height="6" style="stroke:#C82930;stroke-width:1.0;" width="6" x="42.5" y="454.9141"/><text fill="#000000" font-family="sans-serif" font-size="14" lengthAdjust="spacing" textLength="300" x="54.5" y="462.1426">mo_payroll_context : if_hrpaypt_payroll_context</text><rect fill="none" height="6" style="stroke:#C82930;stroke-width:1.0;" width="6" x="42.5" y="472.5234"/><text fill="#000000" font-family="sans-serif" font-size="14" lengthAdjust="spacing" textLength="217" x="54.5" y="479.752">mt_wt_calc_rule[] : lif_wt_calc_rule</text><line style="stroke:#181818;stroke-width:0.5;" x1="35.5" x2="657.5" y1="486.8281" y2="486.8281"/><ellipse cx="45.5" cy="501.1328" fill="#84BE84" rx="3" ry="3" style="stroke:#038048;stroke-width:1.0;"/><text fill="#000000" font-family="sans-serif" font-size="14" lengthAdjust="spacing" textLength="598" x="54.5" y="505.3613">constructor( io_payroll_context : if_hrpaypt_payroll_context, it_wt_calc_rule[] : lif_wt_calc_rule )</text></g><!--MD5=[1a5970adfffb22f836aa2e6411cb642a]
class lif_wt_calc_rule--><g id="elem_lif_wt_calc_rule"><rect codeLine="27" fill="#F1F1F1" height="65.6094" id="lif_wt_calc_rule" rx="2.5" ry="2.5" style="stroke:#181818;stroke-width:0.5;" width="147" x="273" y="572.6094"/><ellipse cx="296.55" cy="588.6094" fill="#B4A7E5" rx="11" ry="11" style="stroke:#181818;stroke-width:1.0;"/><path d="M297.5031,585.25 L297.5031,591.9063 L299.2219,591.9063 Q299.8313,591.9063 300.0969,592.1406 Q300.3625,592.375 300.3625,592.7656 Q300.3625,593.1406 300.0969,593.375 Q299.8313,593.6094 299.2219,593.6094 L294.0813,593.6094 Q293.4719,593.6094 293.2063,593.375 Q292.9406,593.1406 292.9406,592.75 Q292.9406,592.375 293.2063,592.1406 Q293.4719,591.9063 294.0813,591.9063 L295.8,591.9063 L295.8,585.25 L294.0813,585.25 Q293.4719,585.25 293.2063,585.0156 Q292.9406,584.7813 292.9406,584.3906 Q292.9406,584.0156 293.2063,583.7813 Q293.4719,583.5469 294.0813,583.5469 L299.2219,583.5469 Q299.8313,583.5469 300.0969,583.7813 Q300.3625,584.0156 300.3625,584.3906 Q300.3625,584.7813 300.0969,585.0156 Q299.8313,585.25 299.2219,585.25 L297.5031,585.25 Z " fill="#000000"/><text fill="#000000" font-family="sans-serif" font-size="14" font-style="italic" lengthAdjust="spacing" textLength="96" x="312.45" y="594.3379">lif_wt_calc_rule</text><line style="stroke:#181818;stroke-width:0.5;" x1="274" x2="419" y1="604.6094" y2="604.6094"/><line style="stroke:#181818;stroke-width:0.5;" x1="274" x2="419" y1="612.6094" y2="612.6094"/><ellipse cx="284" cy="626.9141" fill="#84BE84" rx="3" ry="3" style="stroke:#038048;stroke-width:1.0;"/><text fill="#000000" font-family="sans-serif" font-size="14" lengthAdjust="spacing" textLength="121" x="293" y="631.1426">calculate( ) : pc207</text></g><!--MD5=[f95c0a5f667eea5798a2a2b13f7c3614]
class lcl_base_calculator--><g id="elem_lcl_base_calculator"><rect codeLine="31" fill="#F1F1F1" height="118.4375" id="lcl_base_calculator" rx="2.5" ry="2.5" style="stroke:#181818;stroke-width:0.5;" width="640" x="26.5" y="698.6094"/><ellipse cx="281.75" cy="714.6094" fill="#ADD1B2" rx="11" ry="11" style="stroke:#181818;stroke-width:1.0;"/><path d="M284.5156,710.4844 Q284.6719,710.2656 284.8594,710.1563 Q285.0469,710.0469 285.2656,710.0469 Q285.6406,710.0469 285.875,710.3125 Q286.1094,710.5625 286.1094,711.1719 L286.1094,712.625 Q286.1094,713.2344 285.875,713.5 Q285.6406,713.7656 285.2656,713.7656 Q284.9219,713.7656 284.7188,713.5625 Q284.5156,713.375 284.4063,712.8594 Q284.3594,712.5 284.1719,712.3125 Q283.8438,711.9375 283.2344,711.7188 Q282.625,711.5 282,711.5 Q281.2344,711.5 280.5938,711.8281 Q279.9688,712.1563 279.4688,712.9063 Q278.9844,713.6563 278.9844,714.6875 L278.9844,715.7813 Q278.9844,717.0156 279.875,717.8438 Q280.7656,718.6563 282.3594,718.6563 Q283.2969,718.6563 283.9531,718.4063 Q284.3438,718.25 284.7656,717.8125 Q285.0313,717.5469 285.1719,717.4688 Q285.3281,717.3906 285.5313,717.3906 Q285.8594,717.3906 286.1094,717.6563 Q286.375,717.9063 286.375,718.25 Q286.375,718.5938 286.0313,719 Q285.5313,719.5781 284.7344,719.9063 Q283.6563,720.3594 282.3594,720.3594 Q280.8438,720.3594 279.6406,719.7344 Q278.6563,719.2344 277.9688,718.1719 Q277.2813,717.0938 277.2813,715.8125 L277.2813,714.6563 Q277.2813,713.3281 277.8906,712.1875 Q278.5156,711.0313 279.6094,710.4219 Q280.7031,709.7969 281.9375,709.7969 Q282.6719,709.7969 283.3125,709.9688 Q283.9688,710.125 284.5156,710.4844 Z " fill="#000000"/><text fill="#000000" font-family="sans-serif" font-size="14" lengthAdjust="spacing" textLength="121" x="302.25" y="720.3379">lcl_base_calculator</text><line style="stroke:#181818;stroke-width:0.5;" x1="27.5" x2="665.5" y1="730.6094" y2="730.6094"/><rect fill="none" height="6" style="stroke:#C82930;stroke-width:1.0;" width="6" x="34.5" y="741.9141"/><text fill="#000000" font-family="sans-serif" font-size="14" lengthAdjust="spacing" textLength="300" x="46.5" y="749.1426">mo_payroll_context : if_hrpaypt_payroll_context</text><rect fill="none" height="6" style="stroke:#C82930;stroke-width:1.0;" width="6" x="34.5" y="759.5234"/><text fill="#000000" font-family="sans-serif" font-size="14" lengthAdjust="spacing" textLength="233" x="46.5" y="766.752">mo_base_getter_f : lif_base_getter_f</text><line style="stroke:#181818;stroke-width:0.5;" x1="27.5" x2="665.5" y1="773.8281" y2="773.8281"/><rect fill="#F24D5C" height="6" style="stroke:#C82930;stroke-width:1.0;" width="6" x="34.5" y="785.1328"/><text fill="#000000" font-family="sans-serif" font-size="14" lengthAdjust="spacing" textLength="223" x="46.5" y="792.3613">calculate( iv_base : maxbt ) : pc207</text><ellipse cx="37.5" cy="805.7422" fill="#84BE84" rx="3" ry="3" style="stroke:#038048;stroke-width:1.0;"/><text fill="#000000" font-family="sans-serif" font-size="14" lengthAdjust="spacing" textLength="614" x="46.5" y="809.9707">constructor( io_payroll_context : if_hrpaypt_payroll_context, io_base_getter_f : lif_base_getter_f )</text></g><!--MD5=[28f034854d9976fd1e3b65be5cd7c51f]
class lif_base_getter--><g id="elem_lif_base_getter"><rect codeLine="38" fill="#F1F1F1" height="65.6094" id="lif_base_getter" rx="2.5" ry="2.5" style="stroke:#181818;stroke-width:0.5;" width="126" x="283.5" y="876.6094"/><ellipse cx="298.5" cy="892.6094" fill="#B4A7E5" rx="11" ry="11" style="stroke:#181818;stroke-width:1.0;"/><path d="M299.4531,889.25 L299.4531,895.9063 L301.1719,895.9063 Q301.7813,895.9063 302.0469,896.1406 Q302.3125,896.375 302.3125,896.7656 Q302.3125,897.1406 302.0469,897.375 Q301.7813,897.6094 301.1719,897.6094 L296.0313,897.6094 Q295.4219,897.6094 295.1563,897.375 Q294.8906,897.1406 294.8906,896.75 Q294.8906,896.375 295.1563,896.1406 Q295.4219,895.9063 296.0313,895.9063 L297.75,895.9063 L297.75,889.25 L296.0313,889.25 Q295.4219,889.25 295.1563,889.0156 Q294.8906,888.7813 294.8906,888.3906 Q294.8906,888.0156 295.1563,887.7813 Q295.4219,887.5469 296.0313,887.5469 L301.1719,887.5469 Q301.7813,887.5469 302.0469,887.7813 Q302.3125,888.0156 302.3125,888.3906 Q302.3125,888.7813 302.0469,889.0156 Q301.7813,889.25 301.1719,889.25 L299.4531,889.25 Z " fill="#000000"/><text fill="#000000" font-family="sans-serif" font-size="14" font-style="italic" lengthAdjust="spacing" textLength="94" x="312.5" y="898.3379">lif_base_getter</text><line style="stroke:#181818;stroke-width:0.5;" x1="284.5" x2="408.5" y1="908.6094" y2="908.6094"/><line style="stroke:#181818;stroke-width:0.5;" x1="284.5" x2="408.5" y1="916.6094" y2="916.6094"/><text fill="#000000" font-family="sans-serif" font-size="14" lengthAdjust="spacing" textLength="79" x="289.5" y="935.1426">get() : maxbt</text></g><!--MD5=[b35c644066f3b533751ead473db51a9d]
class lcl_cumulation_base_getter--><g id="elem_lcl_cumulation_base_getter"><rect codeLine="41" fill="#F1F1F1" height="83.2188" id="lcl_cumulation_base_getter" rx="2.5" ry="2.5" style="stroke:#181818;stroke-width:0.5;" width="407" x="7" y="1879.6094"/><ellipse cx="119.75" cy="1895.6094" fill="#ADD1B2" rx="11" ry="11" style="stroke:#181818;stroke-width:1.0;"/><path d="M122.5156,1891.4844 Q122.6719,1891.2656 122.8594,1891.1563 Q123.0469,1891.0469 123.2656,1891.0469 Q123.6406,1891.0469 123.875,1891.3125 Q124.1094,1891.5625 124.1094,1892.1719 L124.1094,1893.625 Q124.1094,1894.2344 123.875,1894.5 Q123.6406,1894.7656 123.2656,1894.7656 Q122.9219,1894.7656 122.7188,1894.5625 Q122.5156,1894.375 122.4063,1893.8594 Q122.3594,1893.5 122.1719,1893.3125 Q121.8438,1892.9375 121.2344,1892.7188 Q120.625,1892.5 120,1892.5 Q119.2344,1892.5 118.5938,1892.8281 Q117.9688,1893.1563 117.4688,1893.9063 Q116.9844,1894.6563 116.9844,1895.6875 L116.9844,1896.7813 Q116.9844,1898.0156 117.875,1898.8438 Q118.7656,1899.6563 120.3594,1899.6563 Q121.2969,1899.6563 121.9531,1899.4063 Q122.3438,1899.25 122.7656,1898.8125 Q123.0313,1898.5469 123.1719,1898.4688 Q123.3281,1898.3906 123.5313,1898.3906 Q123.8594,1898.3906 124.1094,1898.6563 Q124.375,1898.9063 124.375,1899.25 Q124.375,1899.5938 124.0313,1900 Q123.5313,1900.5781 122.7344,1900.9063 Q121.6563,1901.3594 120.3594,1901.3594 Q118.8438,1901.3594 117.6406,1900.7344 Q116.6563,1900.2344 115.9688,1899.1719 Q115.2813,1898.0938 115.2813,1896.8125 L115.2813,1895.6563 Q115.2813,1894.3281 115.8906,1893.1875 Q116.5156,1892.0313 117.6094,1891.4219 Q118.7031,1890.7969 119.9375,1890.7969 Q120.6719,1890.7969 121.3125,1890.9688 Q121.9688,1891.125 122.5156,1891.4844 Z " fill="#000000"/><text fill="#000000" font-family="sans-serif" font-size="14" lengthAdjust="spacing" textLength="173" x="140.25" y="1901.3379">lcl_cumulation_base_getter</text><line style="stroke:#181818;stroke-width:0.5;" x1="8" x2="413" y1="1911.6094" y2="1911.6094"/><rect fill="none" height="6" style="stroke:#C82930;stroke-width:1.0;" width="6" x="15" y="1922.9141"/><text fill="#000000" font-family="sans-serif" font-size="14" lengthAdjust="spacing" textLength="300" x="27" y="1930.1426">mo_payroll_context : if_hrpaypt_payroll_context</text><line style="stroke:#181818;stroke-width:0.5;" x1="8" x2="413" y1="1937.2188" y2="1937.2188"/><ellipse cx="18" cy="1951.5234" fill="#84BE84" rx="3" ry="3" style="stroke:#038048;stroke-width:1.0;"/><text fill="#000000" font-family="sans-serif" font-size="14" lengthAdjust="spacing" textLength="381" x="27" y="1955.752">constructor( io_payroll_context : if_hrpaypt_payroll_context )</text></g><!--MD5=[dfd3d8848af48442d70c1a5ba373c5f1]
class lcl_limit_getter--><g id="elem_lcl_limit_getter"><rect codeLine="46" fill="#F1F1F1" height="83.2188" id="lcl_limit_getter" rx="2.5" ry="2.5" style="stroke:#181818;stroke-width:0.5;" width="368" x="369.5" y="1002.6094"/><ellipse cx="504.25" cy="1018.6094" fill="#ADD1B2" rx="11" ry="11" style="stroke:#181818;stroke-width:1.0;"/><path d="M507.0156,1014.4844 Q507.1719,1014.2656 507.3594,1014.1563 Q507.5469,1014.0469 507.7656,1014.0469 Q508.1406,1014.0469 508.375,1014.3125 Q508.6094,1014.5625 508.6094,1015.1719 L508.6094,1016.625 Q508.6094,1017.2344 508.375,1017.5 Q508.1406,1017.7656 507.7656,1017.7656 Q507.4219,1017.7656 507.2188,1017.5625 Q507.0156,1017.375 506.9063,1016.8594 Q506.8594,1016.5 506.6719,1016.3125 Q506.3438,1015.9375 505.7344,1015.7188 Q505.125,1015.5 504.5,1015.5 Q503.7344,1015.5 503.0938,1015.8281 Q502.4688,1016.1563 501.9688,1016.9063 Q501.4844,1017.6563 501.4844,1018.6875 L501.4844,1019.7813 Q501.4844,1021.0156 502.375,1021.8438 Q503.2656,1022.6563 504.8594,1022.6563 Q505.7969,1022.6563 506.4531,1022.4063 Q506.8438,1022.25 507.2656,1021.8125 Q507.5313,1021.5469 507.6719,1021.4688 Q507.8281,1021.3906 508.0313,1021.3906 Q508.3594,1021.3906 508.6094,1021.6563 Q508.875,1021.9063 508.875,1022.25 Q508.875,1022.5938 508.5313,1023 Q508.0313,1023.5781 507.2344,1023.9063 Q506.1563,1024.3594 504.8594,1024.3594 Q503.3438,1024.3594 502.1406,1023.7344 Q501.1563,1023.2344 500.4688,1022.1719 Q499.7813,1021.0938 499.7813,1019.8125 L499.7813,1018.6563 Q499.7813,1017.3281 500.3906,1016.1875 Q501.0156,1015.0313 502.1094,1014.4219 Q503.2031,1013.7969 504.4375,1013.7969 Q505.1719,1013.7969 505.8125,1013.9688 Q506.4688,1014.125 507.0156,1014.4844 Z " fill="#000000"/><text fill="#000000" font-family="sans-serif" font-size="14" lengthAdjust="spacing" textLength="90" x="524.75" y="1024.3379">lcl_limit_getter</text><line style="stroke:#181818;stroke-width:0.5;" x1="370.5" x2="736.5" y1="1034.6094" y2="1034.6094"/><rect fill="none" height="6" style="stroke:#C82930;stroke-width:1.0;" width="6" x="377.5" y="1045.9141"/><text fill="#000000" font-family="sans-serif" font-size="14" lengthAdjust="spacing" textLength="261" x="389.5" y="1053.1426">mo_table_processor : lif_table_processor</text><line style="stroke:#181818;stroke-width:0.5;" x1="370.5" x2="736.5" y1="1060.2188" y2="1060.2188"/><ellipse cx="380.5" cy="1074.5234" fill="#84BE84" rx="3" ry="3" style="stroke:#038048;stroke-width:1.0;"/><text fill="#000000" font-family="sans-serif" font-size="14" lengthAdjust="spacing" textLength="342" x="389.5" y="1078.752">constructor( io_table_processor : lif_table_processor )</text></g><!--MD5=[9242f07fb2d4a23ee50838214d894db6]
class lif_table_processor--><g id="elem_lif_table_processor"><rect codeLine="51" fill="#F1F1F1" height="65.6094" id="lif_table_processor" rx="2.5" ry="2.5" style="stroke:#181818;stroke-width:0.5;" width="152" x="521.5" y="1145.6094"/><ellipse cx="536.5" cy="1161.6094" fill="#B4A7E5" rx="11" ry="11" style="stroke:#181818;stroke-width:1.0;"/><path d="M537.4531,1158.25 L537.4531,1164.9063 L539.1719,1164.9063 Q539.7813,1164.9063 540.0469,1165.1406 Q540.3125,1165.375 540.3125,1165.7656 Q540.3125,1166.1406 540.0469,1166.375 Q539.7813,1166.6094 539.1719,1166.6094 L534.0313,1166.6094 Q533.4219,1166.6094 533.1563,1166.375 Q532.8906,1166.1406 532.8906,1165.75 Q532.8906,1165.375 533.1563,1165.1406 Q533.4219,1164.9063 534.0313,1164.9063 L535.75,1164.9063 L535.75,1158.25 L534.0313,1158.25 Q533.4219,1158.25 533.1563,1158.0156 Q532.8906,1157.7813 532.8906,1157.3906 Q532.8906,1157.0156 533.1563,1156.7813 Q533.4219,1156.5469 534.0313,1156.5469 L539.1719,1156.5469 Q539.7813,1156.5469 540.0469,1156.7813 Q540.3125,1157.0156 540.3125,1157.3906 Q540.3125,1157.7813 540.0469,1158.0156 Q539.7813,1158.25 539.1719,1158.25 L537.4531,1158.25 Z " fill="#000000"/><text fill="#000000" font-family="sans-serif" font-size="14" font-style="italic" lengthAdjust="spacing" textLength="120" x="550.5" y="1167.3379">lif_table_processor</text><line style="stroke:#181818;stroke-width:0.5;" x1="522.5" x2="672.5" y1="1177.6094" y2="1177.6094"/><line style="stroke:#181818;stroke-width:0.5;" x1="522.5" x2="672.5" y1="1185.6094" y2="1185.6094"/><ellipse cx="532.5" cy="1199.9141" fill="#84BE84" rx="3" ry="3" style="stroke:#038048;stroke-width:1.0;"/><text fill="#000000" font-family="sans-serif" font-size="14" lengthAdjust="spacing" textLength="113" x="541.5" y="1204.1426">process( ) : maxbt</text></g><!--MD5=[ecfc525061d20afe5085415d9b5e5ed8]
class lcl_table_processor--><g id="elem_lcl_table_processor"><rect codeLine="55" fill="#F1F1F1" height="100.8281" id="lcl_table_processor" rx="2.5" ry="2.5" style="stroke:#181818;stroke-width:0.5;" width="703" x="291" y="1271.6094"/><ellipse cx="576.75" cy="1287.6094" fill="#ADD1B2" rx="11" ry="11" style="stroke:#181818;stroke-width:1.0;"/><path d="M579.5156,1283.4844 Q579.6719,1283.2656 579.8594,1283.1563 Q580.0469,1283.0469 580.2656,1283.0469 Q580.6406,1283.0469 580.875,1283.3125 Q581.1094,1283.5625 581.1094,1284.1719 L581.1094,1285.625 Q581.1094,1286.2344 580.875,1286.5 Q580.6406,1286.7656 580.2656,1286.7656 Q579.9219,1286.7656 579.7188,1286.5625 Q579.5156,1286.375 579.4063,1285.8594 Q579.3594,1285.5 579.1719,1285.3125 Q578.8438,1284.9375 578.2344,1284.7188 Q577.625,1284.5 577,1284.5 Q576.2344,1284.5 575.5938,1284.8281 Q574.9688,1285.1563 574.4688,1285.9063 Q573.9844,1286.6563 573.9844,1287.6875 L573.9844,1288.7813 Q573.9844,1290.0156 574.875,1290.8438 Q575.7656,1291.6563 577.3594,1291.6563 Q578.2969,1291.6563 578.9531,1291.4063 Q579.3438,1291.25 579.7656,1290.8125 Q580.0313,1290.5469 580.1719,1290.4688 Q580.3281,1290.3906 580.5313,1290.3906 Q580.8594,1290.3906 581.1094,1290.6563 Q581.375,1290.9063 581.375,1291.25 Q581.375,1291.5938 581.0313,1292 Q580.5313,1292.5781 579.7344,1292.9063 Q578.6563,1293.3594 577.3594,1293.3594 Q575.8438,1293.3594 574.6406,1292.7344 Q573.6563,1292.2344 572.9688,1291.1719 Q572.2813,1290.0938 572.2813,1288.8125 L572.2813,1287.6563 Q572.2813,1286.3281 572.8906,1285.1875 Q573.5156,1284.0313 574.6094,1283.4219 Q575.7031,1282.7969 576.9375,1282.7969 Q577.6719,1282.7969 578.3125,1282.9688 Q578.9688,1283.125 579.5156,1283.4844 Z " fill="#000000"/><text fill="#000000" font-family="sans-serif" font-size="14" lengthAdjust="spacing" textLength="123" x="597.25" y="1293.3379">lcl_table_processor</text><line style="stroke:#181818;stroke-width:0.5;" x1="292" x2="993" y1="1303.6094" y2="1303.6094"/><rect fill="none" height="6" style="stroke:#C82930;stroke-width:1.0;" width="6" x="299" y="1314.9141"/><text fill="#000000" font-family="sans-serif" font-size="14" lengthAdjust="spacing" textLength="296" x="311" y="1322.1426">mo_base_full_hours : lif_base_calculation_rule</text><rect fill="none" height="6" style="stroke:#C82930;stroke-width:1.0;" width="6" x="299" y="1332.5234"/><text fill="#000000" font-family="sans-serif" font-size="14" lengthAdjust="spacing" textLength="300" x="311" y="1339.752">mo_payroll_context : if_hrpaypt_payroll_context</text><line style="stroke:#181818;stroke-width:0.5;" x1="292" x2="993" y1="1346.8281" y2="1346.8281"/><ellipse cx="302" cy="1361.1328" fill="#84BE84" rx="3" ry="3" style="stroke:#038048;stroke-width:1.0;"/><text fill="#000000" font-family="sans-serif" font-size="14" lengthAdjust="spacing" textLength="677" x="311" y="1365.3613">constructor( io_base_full_hours : lif_base_calculation_rule, io_payroll_context : if_hrpaypt_payroll_context )</text></g><!--MD5=[2d72d8bc5b335f0e0e2be77e12418732]
class lif_base_calculation_rule--><g id="elem_lif_base_calculation_rule"><rect codeLine="61" fill="#F1F1F1" height="65.6094" id="lif_base_calculation_rule" rx="2.5" ry="2.5" style="stroke:#181818;stroke-width:0.5;" width="471" x="409" y="1432.6094"/><ellipse cx="562.25" cy="1448.6094" fill="#B4A7E5" rx="11" ry="11" style="stroke:#181818;stroke-width:1.0;"/><path d="M563.2031,1445.25 L563.2031,1451.9063 L564.9219,1451.9063 Q565.5313,1451.9063 565.7969,1452.1406 Q566.0625,1452.375 566.0625,1452.7656 Q566.0625,1453.1406 565.7969,1453.375 Q565.5313,1453.6094 564.9219,1453.6094 L559.7813,1453.6094 Q559.1719,1453.6094 558.9063,1453.375 Q558.6406,1453.1406 558.6406,1452.75 Q558.6406,1452.375 558.9063,1452.1406 Q559.1719,1451.9063 559.7813,1451.9063 L561.5,1451.9063 L561.5,1445.25 L559.7813,1445.25 Q559.1719,1445.25 558.9063,1445.0156 Q558.6406,1444.7813 558.6406,1444.3906 Q558.6406,1444.0156 558.9063,1443.7813 Q559.1719,1443.5469 559.7813,1443.5469 L564.9219,1443.5469 Q565.5313,1443.5469 565.7969,1443.7813 Q566.0625,1444.0156 566.0625,1444.3906 Q566.0625,1444.7813 565.7969,1445.0156 Q565.5313,1445.25 564.9219,1445.25 L563.2031,1445.25 Z " fill="#000000"/><text fill="#000000" font-family="sans-serif" font-size="14" font-style="italic" lengthAdjust="spacing" textLength="156" x="582.75" y="1454.3379">lif_base_calculation_rule</text><line style="stroke:#181818;stroke-width:0.5;" x1="410" x2="879" y1="1464.6094" y2="1464.6094"/><line style="stroke:#181818;stroke-width:0.5;" x1="410" x2="879" y1="1472.6094" y2="1472.6094"/><ellipse cx="420" cy="1486.9141" fill="#84BE84" rx="3" ry="3" style="stroke:#038048;stroke-width:1.0;"/><text fill="#000000" font-family="sans-serif" font-size="14" lengthAdjust="spacing" textLength="445" x="429" y="1491.1426">calculate( io_base_e : lif_base_e, is_current_overtime : PC2BF ) : void</text></g><!--MD5=[d9fc040ab55b946196bf0f4c24aea37e]
class lcl_base_full_hours--><g id="elem_lcl_base_full_hours"><rect codeLine="65" fill="#F1F1F1" height="100.8281" id="lcl_base_full_hours" rx="2.5" ry="2.5" style="stroke:#181818;stroke-width:0.5;" width="694" x="297.5" y="1567.1094"/><ellipse cx="579.25" cy="1583.1094" fill="#ADD1B2" rx="11" ry="11" style="stroke:#181818;stroke-width:1.0;"/><path d="M582.0156,1578.9844 Q582.1719,1578.7656 582.3594,1578.6563 Q582.5469,1578.5469 582.7656,1578.5469 Q583.1406,1578.5469 583.375,1578.8125 Q583.6094,1579.0625 583.6094,1579.6719 L583.6094,1581.125 Q583.6094,1581.7344 583.375,1582 Q583.1406,1582.2656 582.7656,1582.2656 Q582.4219,1582.2656 582.2188,1582.0625 Q582.0156,1581.875 581.9063,1581.3594 Q581.8594,1581 581.6719,1580.8125 Q581.3438,1580.4375 580.7344,1580.2188 Q580.125,1580 579.5,1580 Q578.7344,1580 578.0938,1580.3281 Q577.4688,1580.6563 576.9688,1581.4063 Q576.4844,1582.1563 576.4844,1583.1875 L576.4844,1584.2813 Q576.4844,1585.5156 577.375,1586.3438 Q578.2656,1587.1563 579.8594,1587.1563 Q580.7969,1587.1563 581.4531,1586.9063 Q581.8438,1586.75 582.2656,1586.3125 Q582.5313,1586.0469 582.6719,1585.9688 Q582.8281,1585.8906 583.0313,1585.8906 Q583.3594,1585.8906 583.6094,1586.1563 Q583.875,1586.4063 583.875,1586.75 Q583.875,1587.0938 583.5313,1587.5 Q583.0313,1588.0781 582.2344,1588.4063 Q581.1563,1588.8594 579.8594,1588.8594 Q578.3438,1588.8594 577.1406,1588.2344 Q576.1563,1587.7344 575.4688,1586.6719 Q574.7813,1585.5938 574.7813,1584.3125 L574.7813,1583.1563 Q574.7813,1581.8281 575.3906,1580.6875 Q576.0156,1579.5313 577.1094,1578.9219 Q578.2031,1578.2969 579.4375,1578.2969 Q580.1719,1578.2969 580.8125,1578.4688 Q581.4688,1578.625 582.0156,1578.9844 Z " fill="#000000"/><text fill="#000000" font-family="sans-serif" font-size="14" lengthAdjust="spacing" textLength="122" x="599.75" y="1588.8379">lcl_base_full_hours</text><line style="stroke:#181818;stroke-width:0.5;" x1="298.5" x2="990.5" y1="1599.1094" y2="1599.1094"/><rect fill="none" height="6" style="stroke:#C82930;stroke-width:1.0;" width="6" x="305.5" y="1610.4141"/><text fill="#000000" font-family="sans-serif" font-size="14" lengthAdjust="spacing" textLength="300" x="317.5" y="1617.6426">mo_payroll_context : if_hrpaypt_payroll_context</text><rect fill="none" height="6" style="stroke:#C82930;stroke-width:1.0;" width="6" x="305.5" y="1628.0234"/><text fill="#000000" font-family="sans-serif" font-size="14" lengthAdjust="spacing" textLength="287" x="317.5" y="1635.252">mo_basic_hour_getter : lif_basic_hour_getter</text><line style="stroke:#181818;stroke-width:0.5;" x1="298.5" x2="990.5" y1="1642.3281" y2="1642.3281"/><ellipse cx="308.5" cy="1656.6328" fill="#84BE84" rx="3" ry="3" style="stroke:#038048;stroke-width:1.0;"/><text fill="#000000" font-family="sans-serif" font-size="14" lengthAdjust="spacing" textLength="668" x="317.5" y="1660.8613">constructor( io_payroll_context : if_hrpaypt_payroll_context, io_basic_hour_getter : lif_basic_hour_getter )</text></g><!--MD5=[04202e770d520df644113871d915c29b]
class lif_basic_hour_getter--><g id="elem_lif_basic_hour_getter"><rect codeLine="71" fill="#F1F1F1" height="65.6094" id="lif_basic_hour_getter" rx="2.5" ry="2.5" style="stroke:#181818;stroke-width:0.5;" width="165" x="567" y="1745.1094"/><ellipse cx="582" cy="1761.1094" fill="#B4A7E5" rx="11" ry="11" style="stroke:#181818;stroke-width:1.0;"/><path d="M582.9531,1757.75 L582.9531,1764.4063 L584.6719,1764.4063 Q585.2813,1764.4063 585.5469,1764.6406 Q585.8125,1764.875 585.8125,1765.2656 Q585.8125,1765.6406 585.5469,1765.875 Q585.2813,1766.1094 584.6719,1766.1094 L579.5313,1766.1094 Q578.9219,1766.1094 578.6563,1765.875 Q578.3906,1765.6406 578.3906,1765.25 Q578.3906,1764.875 578.6563,1764.6406 Q578.9219,1764.4063 579.5313,1764.4063 L581.25,1764.4063 L581.25,1757.75 L579.5313,1757.75 Q578.9219,1757.75 578.6563,1757.5156 Q578.3906,1757.2813 578.3906,1756.8906 Q578.3906,1756.5156 578.6563,1756.2813 Q578.9219,1756.0469 579.5313,1756.0469 L584.6719,1756.0469 Q585.2813,1756.0469 585.5469,1756.2813 Q585.8125,1756.5156 585.8125,1756.8906 Q585.8125,1757.2813 585.5469,1757.5156 Q585.2813,1757.75 584.6719,1757.75 L582.9531,1757.75 Z " fill="#000000"/><text fill="#000000" font-family="sans-serif" font-size="14" font-style="italic" lengthAdjust="spacing" textLength="133" x="596" y="1766.8379">lif_basic_hour_getter</text><line style="stroke:#181818;stroke-width:0.5;" x1="568" x2="731" y1="1777.1094" y2="1777.1094"/><line style="stroke:#181818;stroke-width:0.5;" x1="568" x2="731" y1="1785.1094" y2="1785.1094"/><ellipse cx="578" cy="1799.4141" fill="#84BE84" rx="3" ry="3" style="stroke:#038048;stroke-width:1.0;"/><text fill="#000000" font-family="sans-serif" font-size="14" lengthAdjust="spacing" textLength="85" x="587" y="1803.6426">get( ) : pc207</text></g><!--MD5=[ed7796f05ac1e1bfdf2e3f60065de23a]
class lcl_basic_hour_getter--><g id="elem_lcl_basic_hour_getter"><rect codeLine="75" fill="#F1F1F1" height="83.2188" id="lcl_basic_hour_getter" rx="2.5" ry="2.5" style="stroke:#181818;stroke-width:0.5;" width="407" x="449" y="1879.6094"/><ellipse cx="580.25" cy="1895.6094" fill="#ADD1B2" rx="11" ry="11" style="stroke:#181818;stroke-width:1.0;"/><path d="M583.0156,1891.4844 Q583.1719,1891.2656 583.3594,1891.1563 Q583.5469,1891.0469 583.7656,1891.0469 Q584.1406,1891.0469 584.375,1891.3125 Q584.6094,1891.5625 584.6094,1892.1719 L584.6094,1893.625 Q584.6094,1894.2344 584.375,1894.5 Q584.1406,1894.7656 583.7656,1894.7656 Q583.4219,1894.7656 583.2188,1894.5625 Q583.0156,1894.375 582.9063,1893.8594 Q582.8594,1893.5 582.6719,1893.3125 Q582.3438,1892.9375 581.7344,1892.7188 Q581.125,1892.5 580.5,1892.5 Q579.7344,1892.5 579.0938,1892.8281 Q578.4688,1893.1563 577.9688,1893.9063 Q577.4844,1894.6563 577.4844,1895.6875 L577.4844,1896.7813 Q577.4844,1898.0156 578.375,1898.8438 Q579.2656,1899.6563 580.8594,1899.6563 Q581.7969,1899.6563 582.4531,1899.4063 Q582.8438,1899.25 583.2656,1898.8125 Q583.5313,1898.5469 583.6719,1898.4688 Q583.8281,1898.3906 584.0313,1898.3906 Q584.3594,1898.3906 584.6094,1898.6563 Q584.875,1898.9063 584.875,1899.25 Q584.875,1899.5938 584.5313,1900 Q584.0313,1900.5781 583.2344,1900.9063 Q582.1563,1901.3594 580.8594,1901.3594 Q579.3438,1901.3594 578.1406,1900.7344 Q577.1563,1900.2344 576.4688,1899.1719 Q575.7813,1898.0938 575.7813,1896.8125 L575.7813,1895.6563 Q575.7813,1894.3281 576.3906,1893.1875 Q577.0156,1892.0313 578.1094,1891.4219 Q579.2031,1890.7969 580.4375,1890.7969 Q581.1719,1890.7969 581.8125,1890.9688 Q582.4688,1891.125 583.0156,1891.4844 Z " fill="#000000"/><text fill="#000000" font-family="sans-serif" font-size="14" lengthAdjust="spacing" textLength="136" x="600.75" y="1901.3379">lcl_basic_hour_getter</text><line style="stroke:#181818;stroke-width:0.5;" x1="450" x2="855" y1="1911.6094" y2="1911.6094"/><rect fill="none" height="6" style="stroke:#C82930;stroke-width:1.0;" width="6" x="457" y="1922.9141"/><text fill="#000000" font-family="sans-serif" font-size="14" lengthAdjust="spacing" textLength="300" x="469" y="1930.1426">mo_payroll_context : if_hrpaypt_payroll_context</text><line style="stroke:#181818;stroke-width:0.5;" x1="450" x2="855" y1="1937.2188" y2="1937.2188"/><ellipse cx="460" cy="1951.5234" fill="#84BE84" rx="3" ry="3" style="stroke:#038048;stroke-width:1.0;"/><text fill="#000000" font-family="sans-serif" font-size="14" lengthAdjust="spacing" textLength="381" x="469" y="1955.752">constructor( io_payroll_context : if_hrpaypt_payroll_context )</text></g><!--MD5=[fe8d5807414c5ea0730c8f0c20b0f3f1]
class lif_base_e--><g id="elem_lif_base_e"><rect codeLine="80" fill="#F1F1F1" height="118.4375" id="lif_base_e" rx="2.5" ry="2.5" style="stroke:#181818;stroke-width:0.5;" width="308" x="1026.5" y="1558.6094"/><ellipse cx="1143.75" cy="1574.6094" fill="#B4A7E5" rx="11" ry="11" style="stroke:#181818;stroke-width:1.0;"/><path d="M1144.7031,1571.25 L1144.7031,1577.9063 L1146.4219,1577.9063 Q1147.0313,1577.9063 1147.2969,1578.1406 Q1147.5625,1578.375 1147.5625,1578.7656 Q1147.5625,1579.1406 1147.2969,1579.375 Q1147.0313,1579.6094 1146.4219,1579.6094 L1141.2813,1579.6094 Q1140.6719,1579.6094 1140.4063,1579.375 Q1140.1406,1579.1406 1140.1406,1578.75 Q1140.1406,1578.375 1140.4063,1578.1406 Q1140.6719,1577.9063 1141.2813,1577.9063 L1143,1577.9063 L1143,1571.25 L1141.2813,1571.25 Q1140.6719,1571.25 1140.4063,1571.0156 Q1140.1406,1570.7813 1140.1406,1570.3906 Q1140.1406,1570.0156 1140.4063,1569.7813 Q1140.6719,1569.5469 1141.2813,1569.5469 L1146.4219,1569.5469 Q1147.0313,1569.5469 1147.2969,1569.7813 Q1147.5625,1570.0156 1147.5625,1570.3906 Q1147.5625,1570.7813 1147.2969,1571.0156 Q1147.0313,1571.25 1146.4219,1571.25 L1144.7031,1571.25 Z " fill="#000000"/><text fill="#000000" font-family="sans-serif" font-size="14" font-style="italic" lengthAdjust="spacing" textLength="65" x="1164.25" y="1580.3379">lif_base_e</text><line style="stroke:#181818;stroke-width:0.5;" x1="1027.5" x2="1333.5" y1="1590.6094" y2="1590.6094"/><line style="stroke:#181818;stroke-width:0.5;" x1="1027.5" x2="1333.5" y1="1598.6094" y2="1598.6094"/><ellipse cx="1037.5" cy="1612.9141" fill="#84BE84" rx="3" ry="3" style="stroke:#038048;stroke-width:1.0;"/><text fill="#000000" font-family="sans-serif" font-size="14" lengthAdjust="spacing" textLength="161" x="1046.5" y="1617.1426">get_cumulator( ) : p_suml</text><ellipse cx="1037.5" cy="1630.5234" fill="#84BE84" rx="3" ry="3" style="stroke:#038048;stroke-width:1.0;"/><text fill="#000000" font-family="sans-serif" font-size="14" lengthAdjust="spacing" textLength="122" x="1046.5" y="1634.752">get_base( ) : maxbt</text><ellipse cx="1037.5" cy="1648.1328" fill="#84BE84" rx="3" ry="3" style="stroke:#038048;stroke-width:1.0;"/><text fill="#000000" font-family="sans-serif" font-size="14" lengthAdjust="spacing" textLength="282" x="1046.5" y="1652.3613">set_cumulator( iv_cumulator : p_suml ) : void</text><ellipse cx="1037.5" cy="1665.7422" fill="#84BE84" rx="3" ry="3" style="stroke:#038048;stroke-width:1.0;"/><text fill="#000000" font-family="sans-serif" font-size="14" lengthAdjust="spacing" textLength="212" x="1046.5" y="1669.9707">set_base( iv_base : maxbt ) : void</text></g><!--MD5=[9ad98daf1cb7e6a6fb7240d29e300717]
class lcl_base_e--><g id="elem_lcl_base_e"><rect codeLine="87" fill="#F1F1F1" height="83.2188" id="lcl_base_e" rx="2.5" ry="2.5" style="stroke:#181818;stroke-width:0.5;" width="159" x="1101" y="1736.6094"/><ellipse cx="1142.55" cy="1752.6094" fill="#ADD1B2" rx="11" ry="11" style="stroke:#181818;stroke-width:1.0;"/><path d="M1145.3156,1748.4844 Q1145.4719,1748.2656 1145.6594,1748.1563 Q1145.8469,1748.0469 1146.0656,1748.0469 Q1146.4406,1748.0469 1146.675,1748.3125 Q1146.9094,1748.5625 1146.9094,1749.1719 L1146.9094,1750.625 Q1146.9094,1751.2344 1146.675,1751.5 Q1146.4406,1751.7656 1146.0656,1751.7656 Q1145.7219,1751.7656 1145.5188,1751.5625 Q1145.3156,1751.375 1145.2063,1750.8594 Q1145.1594,1750.5 1144.9719,1750.3125 Q1144.6438,1749.9375 1144.0344,1749.7188 Q1143.425,1749.5 1142.8,1749.5 Q1142.0344,1749.5 1141.3938,1749.8281 Q1140.7688,1750.1563 1140.2688,1750.9063 Q1139.7844,1751.6563 1139.7844,1752.6875 L1139.7844,1753.7813 Q1139.7844,1755.0156 1140.675,1755.8438 Q1141.5656,1756.6563 1143.1594,1756.6563 Q1144.0969,1756.6563 1144.7531,1756.4063 Q1145.1438,1756.25 1145.5656,1755.8125 Q1145.8313,1755.5469 1145.9719,1755.4688 Q1146.1281,1755.3906 1146.3313,1755.3906 Q1146.6594,1755.3906 1146.9094,1755.6563 Q1147.175,1755.9063 1147.175,1756.25 Q1147.175,1756.5938 1146.8313,1757 Q1146.3313,1757.5781 1145.5344,1757.9063 Q1144.4563,1758.3594 1143.1594,1758.3594 Q1141.6438,1758.3594 1140.4406,1757.7344 Q1139.4563,1757.2344 1138.7688,1756.1719 Q1138.0813,1755.0938 1138.0813,1753.8125 L1138.0813,1752.6563 Q1138.0813,1751.3281 1138.6906,1750.1875 Q1139.3156,1749.0313 1140.4094,1748.4219 Q1141.5031,1747.7969 1142.7375,1747.7969 Q1143.4719,1747.7969 1144.1125,1747.9688 Q1144.7688,1748.125 1145.3156,1748.4844 Z " fill="#000000"/><text fill="#000000" font-family="sans-serif" font-size="14" lengthAdjust="spacing" textLength="68" x="1162.45" y="1758.3379">lcl_base_e</text><line style="stroke:#181818;stroke-width:0.5;" x1="1102" x2="1259" y1="1768.6094" y2="1768.6094"/><rect fill="none" height="6" style="stroke:#C82930;stroke-width:1.0;" width="6" x="1109" y="1779.9141"/><text fill="#000000" font-family="sans-serif" font-size="14" lengthAdjust="spacing" textLength="133" x="1121" y="1787.1426">mv_cumulator : anhzl</text><rect fill="none" height="6" style="stroke:#C82930;stroke-width:1.0;" width="6" x="1109" y="1797.5234"/><text fill="#000000" font-family="sans-serif" font-size="14" lengthAdjust="spacing" textLength="106" x="1121" y="1804.752">mv_base : maxbt</text><line style="stroke:#181818;stroke-width:0.5;" x1="1102" x2="1259" y1="1811.8281" y2="1811.8281"/></g><!--MD5=[fcd702285c16da1993b6bec81907af19]
reverse link lif_tax_calculator to lcl_tax_calculator--><g id="link_lif_tax_calculator_lcl_tax_calculator"><path d="M346.5,371.8894 C346.5,371.8894 346.5,411.5694 346.5,411.5694 " fill="none" id="lif_tax_calculator-backto-lcl_tax_calculator" style="stroke:#181818;stroke-width:1.0;stroke-dasharray:7.0,7.0;"/><polygon fill="none" points="339.5,371.8894,346.5,351.8894,353.5,371.8894,339.5,371.8894" style="stroke:#181818;stroke-width:1.0;"/></g><!--MD5=[5eef6619fc82935fcf1e728844ec51b5]
reverse link lif_wt_calc_rule to lcl_base_calculator--><g id="link_lif_wt_calc_rule_lcl_base_calculator"><path d="M346.5,658.9694 C346.5,658.9694 346.5,698.5994 346.5,698.5994 " fill="none" id="lif_wt_calc_rule-backto-lcl_base_calculator" style="stroke:#181818;stroke-width:1.0;stroke-dasharray:7.0,7.0;"/><polygon fill="none" points="339.5,658.9694,346.5,638.9694,353.5,658.9694,339.5,658.9694" style="stroke:#181818;stroke-width:1.0;"/></g><!--MD5=[51b0e1d45f40d3d9e25b9be789ed5656]
reverse link lif_base_getter to lcl_cumulation_base_getter--><g id="link_lif_base_getter_lcl_cumulation_base_getter"><path d="M287.25,962.6894 C287.25,962.6894 287.25,1879.3994 287.25,1879.3994 " fill="none" id="lif_base_getter-backto-lcl_cumulation_base_getter" style="stroke:#181818;stroke-width:1.0;stroke-dasharray:7.0,7.0;"/><polygon fill="none" points="280.25,962.6894,287.25,942.6894,294.25,962.6894,280.25,962.6894" style="stroke:#181818;stroke-width:1.0;"/></g><!--MD5=[ea7dd83420b77c7e3cfe5ea3568d3026]
reverse link lif_base_getter to lcl_limit_getter--><g id="link_lif_base_getter_lcl_limit_getter"><path d="M389.5,962.8594 C389.5,962.8594 389.5,1002.5794 389.5,1002.5794 " fill="none" id="lif_base_getter-backto-lcl_limit_getter" style="stroke:#181818;stroke-width:1.0;stroke-dasharray:7.0,7.0;"/><polygon fill="none" points="382.5,962.8594,389.5,942.8594,396.5,962.8594,382.5,962.8594" style="stroke:#181818;stroke-width:1.0;"/></g><!--MD5=[1de9de71012d555576f7c787329b1d69]
reverse link lif_table_processor to lcl_table_processor--><g id="link_lif_table_processor_lcl_table_processor"><path d="M597.5,1231.8894 C597.5,1231.8894 597.5,1271.5694 597.5,1271.5694 " fill="none" id="lif_table_processor-backto-lcl_table_processor" style="stroke:#181818;stroke-width:1.0;stroke-dasharray:7.0,7.0;"/><polygon fill="none" points="590.5,1231.8894,597.5,1211.8894,604.5,1231.8894,590.5,1231.8894" style="stroke:#181818;stroke-width:1.0;"/></g><!--MD5=[ae2d1f0fe077f92a3afd4e2742b4d276]
reverse link lif_base_calculation_rule to lcl_base_full_hours--><g id="link_lif_base_calculation_rule_lcl_base_full_hours"><path d="M644.5,1518.9694 C644.5,1518.9694 644.5,1566.9894 644.5,1566.9894 " fill="none" id="lif_base_calculation_rule-backto-lcl_base_full_hours" style="stroke:#181818;stroke-width:1.0;stroke-dasharray:7.0,7.0;"/><polygon fill="none" points="637.5,1518.9694,644.5,1498.9694,651.5,1518.9694,637.5,1518.9694" style="stroke:#181818;stroke-width:1.0;"/></g><!--MD5=[635743006b20a1c20508689ca45c436d]
reverse link lif_basic_hour_getter to lcl_basic_hour_getter--><g id="link_lif_basic_hour_getter_lcl_basic_hour_getter"><path d="M649.5,1831.2794 C649.5,1831.2794 649.5,1879.4094 649.5,1879.4094 " fill="none" id="lif_basic_hour_getter-backto-lcl_basic_hour_getter" style="stroke:#181818;stroke-width:1.0;stroke-dasharray:7.0,7.0;"/><polygon fill="none" points="642.5,1831.2794,649.5,1811.2794,656.5,1831.2794,642.5,1831.2794" style="stroke:#181818;stroke-width:1.0;"/></g><!--MD5=[0785c8e8bdb8747c1cc7010651ea51cf]
reverse link lif_base_e to lcl_base_e--><g id="link_lif_base_e_lcl_base_e"><path d="M1180.5,1696.9194 C1180.5,1696.9194 1180.5,1736.5694 1180.5,1736.5694 " fill="none" id="lif_base_e-backto-lcl_base_e" style="stroke:#181818;stroke-width:1.0;stroke-dasharray:7.0,7.0;"/><polygon fill="none" points="1173.5,1696.9194,1180.5,1676.9194,1187.5,1696.9194,1173.5,1696.9194" style="stroke:#181818;stroke-width:1.0;"/></g><!--MD5=[300348a887a2343d15016621ea406c74]
link lcl_cumulation_base_getter to lce_base--><g id="link_lcl_cumulation_base_getter_lce_base"><path codeLine="101" d="M303.5,1962.9294 C303.5,1962.9294 303.5,2017.3494 303.5,2017.3494 " fill="none" id="lcl_cumulation_base_getter-to-lce_base" style="stroke:#181818;stroke-width:1.0;"/><polygon fill="#181818" points="303.5,2022.3494,307.5,2013.3494,303.5,2017.3494,299.5,2013.3494,303.5,2022.3494" style="stroke:#181818;stroke-width:1.0;"/><text fill="#000000" font-family="sans-serif" font-size="13" lengthAdjust="spacing" textLength="28" x="274.5" y="1986.6345">uses</text></g><!--MD5=[5e7005dee468bc6d777a1a7228d3b5a1]
link lcl_base_calculator to lif_base_getter--><g id="link_lcl_base_calculator_lif_base_getter"><path codeLine="102" d="M346.5,816.8094 C346.5,816.8094 346.5,871.2394 346.5,871.2394 " fill="none" id="lcl_base_calculator-to-lif_base_getter" style="stroke:#181818;stroke-width:1.0;"/><polygon fill="#181818" points="346.5,876.2394,350.5,867.2394,346.5,871.2394,342.5,867.2394,346.5,876.2394" style="stroke:#181818;stroke-width:1.0;"/><text fill="#000000" font-family="sans-serif" font-size="13" lengthAdjust="spacing" textLength="28" x="317.5" y="840.5245">uses</text></g><!--MD5=[76d09f57c218e1bc500c6c31d607db2b]
reverse link lcl_limit_getter to lif_table_processor--><g id="link_lcl_limit_getter_lif_table_processor"><path codeLine="103" d="M597.5,1098.9294 C597.5,1098.9294 597.5,1145.3494 597.5,1145.3494 " fill="none" id="lcl_limit_getter-backto-lif_table_processor" style="stroke:#181818;stroke-width:1.0;"/><polygon fill="#181818" points="597.5,1085.9294,593.5,1091.9294,597.5,1097.9294,601.5,1091.9294,597.5,1085.9294" style="stroke:#181818;stroke-width:1.0;"/><text fill="#000000" font-family="sans-serif" font-size="13" lengthAdjust="spacing" textLength="21" x="575.5" y="1118.6345">has</text><text fill="#000000" font-family="sans-serif" font-size="13" lengthAdjust="spacing" textLength="22" x="573.3344" y="1134.7945">1..1</text></g><!--MD5=[752325afdc3d129a7e2be8ea3ec1aea9]
link lif_base_calculation_rule to lif_base_e--><g id="link_lif_base_calculation_rule_lif_base_e"><path codeLine="104" d="M880.38,1465.6094 C1024.18,1465.6094 1180.5,1465.6094 1180.5,1465.6094 C1180.5,1465.6094 1180.5,1553.4094 1180.5,1553.4094 " fill="none" id="lif_base_calculation_rule-to-lif_base_e" style="stroke:#181818;stroke-width:1.0;"/><polygon fill="#181818" points="1180.5,1558.4094,1184.5,1549.4094,1180.5,1553.4094,1176.5,1549.4094,1180.5,1558.4094" style="stroke:#181818;stroke-width:1.0;"/><text fill="#000000" font-family="sans-serif" font-size="13" lengthAdjust="spacing" textLength="21" x="1052.34" y="1462.1045">use</text></g><!--MD5=[fd1d52d4016a0c98f922a44f204c6c87]
reverse link lcl_table_processor to lif_base_calculation_rule--><g id="link_lcl_table_processor_lif_base_calculation_rule"><path codeLine="105" d="M644.5,1385.6994 C644.5,1385.6994 644.5,1432.5094 644.5,1432.5094 " fill="none" id="lcl_table_processor-backto-lif_base_calculation_rule" style="stroke:#181818;stroke-width:1.0;"/><polygon fill="#181818" points="644.5,1372.6994,640.5,1378.6994,644.5,1384.6994,648.5,1378.6994,644.5,1372.6994" style="stroke:#181818;stroke-width:1.0;"/><text fill="#000000" font-family="sans-serif" font-size="13" lengthAdjust="spacing" textLength="21" x="622.5" y="1405.6045">has</text><text fill="#000000" font-family="sans-serif" font-size="13" lengthAdjust="spacing" textLength="24" x="618.025" y="1421.6042">1..N</text></g><!--MD5=[67f4804d4936b36b249ecc91a162fbdb]
link lcl_basic_hour_getter to lce_basic_hour--><g id="link_lcl_basic_hour_getter_lce_basic_hour"><path codeLine="106" d="M563.25,1962.9294 C563.25,1962.9294 563.25,2017.3494 563.25,2017.3494 " fill="none" id="lcl_basic_hour_getter-to-lce_basic_hour" style="stroke:#181818;stroke-width:1.0;"/><polygon fill="#181818" points="563.25,2022.3494,567.25,2013.3494,563.25,2017.3494,559.25,2013.3494,563.25,2022.3494" style="stroke:#181818;stroke-width:1.0;"/><text fill="#000000" font-family="sans-serif" font-size="13" lengthAdjust="spacing" textLength="21" x="541.25" y="1986.6345">use</text></g><!--MD5=[f9a74ecafa84c2681a742a9783c781c8]
reverse link lcl_base_full_hours to lif_basic_hour_getter--><g id="link_lcl_base_full_hours_lif_basic_hour_getter"><path codeLine="107" d="M649.5,1681.3894 C649.5,1681.3894 649.5,1744.8494 649.5,1744.8494 " fill="none" id="lcl_base_full_hours-backto-lif_basic_hour_getter" style="stroke:#181818;stroke-width:1.0;"/><polygon fill="#181818" points="649.5,1668.3894,645.5,1674.3894,649.5,1680.3894,653.5,1674.3894,649.5,1668.3894" style="stroke:#181818;stroke-width:1.0;"/><text fill="#000000" font-family="sans-serif" font-size="13" lengthAdjust="spacing" textLength="21" x="627.5" y="1709.6145">has</text></g><!--MD5=[4f997dc618cbcfe6c8ec31ce441428b0]
reverse link lcl_tax_calculator to lif_wt_calc_rule--><g id="link_lcl_tax_calculator_lif_wt_calc_rule"><path codeLine="108" d="M346.5,525.6994 C346.5,525.6994 346.5,572.5094 346.5,572.5094 " fill="none" id="lcl_tax_calculator-backto-lif_wt_calc_rule" style="stroke:#181818;stroke-width:1.0;"/><polygon fill="#181818" points="346.5,512.6994,342.5,518.6994,346.5,524.6994,350.5,518.6994,346.5,512.6994" style="stroke:#181818;stroke-width:1.0;"/><text fill="#000000" font-family="sans-serif" font-size="13" lengthAdjust="spacing" textLength="21" x="324.5" y="545.6045">has</text><text fill="#000000" font-family="sans-serif" font-size="13" lengthAdjust="spacing" textLength="24" x="320.025" y="561.6042">1..N</text></g><!--MD5=[99214662eeb6d2c40d60f618e0c7ca20]
link Payroll to lif_tax_calculator--><g id="link_Payroll_lif_tax_calculator"><path codeLine="109" d="M314.74,72.6094 C257.58,72.6094 143.25,72.6094 143.25,72.6094 C143.25,72.6094 143.25,318.6094 143.25,318.6094 C143.25,318.6094 272.97,318.6094 272.97,318.6094 " fill="none" id="Payroll-to-lif_tax_calculator" style="stroke:#181818;stroke-width:1.0;"/><polygon fill="#181818" points="277.97,318.6094,268.97,314.6094,272.97,318.6094,268.97,322.6094,277.97,318.6094" style="stroke:#181818;stroke-width:1.0;"/><text fill="#000000" font-family="sans-serif" font-size="13" lengthAdjust="spacing" textLength="28" x="114.25" y="171.2145">uses</text></g><!--MD5=[adaaa8b6a622f0536ec09a010bd66678]
link Payroll to lcl_tax_calculator_a--><g id="link_Payroll_lcl_tax_calculator_a"><path codeLine="110" d="M346.5,99.7594 C346.5,99.7594 346.5,154.5194 346.5,154.5194 " fill="none" id="Payroll-to-lcl_tax_calculator_a" style="stroke:#181818;stroke-width:1.0;"/><polygon fill="#181818" points="346.5,159.5194,350.5,150.5194,346.5,154.5194,342.5,150.5194,346.5,159.5194" style="stroke:#181818;stroke-width:1.0;"/><text fill="#000000" font-family="sans-serif" font-size="13" lengthAdjust="spacing" textLength="28" x="317.5" y="123.6345">uses</text></g><!--MD5=[c29c9f7f0c67c9df406c2bb90f4b8a76]
link lcl_tax_calculator_a to lif_tax_calculator--><g id="link_lcl_tax_calculator_a_lif_tax_calculator"><path codeLine="111" d="M346.5,225.7194 C346.5,225.7194 346.5,280.2894 346.5,280.2894 " fill="none" id="lcl_tax_calculator_a-to-lif_tax_calculator" style="stroke:#181818;stroke-width:1.0;stroke-dasharray:7.0,7.0;"/><polygon fill="#181818" points="346.5,285.2894,350.5,276.2894,346.5,280.2894,342.5,276.2894,346.5,285.2894" style="stroke:#181818;stroke-width:1.0;"/><text fill="#000000" font-family="sans-serif" font-size="13" lengthAdjust="spacing" textLength="40" x="305.5" y="249.4945">returns</text></g><!--MD5=[c24f60de75a400c208d230afad342571]
@startuml diagrama_C

    '7 Interfaces
    '9 Classes
    '2 Enumeradores

    title Diagrama C

    skinparam linetype ortho

    package Payroll {

    }

    interface lif_tax_calculator{
        +calculate( ) : void
    }
    class lcl_tax_calculator_a{
        +{static}make( io_payroll_context : if_hrpaypt_payroll_context ) : lif_tax_calculator
    }

    class lcl_tax_calculator implements lif_tax_calculator{
            -mo_payroll_context : if_hrpaypt_payroll_context
            -mt_wt_calc_rule[] : lif_wt_calc_rule
            +constructor( io_payroll_context : if_hrpaypt_payroll_context, it_wt_calc_rule[] : lif_wt_calc_rule )
    }

    interface lif_wt_calc_rule{
        + calculate( ) : pc207
    }

    class lcl_base_calculator implements lif_wt_calc_rule{
        -mo_payroll_context : if_hrpaypt_payroll_context
        -mo_base_getter_f : lif_base_getter_f
        -calculate( iv_base : maxbt ) : pc207
        +constructor( io_payroll_context : if_hrpaypt_payroll_context, io_base_getter_f : lif_base_getter_f )
    }

    interface lif_base_getter{
        get() : maxbt
    }
    class lcl_cumulation_base_getter implements lif_base_getter{
        -mo_payroll_context : if_hrpaypt_payroll_context
        + constructor( io_payroll_context : if_hrpaypt_payroll_context )
    }

    class lcl_limit_getter implements lif_base_getter{
        - mo_table_processor : lif_table_processor
        + constructor( io_table_processor : lif_table_processor )
    }

    interface lif_table_processor{
        + process( ) : maxbt
    }

    class lcl_table_processor implements lif_table_processor{
        -mo_base_full_hours : lif_base_calculation_rule
        - mo_payroll_context : if_hrpaypt_payroll_context
        + constructor( io_base_full_hours : lif_base_calculation_rule, io_payroll_context : if_hrpaypt_payroll_context )
    }

    interface lif_base_calculation_rule{
        + calculate( io_base_e : lif_base_e, is_current_overtime : PC2BF ) : void
    }

    class lcl_base_full_hours implements lif_base_calculation_rule{
        - mo_payroll_context : if_hrpaypt_payroll_context
        - mo_basic_hour_getter : lif_basic_hour_getter
        + constructor( io_payroll_context : if_hrpaypt_payroll_context, io_basic_hour_getter : lif_basic_hour_getter )
    }

    interface lif_basic_hour_getter{
        + get( ) : pc207
    }

    class lcl_basic_hour_getter implements lif_basic_hour_getter{
        - mo_payroll_context : if_hrpaypt_payroll_context
        +constructor( io_payroll_context : if_hrpaypt_payroll_context )
    }

    interface lif_base_e{
        +get_cumulator( ) : p_suml
        +get_base( ) : maxbt 
        +set_cumulator( iv_cumulator : p_suml ) : void
        +set_base( iv_base : maxbt ) : void
    }

    class lcl_base_e implements lif_base_e {
        - mv_cumulator : anhzl 
        - mv_base : maxbt
    }
        
    package enumerators as "enumerators"{
        enum lce_base{
            +gc_base_cumulator : 'BAOV'
        }
        enum lce_basic_hour{
            +gc_base_hour_identifier : 'HRAM'
        }
    }

    lcl_cumulation_base_getter- -> lce_base : uses
    lcl_base_calculator- -> lif_base_getter : uses
    lcl_limit_getter *- - "1..1" lif_table_processor : has
    lif_base_calculation_rule - -> lif_base_e : use
    lcl_table_processor *- - "1..N" lif_base_calculation_rule : has
    lcl_basic_hour_getter - -> lce_basic_hour : use
    lcl_base_full_hours *- - lif_basic_hour_getter : has
    lcl_tax_calculator  *- - "1..N" lif_wt_calc_rule : has
    Payroll - -> lif_tax_calculator : uses
    Payroll - -> lcl_tax_calculator_a : uses
    lcl_tax_calculator_a ..> lif_tax_calculator : returns
@enduml

@startuml diagrama_C


    title Diagrama C

    skinparam linetype ortho

    package Payroll {

    }

    interface lif_tax_calculator{
        +calculate( ) : void
    }
    class lcl_tax_calculator_a{
        +{static}make( io_payroll_context : if_hrpaypt_payroll_context ) : lif_tax_calculator
    }

    class lcl_tax_calculator implements lif_tax_calculator{
            -mo_payroll_context : if_hrpaypt_payroll_context
            -mt_wt_calc_rule[] : lif_wt_calc_rule
            +constructor( io_payroll_context : if_hrpaypt_payroll_context, it_wt_calc_rule[] : lif_wt_calc_rule )
    }

    interface lif_wt_calc_rule{
        + calculate( ) : pc207
    }

    class lcl_base_calculator implements lif_wt_calc_rule{
        -mo_payroll_context : if_hrpaypt_payroll_context
        -mo_base_getter_f : lif_base_getter_f
        -calculate( iv_base : maxbt ) : pc207
        +constructor( io_payroll_context : if_hrpaypt_payroll_context, io_base_getter_f : lif_base_getter_f )
    }

    interface lif_base_getter{
        get() : maxbt
    }
    class lcl_cumulation_base_getter implements lif_base_getter{
        -mo_payroll_context : if_hrpaypt_payroll_context
        + constructor( io_payroll_context : if_hrpaypt_payroll_context )
    }

    class lcl_limit_getter implements lif_base_getter{
        - mo_table_processor : lif_table_processor
        + constructor( io_table_processor : lif_table_processor )
    }

    interface lif_table_processor{
        + process( ) : maxbt
    }

    class lcl_table_processor implements lif_table_processor{
        -mo_base_full_hours : lif_base_calculation_rule
        - mo_payroll_context : if_hrpaypt_payroll_context
        + constructor( io_base_full_hours : lif_base_calculation_rule, io_payroll_context : if_hrpaypt_payroll_context )
    }

    interface lif_base_calculation_rule{
        + calculate( io_base_e : lif_base_e, is_current_overtime : PC2BF ) : void
    }

    class lcl_base_full_hours implements lif_base_calculation_rule{
        - mo_payroll_context : if_hrpaypt_payroll_context
        - mo_basic_hour_getter : lif_basic_hour_getter
        + constructor( io_payroll_context : if_hrpaypt_payroll_context, io_basic_hour_getter : lif_basic_hour_getter )
    }

    interface lif_basic_hour_getter{
        + get( ) : pc207
    }

    class lcl_basic_hour_getter implements lif_basic_hour_getter{
        - mo_payroll_context : if_hrpaypt_payroll_context
        +constructor( io_payroll_context : if_hrpaypt_payroll_context )
    }

    interface lif_base_e{
        +get_cumulator( ) : p_suml
        +get_base( ) : maxbt 
        +set_cumulator( iv_cumulator : p_suml ) : void
        +set_base( iv_base : maxbt ) : void
    }

    class lcl_base_e implements lif_base_e {
        - mv_cumulator : anhzl 
        - mv_base : maxbt
    }
        
    package enumerators as "enumerators"{
        enum lce_base{
            +gc_base_cumulator : 'BAOV'
        }
        enum lce_basic_hour{
            +gc_base_hour_identifier : 'HRAM'
        }
    }

    lcl_cumulation_base_getter- -> lce_base : uses
    lcl_base_calculator- -> lif_base_getter : uses
    lcl_limit_getter *- - "1..1" lif_table_processor : has
    lif_base_calculation_rule - -> lif_base_e : use
    lcl_table_processor *- - "1..N" lif_base_calculation_rule : has
    lcl_basic_hour_getter - -> lce_basic_hour : use
    lcl_base_full_hours *- - lif_basic_hour_getter : has
    lcl_tax_calculator  *- - "1..N" lif_wt_calc_rule : has
    Payroll - -> lif_tax_calculator : uses
    Payroll - -> lcl_tax_calculator_a : uses
    lcl_tax_calculator_a ..> lif_tax_calculator : returns
@enduml

PlantUML version 1.2022.7(Mon Aug 22 14:01:30 BRT 2022)
(GPL source distribution)
Java Runtime: Java(TM) SE Runtime Environment
JVM: Java HotSpot(TM) 64-Bit Server VM
Default Encoding: Cp1252
Language: pt
Country: BR
--></g></svg>