<?xml version="1.0" encoding="UTF-8" standalone="no"?><svg xmlns="http://www.w3.org/2000/svg" xmlns:xlink="http://www.w3.org/1999/xlink" contentStyleType="text/css" height="1556px" preserveAspectRatio="none" style="width:1663px;height:1556px;background:#FFFFFF;" version="1.1" viewBox="0 0 1663 1556" width="1663px" zoomAndPan="magnify"><defs/><g><rect fill="none" height="27.6094" id="_title" style="stroke:none;stroke-width:1.0;" width="174" x="743" y="15"/><text fill="#000000" font-family="sans-serif" font-size="14" font-weight="bold" lengthAdjust="spacing" textLength="164" x="748" y="34.5332">Funcionamento Interno</text><ellipse cx="797" cy="58.6094" fill="#222222" rx="10" ry="10" style="stroke:#222222;stroke-width:1.0;"/><rect fill="#F1F1F1" height="35.0938" rx="12.5" ry="12.5" style="stroke:#181818;stroke-width:0.5;" width="111" x="741.5" y="88.6094"/><text fill="#000000" font-family="sans-serif" font-size="12" lengthAdjust="spacing" textLength="91" x="751.5" y="111.0664">get_next_token()</text><ellipse cx="797" cy="202.6211" fill="none" rx="10" ry="10" style="stroke:#222222;stroke-width:1.5;"/><line style="stroke:#222222;stroke-width:2.5;" x1="790.8128" x2="803.1872" y1="196.4339" y2="208.8083"/><line style="stroke:#222222;stroke-width:2.5;" x1="803.1872" x2="790.8128" y1="196.4339" y2="208.8083"/><polygon fill="#F1F1F1" points="758.5,143.7031,835.5,143.7031,847.5,155.7031,835.5,167.7031,758.5,167.7031,746.5,155.7031,758.5,143.7031" style="stroke:#181818;stroke-width:0.5;"/><text fill="#000000" font-family="sans-serif" font-size="11" lengthAdjust="spacing" textLength="19" x="801" y="179.1221">Não</text><text fill="#000000" font-family="sans-serif" font-size="11" lengthAdjust="spacing" textLength="77" x="758.5" y="160.2041">Token é BEGIN?</text><text fill="#000000" font-family="sans-serif" font-size="11" lengthAdjust="spacing" textLength="17" x="847.5" y="153.2861">Sim</text><rect fill="#F1F1F1" height="35.0938" rx="12.5" ry="12.5" style="stroke:#181818;stroke-width:0.5;" width="159" x="717.5" y="298.6211"/><text fill="#000000" font-family="sans-serif" font-size="12" lengthAdjust="spacing" textLength="139" x="727.5" y="321.0781">Início da função recursiva</text><rect fill="#F1F1F1" height="35.0938" rx="12.5" ry="12.5" style="stroke:#181818;stroke-width:0.5;" width="111" x="741.5" y="410.6338"/><text fill="#000000" font-family="sans-serif" font-size="12" lengthAdjust="spacing" textLength="91" x="751.5" y="433.0908">get_next_token()</text><polygon fill="#F1F1F1" points="621,353.7148,973,353.7148,985,365.7148,973,377.7148,621,377.7148,609,365.7148,621,353.7148" style="stroke:#181818;stroke-width:0.5;"/><text fill="#000000" font-family="sans-serif" font-size="11" lengthAdjust="spacing" textLength="52" x="801" y="389.1338">é diferente</text><text fill="#000000" font-family="sans-serif" font-size="11" lengthAdjust="spacing" textLength="352" x="621" y="370.2158">Compara Token com INTERFACE, CLASSE, ENUM, ABSTRACT, ID ou END</text><text fill="#000000" font-family="sans-serif" font-size="11" lengthAdjust="spacing" textLength="62" x="547" y="363.2979">é um desses</text><polygon fill="#F1F1F1" points="248,487.7275,350,487.7275,362,499.7275,350,511.7275,248,511.7275,236,499.7275,248,487.7275" style="stroke:#181818;stroke-width:0.5;"/><text fill="#000000" font-family="sans-serif" font-size="11" lengthAdjust="spacing" textLength="17" x="303" y="523.1465">Sim</text><text fill="#000000" font-family="sans-serif" font-size="11" lengthAdjust="spacing" textLength="102" x="248" y="504.2285">Token é INTERFACE?</text><rect fill="#F1F1F1" height="35.0938" rx="12.5" ry="12.5" style="stroke:#181818;stroke-width:0.5;" width="111" x="243.5" y="544.6465"/><text fill="#000000" font-family="sans-serif" font-size="12" lengthAdjust="spacing" textLength="91" x="253.5" y="567.1035">get_next_token()</text><rect fill="#F1F1F1" height="35.0938" rx="12.5" ry="12.5" style="stroke:#181818;stroke-width:0.5;" width="249" x="174.5" y="648.6582"/><text fill="#000000" font-family="sans-serif" font-size="12" lengthAdjust="spacing" textLength="229" x="184.5" y="671.1152">adiciona interface no container de objetos</text><rect fill="#F1F1F1" height="35.0938" rx="12.5" ry="12.5" style="stroke:#181818;stroke-width:0.5;" width="111" x="243.5" y="718.752"/><text fill="#000000" font-family="sans-serif" font-size="12" lengthAdjust="spacing" textLength="91" x="253.5" y="741.209">get_next_token()</text><polygon fill="#F1F1F1" points="110,813.8457,213,813.8457,225,825.8457,213,837.8457,110,837.8457,98,825.8457,110,813.8457" style="stroke:#181818;stroke-width:0.5;"/><text fill="#000000" font-family="sans-serif" font-size="11" lengthAdjust="spacing" textLength="17" x="165.5" y="849.2646">Sim</text><text fill="#000000" font-family="sans-serif" font-size="11" lengthAdjust="spacing" textLength="103" x="110" y="830.3467">Token é IMPLEMENTS</text><rect fill="#F1F1F1" height="35.0938" rx="12.5" ry="12.5" style="stroke:#181818;stroke-width:0.5;" width="111" x="106" y="871.6816"/><text fill="#000000" font-family="sans-serif" font-size="12" lengthAdjust="spacing" textLength="91" x="116" y="894.1387">get_next_token()</text><rect fill="#F1F1F1" height="35.0938" rx="12.5" ry="12.5" style="stroke:#181818;stroke-width:0.5;" width="301" x="11" y="941.7754"/><text fill="#000000" font-family="sans-serif" font-size="12" lengthAdjust="spacing" textLength="281" x="21" y="964.2324">Adiciona relação de implementação no objeto atual</text><rect fill="#F1F1F1" height="35.0938" rx="12.5" ry="12.5" style="stroke:#181818;stroke-width:0.5;" width="111" x="106" y="1011.8691"/><text fill="#000000" font-family="sans-serif" font-size="12" lengthAdjust="spacing" textLength="91" x="116" y="1034.3262">get_next_token()</text><rect fill="#F1F1F1" height="35.0938" rx="12.5" ry="12.5" style="stroke:#181818;stroke-width:0.5;" width="186" x="68.5" y="1081.9629"/><text fill="#000000" font-family="sans-serif" font-size="12" lengthAdjust="spacing" textLength="166" x="78.5" y="1104.4199">Processa atributos e métodos</text><polygon fill="#F1F1F1" points="381,813.8457,507,813.8457,519,825.8457,507,837.8457,381,837.8457,369,825.8457,381,813.8457" style="stroke:#181818;stroke-width:0.5;"/><text fill="#000000" font-family="sans-serif" font-size="11" lengthAdjust="spacing" textLength="17" x="448" y="849.2646">Sim</text><text fill="#000000" font-family="sans-serif" font-size="11" lengthAdjust="spacing" textLength="126" x="381" y="830.3467">Token é OPENING_BRACE</text><text fill="#000000" font-family="sans-serif" font-size="11" lengthAdjust="spacing" textLength="19" x="350" y="823.4287">Não</text><rect fill="#F1F1F1" height="35.0938" rx="12.5" ry="12.5" style="stroke:#181818;stroke-width:0.5;" width="111" x="388.5" y="871.6816"/><text fill="#000000" font-family="sans-serif" font-size="12" lengthAdjust="spacing" textLength="91" x="398.5" y="894.1387">get_next_token()</text><rect fill="#F1F1F1" height="35.0938" rx="12.5" ry="12.5" style="stroke:#181818;stroke-width:0.5;" width="186" x="351" y="941.7754"/><text fill="#000000" font-family="sans-serif" font-size="12" lengthAdjust="spacing" textLength="166" x="361" y="964.2324">Processa atributos e métodos</text><polygon fill="#F1F1F1" points="274,599.7402,324,599.7402,336,611.7402,324,623.7402,274,623.7402,262,611.7402,274,599.7402" style="stroke:#181818;stroke-width:0.5;"/><text fill="#000000" font-family="sans-serif" font-size="11" lengthAdjust="spacing" textLength="17" x="303" y="635.1592">Sim</text><text fill="#000000" font-family="sans-serif" font-size="11" lengthAdjust="spacing" textLength="50" x="274" y="616.2412">Token é ID</text><polygon fill="#F1F1F1" points="299,1212.0566,311,1224.0566,299,1236.0566,287,1224.0566,299,1212.0566" style="stroke:#181818;stroke-width:0.5;"/><polygon fill="#F1F1F1" points="881,487.7275,1037,487.7275,1049,499.7275,1037,511.7275,881,511.7275,869,499.7275,881,487.7275" style="stroke:#181818;stroke-width:0.5;"/><text fill="#000000" font-family="sans-serif" font-size="11" lengthAdjust="spacing" textLength="17" x="963" y="523.1465">Sim</text><text fill="#000000" font-family="sans-serif" font-size="11" lengthAdjust="spacing" textLength="156" x="881" y="504.2285">Token é CLASSE ou ABSTRACT</text><text fill="#000000" font-family="sans-serif" font-size="11" lengthAdjust="spacing" textLength="18" x="851" y="497.3105">não</text><rect fill="#F1F1F1" height="35.0938" rx="12.5" ry="12.5" style="stroke:#181818;stroke-width:0.5;" width="111" x="903.5" y="544.6465"/><text fill="#000000" font-family="sans-serif" font-size="12" lengthAdjust="spacing" textLength="91" x="913.5" y="567.1035">get_next_token()</text><rect fill="#F1F1F1" height="35.0938" rx="12.5" ry="12.5" style="stroke:#181818;stroke-width:0.5;" width="239" x="839.5" y="599.7402"/><text fill="#000000" font-family="sans-serif" font-size="12" lengthAdjust="spacing" textLength="219" x="849.5" y="622.1973">adiciona classe no container de objetos</text><rect fill="#F1F1F1" height="35.0938" rx="12.5" ry="12.5" style="stroke:#181818;stroke-width:0.5;" width="111" x="903.5" y="669.834"/><text fill="#000000" font-family="sans-serif" font-size="12" lengthAdjust="spacing" textLength="91" x="913.5" y="692.291">get_next_token()</text><polygon fill="#F1F1F1" points="720.5,764.9277,807.5,764.9277,819.5,776.9277,807.5,788.9277,720.5,788.9277,708.5,776.9277,720.5,764.9277" style="stroke:#181818;stroke-width:0.5;"/><text fill="#000000" font-family="sans-serif" font-size="11" lengthAdjust="spacing" textLength="17" x="768" y="800.3467">Sim</text><text fill="#000000" font-family="sans-serif" font-size="11" lengthAdjust="spacing" textLength="87" x="720.5" y="781.4287">Token é EXTENDS</text><rect fill="#F1F1F1" height="35.0938" rx="12.5" ry="12.5" style="stroke:#181818;stroke-width:0.5;" width="260" x="634" y="822.7637"/><text fill="#000000" font-family="sans-serif" font-size="12" lengthAdjust="spacing" textLength="240" x="644" y="845.2207">Adiciona relação de herança no objeto atual</text><polygon fill="#F1F1F1" points="1032,764.9277,1135,764.9277,1147,776.9277,1135,788.9277,1032,788.9277,1020,776.9277,1032,764.9277" style="stroke:#181818;stroke-width:0.5;"/><text fill="#000000" font-family="sans-serif" font-size="11" lengthAdjust="spacing" textLength="17" x="1087.5" y="800.3467">Sim</text><text fill="#000000" font-family="sans-serif" font-size="11" lengthAdjust="spacing" textLength="103" x="1032" y="781.4287">Token é IMPLEMENTS</text><text fill="#000000" font-family="sans-serif" font-size="11" lengthAdjust="spacing" textLength="19" x="1001" y="774.5107">Não</text><rect fill="#F1F1F1" height="35.0938" rx="12.5" ry="12.5" style="stroke:#181818;stroke-width:0.5;" width="301" x="933" y="822.7637"/><text fill="#000000" font-family="sans-serif" font-size="12" lengthAdjust="spacing" textLength="281" x="943" y="845.2207">Adiciona relação de implementação no objeto atual</text><rect fill="#F1F1F1" height="35.0938" rx="12.5" ry="12.5" style="stroke:#181818;stroke-width:0.5;" width="111" x="903.5" y="967.8574"/><text fill="#000000" font-family="sans-serif" font-size="12" lengthAdjust="spacing" textLength="91" x="913.5" y="990.3145">get_next_token()</text><rect fill="#F1F1F1" height="35.0938" rx="12.5" ry="12.5" style="stroke:#181818;stroke-width:0.5;" width="111" x="903.5" y="1086.8691"/><text fill="#000000" font-family="sans-serif" font-size="12" lengthAdjust="spacing" textLength="91" x="913.5" y="1109.3262">get_next_token()</text><rect fill="#F1F1F1" height="35.0938" rx="12.5" ry="12.5" style="stroke:#181818;stroke-width:0.5;" width="186" x="866" y="1156.9629"/><text fill="#000000" font-family="sans-serif" font-size="12" lengthAdjust="spacing" textLength="166" x="876" y="1179.4199">Processa atributos e métodos</text><polygon fill="#F1F1F1" points="934,1037.9512,984,1037.9512,996,1049.9512,984,1061.9512,934,1061.9512,922,1049.9512,934,1037.9512" style="stroke:#181818;stroke-width:0.5;"/><text fill="#000000" font-family="sans-serif" font-size="11" lengthAdjust="spacing" textLength="17" x="963" y="1073.3701">Sim</text><text fill="#000000" font-family="sans-serif" font-size="11" lengthAdjust="spacing" textLength="50" x="934" y="1054.4521">Token é ID</text><polygon fill="#F1F1F1" points="959,1212.0566,971,1224.0566,959,1236.0566,947,1224.0566,959,1212.0566" style="stroke:#181818;stroke-width:0.5;"/><polygon fill="#F1F1F1" points="1344.5,487.7275,1413.5,487.7275,1425.5,499.7275,1413.5,511.7275,1344.5,511.7275,1332.5,499.7275,1344.5,487.7275" style="stroke:#181818;stroke-width:0.5;"/><text fill="#000000" font-family="sans-serif" font-size="11" lengthAdjust="spacing" textLength="17" x="1383" y="523.1465">Sim</text><text fill="#000000" font-family="sans-serif" font-size="11" lengthAdjust="spacing" textLength="69" x="1344.5" y="504.2285">Token é ENUM</text><text fill="#000000" font-family="sans-serif" font-size="11" lengthAdjust="spacing" textLength="18" x="1314.5" y="497.3105">não</text><rect fill="#F1F1F1" height="35.0938" rx="12.5" ry="12.5" style="stroke:#181818;stroke-width:0.5;" width="111" x="1323.5" y="544.6465"/><text fill="#000000" font-family="sans-serif" font-size="12" lengthAdjust="spacing" textLength="91" x="1333.5" y="567.1035">get_next_token()</text><rect fill="#F1F1F1" height="35.0938" rx="12.5" ry="12.5" style="stroke:#181818;stroke-width:0.5;" width="234" x="1262" y="599.7402"/><text fill="#000000" font-family="sans-serif" font-size="12" lengthAdjust="spacing" textLength="214" x="1272" y="622.1973">adiciona enum no container de objetos</text><rect fill="#F1F1F1" height="35.0938" rx="12.5" ry="12.5" style="stroke:#181818;stroke-width:0.5;" width="111" x="1323.5" y="669.834"/><text fill="#000000" font-family="sans-serif" font-size="12" lengthAdjust="spacing" textLength="91" x="1333.5" y="692.291">get_next_token()</text><rect fill="#F1F1F1" height="35.0938" rx="12.5" ry="12.5" style="stroke:#181818;stroke-width:0.5;" width="124" x="1317" y="739.9277"/><text fill="#000000" font-family="sans-serif" font-size="12" lengthAdjust="spacing" textLength="104" x="1327" y="762.3848">Processa atributos</text><rect fill="#F1F1F1" height="35.0938" rx="12.5" ry="12.5" style="stroke:#181818;stroke-width:0.5;" width="111" x="741.5" y="1276.0566"/><text fill="#000000" font-family="sans-serif" font-size="12" lengthAdjust="spacing" textLength="91" x="751.5" y="1298.5137">get_next_token()</text><polygon fill="#F1F1F1" points="797,254.6211,809,266.6211,797,278.6211,785,266.6211,797,254.6211" style="stroke:#181818;stroke-width:0.5;"/><polygon fill="#F1F1F1" points="733.5,1331.1504,860.5,1331.1504,872.5,1343.1504,860.5,1355.1504,733.5,1355.1504,721.5,1343.1504,733.5,1331.1504" style="stroke:#181818;stroke-width:0.5;"/><text fill="#000000" font-family="sans-serif" font-size="11" lengthAdjust="spacing" textLength="127" x="733.5" y="1347.6514">Token é CLOSING_BRACE</text><rect fill="#F1F1F1" height="35.0938" rx="12.5" ry="12.5" style="stroke:#181818;stroke-width:0.5;" width="128" x="1524" y="785.8809"/><text fill="#000000" font-family="sans-serif" font-size="12" lengthAdjust="spacing" textLength="108" x="1534" y="808.3379">Chamada recursiva</text><rect fill="#F1F1F1" height="35.0938" rx="12.5" ry="12.5" style="stroke:#181818;stroke-width:0.5;" width="148" x="723" y="1424.0684"/><text fill="#000000" font-family="sans-serif" font-size="12" lengthAdjust="spacing" textLength="128" x="733" y="1446.5254">Sai da função recursiva</text><polygon fill="#F1F1F1" points="766.5,1375.1504,827.5,1375.1504,839.5,1387.1504,827.5,1399.1504,766.5,1399.1504,754.5,1387.1504,766.5,1375.1504" style="stroke:#181818;stroke-width:0.5;"/><text fill="#000000" font-family="sans-serif" font-size="11" lengthAdjust="spacing" textLength="17" x="801" y="1410.5693">Sim</text><text fill="#000000" font-family="sans-serif" font-size="11" lengthAdjust="spacing" textLength="61" x="766.5" y="1391.6514">Token é END</text><polygon fill="#F1F1F1" points="797,1479.1621,809,1491.1621,797,1503.1621,785,1491.1621,797,1479.1621" style="stroke:#181818;stroke-width:0.5;"/><ellipse cx="797" cy="1534.1621" fill="none" rx="11" ry="11" style="stroke:#222222;stroke-width:1.0;"/><ellipse cx="797" cy="1534.1621" fill="#222222" rx="6" ry="6" style="stroke:#111111;stroke-width:1.0;"/><line style="stroke:#181818;stroke-width:1.0;" x1="797" x2="797" y1="68.6094" y2="88.6094"/><polygon fill="#181818" points="793,78.6094,797,88.6094,801,78.6094,797,82.6094" style="stroke:#181818;stroke-width:1.0;"/><line style="stroke:#181818;stroke-width:1.0;" x1="797" x2="797" y1="167.7031" y2="192.6211"/><polygon fill="#181818" points="793,182.6211,797,192.6211,801,182.6211,797,186.6211" style="stroke:#181818;stroke-width:1.0;"/><line style="stroke:#181818;stroke-width:1.0;" x1="847.5" x2="859.5" y1="155.7031" y2="155.7031"/><polygon fill="#181818" points="855.5,189.6211,859.5,199.6211,863.5,189.6211,859.5,193.6211" style="stroke:#181818;stroke-width:1.0;"/><line style="stroke:#181818;stroke-width:1.0;" x1="859.5" x2="859.5" y1="155.7031" y2="234.6211"/><line style="stroke:#181818;stroke-width:1.0;" x1="859.5" x2="797" y1="234.6211" y2="234.6211"/><line style="stroke:#181818;stroke-width:1.0;" x1="797" x2="797" y1="234.6211" y2="254.6211"/><polygon fill="#181818" points="793,244.6211,797,254.6211,801,244.6211,797,248.6211" style="stroke:#181818;stroke-width:1.0;"/><line style="stroke:#181818;stroke-width:1.0;" x1="797" x2="797" y1="123.7031" y2="143.7031"/><polygon fill="#181818" points="793,133.7031,797,143.7031,801,133.7031,797,137.7031" style="stroke:#181818;stroke-width:1.0;"/><line style="stroke:#181818;stroke-width:1.0;" x1="797" x2="797" y1="377.7148" y2="410.6338"/><polygon fill="#181818" points="793,400.6338,797,410.6338,801,400.6338,797,404.6338" style="stroke:#181818;stroke-width:1.0;"/><line style="stroke:#181818;stroke-width:1.0;" x1="797" x2="797" y1="445.7275" y2="455.7275"/><line style="stroke:#181818;stroke-width:1.0;" x1="797" x2="997" y1="455.7275" y2="455.7275"/><polygon fill="#181818" points="993,419.2627,997,409.2627,1001,419.2627,997,415.2627" style="stroke:#181818;stroke-width:1.0;"/><line style="stroke:#181818;stroke-width:1.0;" x1="997" x2="997" y1="365.7148" y2="455.7275"/><line style="stroke:#181818;stroke-width:1.0;" x1="997" x2="985" y1="365.7148" y2="365.7148"/><polygon fill="#181818" points="995,361.7148,985,365.7148,995,369.7148,991,365.7148" style="stroke:#181818;stroke-width:1.0;"/><line style="stroke:#181818;stroke-width:1.0;" x1="609" x2="597" y1="365.7148" y2="365.7148"/><polygon fill="#181818" points="593,405.2627,597,415.2627,601,405.2627,597,409.2627" style="stroke:#181818;stroke-width:1.0;"/><line style="stroke:#181818;stroke-width:1.0;" x1="597" x2="597" y1="365.7148" y2="467.7275"/><line style="stroke:#181818;stroke-width:1.0;" x1="597" x2="797" y1="467.7275" y2="467.7275"/><line style="stroke:#181818;stroke-width:1.0;" x1="797" x2="797" y1="467.7275" y2="472.7275"/><line style="stroke:#181818;stroke-width:1.0;" x1="797" x2="797" y1="333.7148" y2="353.7148"/><polygon fill="#181818" points="793,343.7148,797,353.7148,801,343.7148,797,347.7148" style="stroke:#181818;stroke-width:1.0;"/><line style="stroke:#181818;stroke-width:1.0;" x1="299" x2="299" y1="683.752" y2="718.752"/><polygon fill="#181818" points="295,708.752,299,718.752,303,708.752,299,712.752" style="stroke:#181818;stroke-width:1.0;"/><line style="stroke:#181818;stroke-width:1.0;" x1="161.5" x2="161.5" y1="906.7754" y2="941.7754"/><polygon fill="#181818" points="157.5,931.7754,161.5,941.7754,165.5,931.7754,161.5,935.7754" style="stroke:#181818;stroke-width:1.0;"/><line style="stroke:#181818;stroke-width:1.0;" x1="161.5" x2="161.5" y1="976.8691" y2="1011.8691"/><polygon fill="#181818" points="157.5,1001.8691,161.5,1011.8691,165.5,1001.8691,161.5,1005.8691" style="stroke:#181818;stroke-width:1.0;"/><line style="stroke:#181818;stroke-width:1.0;" x1="161.5" x2="161.5" y1="1046.9629" y2="1081.9629"/><polygon fill="#181818" points="157.5,1071.9629,161.5,1081.9629,165.5,1071.9629,161.5,1075.9629" style="stroke:#181818;stroke-width:1.0;"/><line style="stroke:#181818;stroke-width:1.0;" x1="444" x2="444" y1="906.7754" y2="941.7754"/><polygon fill="#181818" points="440,931.7754,444,941.7754,448,931.7754,444,935.7754" style="stroke:#181818;stroke-width:1.0;"/><line style="stroke:#181818;stroke-width:1.0;" x1="161.5" x2="161.5" y1="837.8457" y2="871.6816"/><polygon fill="#181818" points="157.5,861.6816,161.5,871.6816,165.5,861.6816,161.5,865.6816" style="stroke:#181818;stroke-width:1.0;"/><line style="stroke:#181818;stroke-width:1.0;" x1="161.5" x2="161.5" y1="1117.0566" y2="1192.0566"/><polygon fill="#181818" points="157.5,1182.0566,161.5,1192.0566,165.5,1182.0566,161.5,1186.0566" style="stroke:#181818;stroke-width:1.0;"/><line style="stroke:#181818;stroke-width:1.0;" x1="444" x2="444" y1="837.8457" y2="871.6816"/><polygon fill="#181818" points="440,861.6816,444,871.6816,448,861.6816,444,865.6816" style="stroke:#181818;stroke-width:1.0;"/><line style="stroke:#181818;stroke-width:1.0;" x1="444" x2="444" y1="976.8691" y2="1192.0566"/><polygon fill="#181818" points="440,1182.0566,444,1192.0566,448,1182.0566,444,1186.0566" style="stroke:#181818;stroke-width:1.0;"/><line style="stroke:#181818;stroke-width:1.0;" x1="225" x2="369" y1="825.8457" y2="825.8457"/><polygon fill="#181818" points="359,821.8457,369,825.8457,359,829.8457,363,825.8457" style="stroke:#181818;stroke-width:1.0;"/><line style="stroke:#181818;stroke-width:1.0;" x1="299" x2="299" y1="753.8457" y2="788.8457"/><line style="stroke:#181818;stroke-width:1.0;" x1="299" x2="161.5" y1="788.8457" y2="788.8457"/><line style="stroke:#181818;stroke-width:1.0;" x1="161.5" x2="161.5" y1="788.8457" y2="813.8457"/><polygon fill="#181818" points="157.5,803.8457,161.5,813.8457,165.5,803.8457,161.5,807.8457" style="stroke:#181818;stroke-width:1.0;"/><line style="stroke:#181818;stroke-width:1.0;" x1="519" x2="559" y1="825.8457" y2="825.8457"/><line style="stroke:#181818;stroke-width:1.0;" x1="559" x2="559" y1="825.8457" y2="1192.0566"/><polygon fill="#181818" points="555,1182.0566,559,1192.0566,563,1182.0566,559,1186.0566" style="stroke:#181818;stroke-width:1.0;"/><line style="stroke:#181818;stroke-width:1.0;" x1="161.5" x2="559" y1="1192.0566" y2="1192.0566"/><line style="stroke:#181818;stroke-width:1.0;" x1="299" x2="299" y1="623.7402" y2="648.6582"/><polygon fill="#181818" points="295,638.6582,299,648.6582,303,638.6582,299,642.6582" style="stroke:#181818;stroke-width:1.0;"/><line style="stroke:#181818;stroke-width:1.0;" x1="336" x2="584" y1="611.7402" y2="611.7402"/><polygon fill="#181818" points="580,910.3574,584,920.3574,588,910.3574,584,914.3574" style="stroke:#181818;stroke-width:1.0;"/><line style="stroke:#181818;stroke-width:1.0;" x1="584" x2="584" y1="611.7402" y2="1224.0566"/><line style="stroke:#181818;stroke-width:1.0;" x1="584" x2="311" y1="1224.0566" y2="1224.0566"/><polygon fill="#181818" points="321,1220.0566,311,1224.0566,321,1228.0566,317,1224.0566" style="stroke:#181818;stroke-width:1.0;"/><line style="stroke:#181818;stroke-width:1.0;" x1="299" x2="299" y1="1192.0566" y2="1212.0566"/><polygon fill="#181818" points="295,1202.0566,299,1212.0566,303,1202.0566,299,1206.0566" style="stroke:#181818;stroke-width:1.0;"/><line style="stroke:#181818;stroke-width:1.0;" x1="299" x2="299" y1="579.7402" y2="599.7402"/><polygon fill="#181818" points="295,589.7402,299,599.7402,303,589.7402,299,593.7402" style="stroke:#181818;stroke-width:1.0;"/><line style="stroke:#181818;stroke-width:1.0;" x1="959" x2="959" y1="579.7402" y2="599.7402"/><polygon fill="#181818" points="955,589.7402,959,599.7402,963,589.7402,959,593.7402" style="stroke:#181818;stroke-width:1.0;"/><line style="stroke:#181818;stroke-width:1.0;" x1="959" x2="959" y1="634.834" y2="669.834"/><polygon fill="#181818" points="955,659.834,959,669.834,963,659.834,959,663.834" style="stroke:#181818;stroke-width:1.0;"/><line style="stroke:#181818;stroke-width:1.0;" x1="764" x2="764" y1="788.9277" y2="822.7637"/><polygon fill="#181818" points="760,812.7637,764,822.7637,768,812.7637,764,816.7637" style="stroke:#181818;stroke-width:1.0;"/><line style="stroke:#181818;stroke-width:1.0;" x1="764" x2="764" y1="857.8574" y2="932.8574"/><polygon fill="#181818" points="760,922.8574,764,932.8574,768,922.8574,764,926.8574" style="stroke:#181818;stroke-width:1.0;"/><line style="stroke:#181818;stroke-width:1.0;" x1="1083.5" x2="1083.5" y1="788.9277" y2="822.7637"/><polygon fill="#181818" points="1079.5,812.7637,1083.5,822.7637,1087.5,812.7637,1083.5,816.7637" style="stroke:#181818;stroke-width:1.0;"/><line style="stroke:#181818;stroke-width:1.0;" x1="1083.5" x2="1083.5" y1="857.8574" y2="932.8574"/><polygon fill="#181818" points="1079.5,922.8574,1083.5,932.8574,1087.5,922.8574,1083.5,926.8574" style="stroke:#181818;stroke-width:1.0;"/><line style="stroke:#181818;stroke-width:1.0;" x1="819.5" x2="1020" y1="776.9277" y2="776.9277"/><polygon fill="#181818" points="1010,772.9277,1020,776.9277,1010,780.9277,1014,776.9277" style="stroke:#181818;stroke-width:1.0;"/><line style="stroke:#181818;stroke-width:1.0;" x1="959" x2="959" y1="704.9277" y2="739.9277"/><line style="stroke:#181818;stroke-width:1.0;" x1="959" x2="764" y1="739.9277" y2="739.9277"/><line style="stroke:#181818;stroke-width:1.0;" x1="764" x2="764" y1="739.9277" y2="764.9277"/><polygon fill="#181818" points="760,754.9277,764,764.9277,768,754.9277,764,758.9277" style="stroke:#181818;stroke-width:1.0;"/><line style="stroke:#181818;stroke-width:1.0;" x1="1147" x2="1248" y1="776.9277" y2="776.9277"/><line style="stroke:#181818;stroke-width:1.0;" x1="1248" x2="1248" y1="776.9277" y2="932.8574"/><polygon fill="#181818" points="1244,922.8574,1248,932.8574,1252,922.8574,1248,926.8574" style="stroke:#181818;stroke-width:1.0;"/><line style="stroke:#181818;stroke-width:1.0;" x1="764" x2="1248" y1="932.8574" y2="932.8574"/><line style="stroke:#181818;stroke-width:1.0;" x1="959" x2="959" y1="932.8574" y2="967.8574"/><polygon fill="#181818" points="955,957.8574,959,967.8574,963,957.8574,959,961.8574" style="stroke:#181818;stroke-width:1.0;"/><line style="stroke:#181818;stroke-width:1.0;" x1="959" x2="959" y1="1121.9629" y2="1156.9629"/><polygon fill="#181818" points="955,1146.9629,959,1156.9629,963,1146.9629,959,1150.9629" style="stroke:#181818;stroke-width:1.0;"/><line style="stroke:#181818;stroke-width:1.0;" x1="959" x2="959" y1="1061.9512" y2="1086.8691"/><polygon fill="#181818" points="955,1076.8691,959,1086.8691,963,1076.8691,959,1080.8691" style="stroke:#181818;stroke-width:1.0;"/><line style="stroke:#181818;stroke-width:1.0;" x1="996" x2="1062" y1="1049.9512" y2="1049.9512"/><polygon fill="#181818" points="1058,1129.4629,1062,1139.4629,1066,1129.4629,1062,1133.4629" style="stroke:#181818;stroke-width:1.0;"/><line style="stroke:#181818;stroke-width:1.0;" x1="1062" x2="1062" y1="1049.9512" y2="1224.0566"/><line style="stroke:#181818;stroke-width:1.0;" x1="1062" x2="971" y1="1224.0566" y2="1224.0566"/><polygon fill="#181818" points="981,1220.0566,971,1224.0566,981,1228.0566,977,1224.0566" style="stroke:#181818;stroke-width:1.0;"/><line style="stroke:#181818;stroke-width:1.0;" x1="959" x2="959" y1="1192.0566" y2="1212.0566"/><polygon fill="#181818" points="955,1202.0566,959,1212.0566,963,1202.0566,959,1206.0566" style="stroke:#181818;stroke-width:1.0;"/><line style="stroke:#181818;stroke-width:1.0;" x1="959" x2="959" y1="1002.9512" y2="1037.9512"/><polygon fill="#181818" points="955,1027.9512,959,1037.9512,963,1027.9512,959,1031.9512" style="stroke:#181818;stroke-width:1.0;"/><line style="stroke:#181818;stroke-width:1.0;" x1="1379" x2="1379" y1="579.7402" y2="599.7402"/><polygon fill="#181818" points="1375,589.7402,1379,599.7402,1383,589.7402,1379,593.7402" style="stroke:#181818;stroke-width:1.0;"/><line style="stroke:#181818;stroke-width:1.0;" x1="1379" x2="1379" y1="634.834" y2="669.834"/><polygon fill="#181818" points="1375,659.834,1379,669.834,1383,659.834,1379,663.834" style="stroke:#181818;stroke-width:1.0;"/><line style="stroke:#181818;stroke-width:1.0;" x1="1379" x2="1379" y1="704.9277" y2="739.9277"/><polygon fill="#181818" points="1375,729.9277,1379,739.9277,1383,729.9277,1379,733.9277" style="stroke:#181818;stroke-width:1.0;"/><line style="stroke:#181818;stroke-width:1.0;" x1="299" x2="299" y1="511.7275" y2="544.6465"/><polygon fill="#181818" points="295,534.6465,299,544.6465,303,534.6465,299,538.6465" style="stroke:#181818;stroke-width:1.0;"/><line style="stroke:#181818;stroke-width:1.0;" x1="299" x2="299" y1="1236.0566" y2="1256.0566"/><polygon fill="#181818" points="295,1246.0566,299,1256.0566,303,1246.0566,299,1250.0566" style="stroke:#181818;stroke-width:1.0;"/><line style="stroke:#181818;stroke-width:1.0;" x1="959" x2="959" y1="511.7275" y2="544.6465"/><polygon fill="#181818" points="955,534.6465,959,544.6465,963,534.6465,959,538.6465" style="stroke:#181818;stroke-width:1.0;"/><line style="stroke:#181818;stroke-width:1.0;" x1="959" x2="959" y1="1236.0566" y2="1256.0566"/><polygon fill="#181818" points="955,1246.0566,959,1256.0566,963,1246.0566,959,1250.0566" style="stroke:#181818;stroke-width:1.0;"/><line style="stroke:#181818;stroke-width:1.0;" x1="1379" x2="1379" y1="511.7275" y2="544.6465"/><polygon fill="#181818" points="1375,534.6465,1379,544.6465,1383,534.6465,1379,538.6465" style="stroke:#181818;stroke-width:1.0;"/><line style="stroke:#181818;stroke-width:1.0;" x1="1379" x2="1379" y1="775.0215" y2="1256.0566"/><polygon fill="#181818" points="1375,1246.0566,1379,1256.0566,1383,1246.0566,1379,1250.0566" style="stroke:#181818;stroke-width:1.0;"/><line style="stroke:#181818;stroke-width:1.0;" x1="362" x2="869" y1="499.7275" y2="499.7275"/><polygon fill="#181818" points="859,495.7275,869,499.7275,859,503.7275,863,499.7275" style="stroke:#181818;stroke-width:1.0;"/><line style="stroke:#181818;stroke-width:1.0;" x1="1049" x2="1332.5" y1="499.7275" y2="499.7275"/><polygon fill="#181818" points="1322.5,495.7275,1332.5,499.7275,1322.5,503.7275,1326.5,499.7275" style="stroke:#181818;stroke-width:1.0;"/><line style="stroke:#181818;stroke-width:1.0;" x1="797" x2="299" y1="472.7275" y2="472.7275"/><line style="stroke:#181818;stroke-width:1.0;" x1="299" x2="299" y1="472.7275" y2="487.7275"/><polygon fill="#181818" points="295,477.7275,299,487.7275,303,477.7275,299,481.7275" style="stroke:#181818;stroke-width:1.0;"/><line style="stroke:#181818;stroke-width:1.0;" x1="1425.5" x2="1510" y1="499.7275" y2="499.7275"/><line style="stroke:#181818;stroke-width:1.0;" x1="1510" x2="1510" y1="499.7275" y2="1256.0566"/><polygon fill="#181818" points="1506,1246.0566,1510,1256.0566,1514,1246.0566,1510,1250.0566" style="stroke:#181818;stroke-width:1.0;"/><line style="stroke:#181818;stroke-width:1.0;" x1="299" x2="1510" y1="1256.0566" y2="1256.0566"/><line style="stroke:#181818;stroke-width:1.0;" x1="797" x2="797" y1="1256.0566" y2="1276.0566"/><polygon fill="#181818" points="793,1266.0566,797,1276.0566,801,1266.0566,797,1270.0566" style="stroke:#181818;stroke-width:1.0;"/><line style="stroke:#181818;stroke-width:1.0;" x1="797" x2="797" y1="278.6211" y2="298.6211"/><polygon fill="#181818" points="793,288.6211,797,298.6211,801,288.6211,797,292.6211" style="stroke:#181818;stroke-width:1.0;"/><line style="stroke:#181818;stroke-width:1.0;" x1="872.5" x2="1588" y1="1343.1504" y2="1343.1504"/><line style="stroke:#181818;stroke-width:1.0;" x1="1588" x2="1588" y1="820.9746" y2="1343.1504"/><polygon fill="#181818" points="1584,830.9746,1588,820.9746,1592,830.9746,1588,826.9746" style="stroke:#181818;stroke-width:1.0;"/><line style="stroke:#181818;stroke-width:1.0;" x1="1588" x2="1588" y1="266.6211" y2="785.8809"/><line style="stroke:#181818;stroke-width:1.0;" x1="1588" x2="809" y1="266.6211" y2="266.6211"/><polygon fill="#181818" points="819,262.6211,809,266.6211,819,270.6211,815,266.6211" style="stroke:#181818;stroke-width:1.0;"/><line style="stroke:#181818;stroke-width:1.0;" x1="797" x2="797" y1="1311.1504" y2="1331.1504"/><polygon fill="#181818" points="793,1321.1504,797,1331.1504,801,1321.1504,797,1325.1504" style="stroke:#181818;stroke-width:1.0;"/><line style="stroke:#181818;stroke-width:1.0;" x1="797" x2="797" y1="1399.1504" y2="1424.0684"/><polygon fill="#181818" points="793,1414.0684,797,1424.0684,801,1414.0684,797,1418.0684" style="stroke:#181818;stroke-width:1.0;"/><line style="stroke:#181818;stroke-width:1.0;" x1="839.5" x2="881" y1="1387.1504" y2="1387.1504"/><polygon fill="#181818" points="877,1431.6152,881,1441.6152,885,1431.6152,881,1435.6152" style="stroke:#181818;stroke-width:1.0;"/><line style="stroke:#181818;stroke-width:1.0;" x1="881" x2="881" y1="1387.1504" y2="1491.1621"/><line style="stroke:#181818;stroke-width:1.0;" x1="881" x2="809" y1="1491.1621" y2="1491.1621"/><polygon fill="#181818" points="819,1487.1621,809,1491.1621,819,1495.1621,815,1491.1621" style="stroke:#181818;stroke-width:1.0;"/><line style="stroke:#181818;stroke-width:1.0;" x1="797" x2="797" y1="1459.1621" y2="1479.1621"/><polygon fill="#181818" points="793,1469.1621,797,1479.1621,801,1469.1621,797,1473.1621" style="stroke:#181818;stroke-width:1.0;"/><line style="stroke:#181818;stroke-width:1.0;" x1="797" x2="797" y1="1355.1504" y2="1375.1504"/><polygon fill="#181818" points="793,1365.1504,797,1375.1504,801,1365.1504,797,1369.1504" style="stroke:#181818;stroke-width:1.0;"/><line style="stroke:#181818;stroke-width:1.0;" x1="797" x2="797" y1="1503.1621" y2="1523.1621"/><polygon fill="#181818" points="793,1513.1621,797,1523.1621,801,1513.1621,797,1517.1621" style="stroke:#181818;stroke-width:1.0;"/><!--MD5=[b5d5ca208fedf1f66bb7d61071201819]
@startuml fluxo ferramenta interno

title "Funcionamento Interno"

start
    :get_next_token();
    if (Token é BEGIN?) then (Sim)

    else (Não)
        end
    endif

    repeat
        :Início da função recursiva;

        while (Compara Token com INTERFACE, CLASSE, ENUM, ABSTRACT, ID ou END) is (é diferente)
            :get_next_token();
        endwhile (é um desses)
        
        if (Token é INTERFACE?) then (Sim)
            :get_next_token();
            if (Token é ID) then (Sim)
                :adiciona interface no container de objetos;
                :get_next_token();
                if (Token é IMPLEMENTS) then (Sim)
                    :get_next_token();
                    :Adiciona relação de implementação no objeto atual;
                    :get_next_token();
                    :Processa atributos e métodos;
                (Não) elseif (Token é OPENING_BRACE) then(Sim)
                    :get_next_token();
                    :Processa atributos e métodos;
                endif
            endif
        (não) elseif (Token é CLASSE ou ABSTRACT) then (Sim)
            :get_next_token();
            :adiciona classe no container de objetos;
            :get_next_token();
            if (Token é EXTENDS) then (Sim)
                :Adiciona relação de herança no objeto atual;
            (Não) elseif (Token é IMPLEMENTS) then (Sim)
                :Adiciona relação de implementação no objeto atual;
            endif
            :get_next_token();
            if (Token é ID) then (Sim)
                :get_next_token();
                :Processa atributos e métodos;
            endif
        (não) elseif (Token é ENUM) then (Sim)
            :get_next_token();
            :adiciona enum no container de objetos;
            :get_next_token();
            :Processa atributos;
        endif
        :get_next_token();
    backward:Chamada recursiva;
    repeat while (Token é CLOSING_BRACE)
    if(Token é END) then (Sim)
        :Sai da função recursiva;
    endif        
stop

@enduml

PlantUML version 1.2022.7(Mon Aug 22 14:01:30 BRT 2022)
(GPL source distribution)
Java Runtime: Java(TM) SE Runtime Environment
JVM: Java HotSpot(TM) 64-Bit Server VM
Default Encoding: Cp1252
Language: pt
Country: BR
--></g></svg>